<?xml version="1.0" encoding="UTF-8"?>
<svg id="Layer_2" data-name="Layer 2" xmlns="http://www.w3.org/2000/svg" viewBox="0 0 287.23 116.33">
  <g id="Layer_1-2" data-name="Layer 1">
    <path d="m286.95.89c-5.4-2.42-8.24,2.31-11.3,5.26-15.73,15.1-31.28,30.38-46.89,45.59-1.03,1-2.06,2.09-3.18,2.91-1.9.84-3.44,1.22-4.68,1.22-.34-.07-.68-.16-1.04-.3-4.11-1.6-3.43-5.54-3.44-8.94-.04-11.42,0-22.85-.02-34.27,0-4.49.62-9.45-4.62-11.62-1.27-.53-2.38-.63-3.37-.46-3.25.42-5.43,3.66-7.74,5.87-15.73,15.1-31.28,30.38-46.89,45.59-1.65,1.61-3.3,3.44-5.38,4.04-1.1.29-2.32.25-3.7-.35-3.51-1.53-3.15-5-3.16-8.11-.01-5.89,0-11.77,0-17.66h-.05c0-7.27.41-14.57-.11-21.8,0-.07-.02-.14-.02-.21-.06-.74-.16-1.46-.34-2.15-1.01-4.15-3.77-6.16-6.99-5.29-3.27.18-5.29,3.44-7.56,5.62-15.98,15.33-31.89,30.73-47.77,46.16-2.56,2.49-5.1,5.12-8.98,3.43-3.51-1.53-3.15-5-3.16-8.11-.01-5.89,0-11.77,0-17.66h-.05c0-7.27.41-14.57-.11-21.8-.55-7.58-5.9-10.29-11.15-5.37C37.29,19.28,19.82,36.56,2.18,53.66c-2.25,2.18-2.92,4.93-1.26,7.54,1.75,2.75,4.37,2.81,7.23,1.21,8.8-4.94,10.36.88,10.52,7.58.27,11.42-.07,22.85.16,34.27.08,4.18-1.96,9.64,3.95,11.62,5.29,1.77,8.12-2.63,11.28-5.71,15.63-15.21,31.17-30.5,46.92-45.58.69-.66,1.38-1.45,2.13-2.17.01,0,.02-.01.03-.02,2.14-1.2,3.85-1.76,5.22-1.83.46.13.93.32,1.44.61,2.5,1.41,3.38,3.54,3.68,5.93.04.38.08.76.1,1.15.04.63.04,1.27.04,1.92-.04,11.08-.18,22.16.07,33.23.1,4.22-2.13,9.69,3.12,12.17,1.63.77,3.05.89,4.34.6,3.26-.57,5.48-3.67,7.89-6.02,15.63-15.21,31.17-30.5,46.92-45.58,1.41-1.35,2.85-3.26,4.75-3.94.93-.21,1.95-.18,3.1.25,4.95,1.85,4,6.7,4.01,10.78.05,11.77-.02,23.54.08,35.31.03,3.46.12,7.3,4.01,8.83.85.33,1.64.47,2.39.47,4.17.39,6.88-3.62,9.68-6.32,15.19-14.67,30.18-29.53,45.3-44.26,2.64-2.57,62.54-62.63,57.64-64.83Z" style="fill: #6c6aac; stroke-width: 0px;"/>
  </g>
</svg>