<svg width="430" height="515" viewBox="0 0 430 515" fill="none" xmlns="http://www.w3.org/2000/svg">
<rect width="430" height="515" fill="white"/>
<g clip-path="url(#clip0_1042_306)">
<path d="M80.8739 246.472C80.2206 246.472 79.8939 246.139 79.8939 245.472C79.8939 244.819 80.2206 244.492 80.8739 244.492C81.5139 244.492 81.8339 244.819 81.8339 245.472C81.8339 246.139 81.5139 246.472 80.8739 246.472ZM72.0939 257.432C70.9606 257.432 70.0672 257.052 69.4139 256.292C68.8406 255.612 68.5539 254.745 68.5539 253.692V251.292L70.2739 250.372V253.532C70.2739 255.052 70.9739 255.812 72.3739 255.812H77.8339C77.2072 255.119 76.8939 254.172 76.8939 252.972C76.8939 251.519 77.2739 250.385 78.0339 249.572C78.7139 248.852 79.6072 248.492 80.7139 248.492C81.8472 248.492 82.7206 248.845 83.3339 249.552C83.8806 250.179 84.1539 250.999 84.1539 252.012V253.892C84.1539 255.012 83.8139 255.899 83.1339 256.552C82.5072 257.139 81.6806 257.432 80.6539 257.432H72.0939ZM82.4339 252.092C82.4339 250.759 81.8606 250.092 80.7139 250.092C80.0472 250.092 79.5272 250.345 79.1539 250.852C78.7939 251.345 78.6139 252.039 78.6139 252.932C78.6139 253.812 78.7939 254.512 79.1539 255.032C79.5139 255.552 79.9939 255.812 80.5939 255.812C81.8206 255.812 82.4339 255.145 82.4339 253.812V252.092ZM85.9578 257.432L86.7978 255.812H90.3578C90.8911 255.812 91.2645 255.679 91.4778 255.412C91.7045 255.145 91.8178 254.685 91.8178 254.032C91.8178 252.259 90.9978 250.925 89.3578 250.032L90.2378 248.552C92.3311 249.779 93.4245 251.472 93.5178 253.632C93.5445 254.405 93.7178 254.965 94.0378 255.312C94.3711 255.645 94.8978 255.812 95.6178 255.812H96.7978V257.432H95.4778C94.3711 257.432 93.5045 257.079 92.8778 256.372C92.4378 257.079 91.6978 257.432 90.6578 257.432H85.9578ZM109.227 255.812H110.547V257.432H109.027C107.907 257.432 107.04 257.085 106.427 256.392C105.774 257.085 104.887 257.432 103.767 257.432H101.607C101.154 257.432 100.727 257.365 100.327 257.232C99.9137 257.365 99.487 257.432 99.047 257.432H95.607V255.812H98.187C97.6804 255.132 97.427 254.359 97.427 253.492C97.427 252.705 97.6204 252.039 98.007 251.492C98.3404 250.265 98.9737 249.325 99.907 248.672C100.667 248.152 101.527 247.892 102.487 247.892C103.9 247.892 105.067 248.372 105.987 249.332C106.854 250.239 107.287 251.405 107.287 252.832V253.812C107.287 255.145 107.934 255.812 109.227 255.812ZM103.707 255.812C104.36 255.812 104.827 255.652 105.107 255.332C105.4 254.999 105.547 254.465 105.547 253.732V252.832C105.547 251.725 105.194 250.865 104.487 250.252C103.914 249.745 103.227 249.492 102.427 249.492C101.507 249.492 100.787 249.792 100.267 250.392H100.327C101.207 250.392 101.907 250.679 102.427 251.252C102.96 251.812 103.227 252.559 103.227 253.492C103.227 254.385 102.967 255.159 102.447 255.812H103.707ZM100.327 255.632C101.42 255.259 101.967 254.512 101.967 253.392C101.967 252.832 101.814 252.385 101.507 252.052C101.214 251.705 100.82 251.532 100.327 251.532C99.8337 251.532 99.4337 251.705 99.127 252.052C98.8337 252.385 98.687 252.832 98.687 253.392C98.687 254.512 99.2337 255.259 100.327 255.632ZM110.878 246.332C110.224 246.332 109.897 245.999 109.897 245.332C109.897 244.679 110.224 244.352 110.878 244.352C111.518 244.352 111.838 244.679 111.838 245.332C111.838 245.999 111.518 246.332 110.878 246.332ZM113.418 246.332C112.764 246.332 112.438 245.999 112.438 245.332C112.438 244.679 112.764 244.352 113.418 244.352C114.058 244.352 114.378 244.679 114.378 245.332C114.378 245.999 114.058 246.332 113.418 246.332ZM109.337 257.432V255.812H110.658C111.964 255.812 112.618 255.145 112.618 253.812V249.672L114.338 248.752V253.872C114.338 255.005 113.998 255.899 113.318 256.552C112.691 257.139 111.871 257.432 110.858 257.432H109.337ZM141.315 246.132C140.661 246.132 140.335 245.799 140.335 245.132C140.335 244.479 140.661 244.152 141.315 244.152C141.955 244.152 142.275 244.479 142.275 245.132C142.275 245.799 141.955 246.132 141.315 246.132ZM143.875 246.132C143.221 246.132 142.895 245.799 142.895 245.132C142.895 244.479 143.221 244.152 143.875 244.152C144.515 244.152 144.835 244.479 144.835 245.132C144.835 245.799 144.515 246.132 143.875 246.132ZM142.615 257.432C141.401 257.432 140.455 257.025 139.775 256.212C139.188 255.505 138.895 254.605 138.895 253.512C138.895 252.325 139.221 251.299 139.875 250.432C140.541 249.552 141.488 248.905 142.715 248.492C144.008 248.932 144.981 249.625 145.635 250.572C146.221 251.412 146.515 252.392 146.515 253.512C146.515 254.779 146.141 255.772 145.395 256.492C144.728 257.119 143.868 257.432 142.815 257.432H142.615ZM142.555 255.812H142.855C143.455 255.812 143.928 255.605 144.275 255.192C144.635 254.779 144.815 254.225 144.815 253.532C144.815 251.932 144.115 250.785 142.715 250.092C141.315 250.785 140.615 251.925 140.615 253.512C140.615 254.219 140.788 254.779 141.135 255.192C141.481 255.605 141.955 255.812 142.555 255.812ZM148.064 257.432L148.904 255.812H152.464C152.998 255.812 153.371 255.679 153.584 255.412C153.811 255.145 153.924 254.685 153.924 254.032C153.924 252.259 153.104 250.925 151.464 250.032L152.344 248.552C154.438 249.779 155.531 251.472 155.624 253.632C155.651 254.405 155.824 254.965 156.144 255.312C156.478 255.645 157.004 255.812 157.724 255.812H158.904V257.432H157.584C156.478 257.432 155.611 257.079 154.984 256.372C154.544 257.079 153.804 257.432 152.764 257.432H148.064ZM168.493 255.812V257.432H157.713V255.812H161.173C160.52 254.972 160.193 253.939 160.193 252.712C160.193 251.352 160.66 250.272 161.593 249.472C162.353 248.832 163.233 248.505 164.233 248.492C165.647 248.492 166.747 249.059 167.533 250.192V251.812C166.68 250.665 165.647 250.092 164.433 250.092C163.673 250.092 163.06 250.339 162.593 250.832C162.14 251.312 161.913 251.959 161.913 252.772C161.913 253.692 162.187 254.432 162.733 254.992C163.293 255.539 164.033 255.812 164.953 255.812H168.493ZM174.765 257.432C173.605 257.432 172.712 257.059 172.085 256.312C171.552 255.672 171.285 254.859 171.285 253.872V245.452L173.005 244.532V253.812C173.005 255.145 173.659 255.812 174.965 255.812H176.285V257.432H174.765ZM175.077 257.432V255.812H176.877C178.17 255.812 178.817 255.145 178.817 253.812V251.012L180.537 250.092V253.812C180.537 255.145 181.19 255.812 182.497 255.812H183.417C184.723 255.812 185.377 255.145 185.377 253.812V250.332L187.097 249.432V253.812C187.097 255.145 187.743 255.812 189.037 255.812H189.977C191.283 255.812 191.937 255.145 191.937 253.812V249.672L193.657 248.752V253.632C193.657 255.085 194.35 255.812 195.737 255.812H197.397V257.432H195.597C194.397 257.432 193.483 257.025 192.857 256.212C192.297 257.012 191.423 257.419 190.237 257.432H188.857C187.683 257.432 186.81 257.039 186.237 256.252C185.663 257.025 184.81 257.419 183.677 257.432H182.297C181.15 257.432 180.277 257.039 179.677 256.252C179.103 257.039 178.23 257.432 177.057 257.432H175.077ZM199.47 252.012C199.47 250.852 199.817 249.952 200.51 249.312C201.123 248.765 201.923 248.492 202.91 248.492C204.177 248.492 205.15 248.959 205.83 249.892C206.417 250.679 206.71 251.705 206.71 252.972C206.71 254.412 206.337 255.539 205.59 256.352C204.937 257.072 204.083 257.432 203.03 257.432C201.83 257.432 200.917 257.099 200.29 256.432C199.65 257.099 198.79 257.432 197.71 257.432H196.19V255.812H197.51C198.817 255.812 199.47 255.145 199.47 253.812V252.012ZM201.19 253.952C201.19 255.192 201.797 255.812 203.01 255.812C203.637 255.812 204.123 255.559 204.47 255.052C204.83 254.545 205.01 253.839 205.01 252.932C205.01 252.039 204.823 251.345 204.45 250.852C204.077 250.345 203.563 250.092 202.91 250.092C201.763 250.092 201.19 250.759 201.19 252.092V253.952ZM233.401 246.132C232.748 246.132 232.421 245.799 232.421 245.132C232.421 244.479 232.748 244.152 233.401 244.152C234.041 244.152 234.361 244.479 234.361 245.132C234.361 245.799 234.041 246.132 233.401 246.132ZM235.961 246.132C235.308 246.132 234.981 245.799 234.981 245.132C234.981 244.479 235.308 244.152 235.961 244.152C236.601 244.152 236.921 244.479 236.921 245.132C236.921 245.799 236.601 246.132 235.961 246.132ZM234.701 257.432C233.488 257.432 232.541 257.025 231.861 256.212C231.275 255.505 230.981 254.605 230.981 253.512C230.981 252.325 231.308 251.299 231.961 250.432C232.628 249.552 233.575 248.905 234.801 248.492C236.095 248.932 237.068 249.625 237.721 250.572C238.308 251.412 238.601 252.392 238.601 253.512C238.601 254.779 238.228 255.772 237.481 256.492C236.815 257.119 235.955 257.432 234.901 257.432H234.701ZM234.641 255.812H234.941C235.541 255.812 236.015 255.605 236.361 255.192C236.721 254.779 236.901 254.225 236.901 253.532C236.901 251.932 236.201 250.785 234.801 250.092C233.401 250.785 232.701 251.925 232.701 253.512C232.701 254.219 232.875 254.779 233.221 255.192C233.568 255.605 234.041 255.812 234.641 255.812ZM241.751 257.432V245.452L243.471 244.532V257.432H241.751ZM245.464 257.432L246.304 255.812H249.864C250.397 255.812 250.77 255.679 250.984 255.412C251.21 255.145 251.324 254.685 251.324 254.032C251.324 252.245 250.517 250.892 248.904 249.972L249.744 248.552C251.944 249.805 253.044 251.639 253.044 254.052C253.044 256.305 252.084 257.432 250.164 257.432H245.464ZM255.183 244.252L255.643 243.392H256.183C256.05 243.152 255.983 242.905 255.983 242.652C255.983 242.252 256.13 241.912 256.423 241.632C256.717 241.339 257.063 241.192 257.463 241.192C257.797 241.192 258.117 241.299 258.423 241.512V242.392C258.13 242.165 257.85 242.052 257.583 242.052C257.09 242.052 256.843 242.272 256.843 242.712C256.843 242.939 256.937 243.165 257.123 243.392H258.943L258.483 244.252H255.183ZM256.243 257.432V246.252L257.963 245.332V257.432H256.243ZM292.202 255.812V257.432H289.722C289.668 258.579 289.175 259.525 288.242 260.272C287.455 260.885 286.562 261.192 285.562 261.192C284.735 261.192 283.955 260.999 283.222 260.612V259.092C283.928 259.465 284.628 259.652 285.322 259.652C286.028 259.652 286.642 259.432 287.162 258.992C287.695 258.552 287.968 258.025 287.982 257.412C287.288 257.385 286.775 257.359 286.442 257.332C285.002 257.252 283.915 256.765 283.182 255.872C282.568 255.125 282.262 254.159 282.262 252.972C282.262 251.519 282.648 250.385 283.422 249.572C284.115 248.852 285.028 248.492 286.162 248.492C287.348 248.492 288.262 248.845 288.902 249.552C289.448 250.179 289.722 250.999 289.722 252.012V255.812H292.202ZM287.982 252.132C287.982 250.772 287.375 250.092 286.162 250.092C285.468 250.092 284.928 250.345 284.542 250.852C284.155 251.345 283.962 252.039 283.962 252.932C283.962 254.679 284.815 255.605 286.522 255.712C286.842 255.752 287.328 255.785 287.982 255.812V252.132ZM293.408 251.492C293.742 250.265 294.375 249.325 295.308 248.672C296.068 248.152 296.928 247.892 297.888 247.892C299.302 247.892 300.468 248.372 301.388 249.332C302.255 250.239 302.688 251.405 302.688 252.832V253.892C302.688 255.052 302.328 255.952 301.608 256.592C300.982 257.152 300.168 257.432 299.168 257.432H297.008C296.555 257.432 296.128 257.365 295.728 257.232C295.315 257.365 294.888 257.432 294.448 257.432H291.008V255.812H293.588C293.082 255.132 292.828 254.359 292.828 253.492C292.828 252.705 293.022 252.039 293.408 251.492ZM300.948 253.732V252.832C300.948 251.725 300.595 250.865 299.888 250.252C299.315 249.745 298.628 249.492 297.828 249.492C296.908 249.492 296.188 249.792 295.668 250.392H295.728C296.608 250.392 297.308 250.679 297.828 251.252C298.362 251.812 298.628 252.559 298.628 253.492C298.628 254.385 298.368 255.159 297.848 255.812H299.108C299.762 255.812 300.228 255.652 300.508 255.332C300.802 254.999 300.948 254.465 300.948 253.732ZM295.728 255.632C296.822 255.259 297.368 254.512 297.368 253.392C297.368 252.832 297.215 252.385 296.908 252.052C296.615 251.705 296.222 251.532 295.728 251.532C295.235 251.532 294.835 251.705 294.528 252.052C294.235 252.385 294.088 252.832 294.088 253.392C294.088 254.512 294.635 255.259 295.728 255.632ZM70.2939 271.132C69.6406 271.132 69.3139 270.799 69.3139 270.132C69.3139 269.479 69.6406 269.152 70.2939 269.152C70.9339 269.152 71.2539 269.479 71.2539 270.132C71.2539 270.799 70.9339 271.132 70.2939 271.132ZM72.8339 271.132C72.1806 271.132 71.8539 270.799 71.8539 270.132C71.8539 269.479 72.1806 269.152 72.8339 269.152C73.4739 269.152 73.7939 269.479 73.7939 270.132C73.7939 270.799 73.4739 271.132 72.8339 271.132ZM76.5539 280.812H77.8739V282.432H76.3539C74.9806 282.432 73.9939 281.925 73.3939 280.912C72.7539 281.525 71.9606 281.832 71.0139 281.832C69.8406 281.832 68.9072 281.392 68.2139 280.512C67.6406 279.765 67.3539 278.852 67.3539 277.772C67.3539 276.479 67.7472 275.439 68.5339 274.652C69.2006 273.972 70.0139 273.632 70.9739 273.632C71.7072 273.632 72.3406 273.819 72.8739 274.192V273.332L74.6139 272.412V278.812C74.6139 280.145 75.2606 280.812 76.5539 280.812ZM72.8739 276.052C72.3806 275.505 71.7739 275.232 71.0539 275.232C70.4672 275.232 69.9872 275.472 69.6139 275.952C69.2406 276.419 69.0539 277.032 69.0539 277.792C69.0539 278.565 69.2406 279.185 69.6139 279.652C69.9872 280.119 70.4739 280.352 71.0739 280.352C71.8206 280.352 72.4339 280.045 72.9139 279.432C72.8872 279.192 72.8739 279.005 72.8739 278.872V276.052ZM76.6812 282.432V280.812H78.0013C79.3079 280.812 79.9613 280.145 79.9613 278.812V274.672L81.6813 273.752V278.872C81.6813 280.005 81.3413 280.899 80.6613 281.552C80.0346 282.139 79.2146 282.432 78.2013 282.432H76.6812ZM79.9013 286.412C79.2479 286.412 78.9213 286.079 78.9213 285.412C78.9213 284.759 79.2479 284.432 79.9013 284.432C80.5413 284.432 80.8613 284.759 80.8613 285.412C80.8613 286.079 80.5413 286.412 79.9013 286.412ZM88.7527 282.432C87.5927 282.432 86.6993 282.059 86.0727 281.312C85.5393 280.672 85.2727 279.859 85.2727 278.872V270.452L86.9927 269.532V278.812C86.9927 280.145 87.646 280.812 88.9527 280.812H90.2727V282.432H88.7527ZM95.3641 280.752C95.8974 278.739 96.7774 277.059 98.0041 275.712C99.3774 274.232 100.977 273.492 102.804 273.492C104.324 273.492 105.537 274.019 106.444 275.072C107.204 275.965 107.584 277.065 107.584 278.372V278.892C107.584 280.052 107.231 280.952 106.524 281.592C105.911 282.152 105.104 282.432 104.104 282.432H95.8241C94.7174 282.432 93.8441 282.079 93.2041 281.372C92.5641 282.079 91.6907 282.432 90.5841 282.432H89.0641V280.812H90.3841C91.6907 280.812 92.3441 280.145 92.3441 278.812V276.012L94.0641 275.092V278.812C94.0641 279.932 94.4974 280.579 95.3641 280.752ZM105.864 278.732V278.372C105.864 277.332 105.544 276.505 104.904 275.892C104.344 275.359 103.651 275.092 102.824 275.092C101.411 275.092 100.137 275.745 99.0041 277.052C98.1374 278.052 97.4707 279.305 97.0041 280.812H104.004C105.244 280.812 105.864 280.119 105.864 278.732ZM118.2 270.452L119.94 269.532V278.652C119.94 279.839 119.587 280.779 118.88 281.472C118.214 282.112 117.34 282.432 116.26 282.432H109.38L110.22 280.812H113.14V273.052L114.86 272.132V280.812H116.12C117.507 280.812 118.2 280.085 118.2 278.632V270.452ZM115.16 285.132C114.867 284.905 114.587 284.792 114.32 284.792C113.827 284.792 113.58 285.012 113.58 285.452C113.58 285.679 113.674 285.905 113.86 286.132H115.68L115.22 286.992H111.92L112.38 286.132H112.92C112.787 285.892 112.72 285.639 112.72 285.372C112.72 284.985 112.867 284.645 113.16 284.352C113.454 284.072 113.8 283.932 114.2 283.932C114.534 283.932 114.854 284.039 115.16 284.252V285.132ZM123.534 282.432V270.452L125.254 269.532V282.432H123.534ZM138.055 271.132C137.401 271.132 137.075 270.799 137.075 270.132C137.075 269.479 137.401 269.152 138.055 269.152C138.695 269.152 139.015 269.479 139.015 270.132C139.015 270.799 138.695 271.132 138.055 271.132ZM140.595 271.132C139.941 271.132 139.615 270.799 139.615 270.132C139.615 269.479 139.941 269.152 140.595 269.152C141.235 269.152 141.555 269.479 141.555 270.132C141.555 270.799 141.235 271.132 140.595 271.132ZM144.315 280.812H145.635V282.432H144.115C142.741 282.432 141.755 281.925 141.155 280.912C140.515 281.525 139.721 281.832 138.775 281.832C137.601 281.832 136.668 281.392 135.975 280.512C135.401 279.765 135.115 278.852 135.115 277.772C135.115 276.479 135.508 275.439 136.295 274.652C136.961 273.972 137.775 273.632 138.735 273.632C139.468 273.632 140.101 273.819 140.635 274.192V273.332L142.375 272.412V278.812C142.375 280.145 143.021 280.812 144.315 280.812ZM140.635 276.052C140.141 275.505 139.535 275.232 138.815 275.232C138.228 275.232 137.748 275.472 137.375 275.952C137.001 276.419 136.815 277.032 136.815 277.792C136.815 278.565 137.001 279.185 137.375 279.652C137.748 280.119 138.235 280.352 138.835 280.352C139.581 280.352 140.195 280.045 140.675 279.432C140.648 279.192 140.635 279.005 140.635 278.872V276.052ZM151.402 280.812H152.722V282.432H151.202C150.095 282.432 149.222 282.079 148.582 281.372C147.942 282.079 147.069 282.432 145.962 282.432H144.442V280.812H145.762C147.069 280.812 147.722 280.145 147.722 278.812V274.672L149.442 273.752V278.812C149.442 280.145 150.095 280.812 151.402 280.812ZM146.622 284.432C147.262 284.432 147.582 284.765 147.582 285.432C147.582 286.085 147.262 286.412 146.622 286.412C145.969 286.412 145.642 286.085 145.642 285.432C145.642 284.765 145.969 284.432 146.622 284.432ZM149.162 284.432C149.802 284.432 150.122 284.765 150.122 285.432C150.122 286.085 149.802 286.412 149.162 286.412C148.509 286.412 148.182 286.085 148.182 285.432C148.182 284.765 148.509 284.432 149.162 284.432ZM151.512 282.432V280.812H152.572C153.959 280.812 154.652 280.085 154.652 278.632V270.452L156.392 269.532V278.652C156.392 279.839 156.039 280.779 155.332 281.472C154.666 282.112 153.792 282.432 152.712 282.432H151.512ZM163.467 282.432C162.307 282.432 161.413 282.059 160.787 281.312C160.253 280.672 159.987 279.859 159.987 278.872V270.452L161.707 269.532V278.812C161.707 280.145 162.36 280.812 163.667 280.812H164.987V282.432H163.467ZM176.658 280.812H177.998V282.432H176.478C175.371 282.432 174.498 282.079 173.858 281.372C173.178 282.345 172.185 282.832 170.878 282.832C169.571 282.832 168.585 282.352 167.918 281.392C167.291 282.085 166.418 282.432 165.298 282.432H163.778V280.812H165.098C166.405 280.812 167.058 280.145 167.058 278.812V278.152C167.058 276.605 167.438 275.419 168.198 274.592C168.865 273.859 169.758 273.492 170.878 273.492C172.158 273.492 173.145 273.965 173.838 274.912C174.425 275.725 174.718 276.805 174.718 278.152V278.812C174.718 280.145 175.365 280.812 176.658 280.812ZM170.878 281.212C171.531 281.212 172.045 280.939 172.418 280.392C172.805 279.845 172.998 279.092 172.998 278.132C172.998 276.105 172.291 275.092 170.878 275.092C169.478 275.092 168.778 276.105 168.778 278.132C168.778 280.185 169.478 281.212 170.878 281.212ZM179.045 271.472C178.392 271.472 178.065 271.139 178.065 270.472C178.065 269.819 178.392 269.492 179.045 269.492C179.685 269.492 180.005 269.819 180.005 270.472C180.005 271.139 179.685 271.472 179.045 271.472ZM181.605 271.472C180.952 271.472 180.625 271.139 180.625 270.472C180.625 269.819 180.952 269.492 181.605 269.492C182.245 269.492 182.565 269.819 182.565 270.472C182.565 271.139 182.245 271.472 181.605 271.472ZM183.765 280.812H185.085V282.432H183.565C182.459 282.432 181.585 282.079 180.945 281.372C180.305 282.079 179.432 282.432 178.325 282.432H176.805V280.812H178.125C179.432 280.812 180.085 280.145 180.085 278.812V274.672L181.805 273.752V278.812C181.805 280.145 182.459 280.812 183.765 280.812ZM183.876 282.432V280.812H186.616C189.322 280.812 191.462 279.919 193.036 278.132C191.929 276.092 190.582 275.072 188.996 275.072C187.916 275.072 186.802 275.645 185.656 276.792V275.192C186.776 274.059 187.962 273.492 189.216 273.492C190.242 273.492 191.236 273.865 192.196 274.612C193.156 275.345 194.002 276.399 194.736 277.772V278.652C192.776 281.172 190.062 282.432 186.596 282.432H183.876ZM197.545 282.432V270.452L199.265 269.532V282.432H197.545ZM214.965 273.412C214.312 273.412 213.985 273.079 213.985 272.412C213.985 271.759 214.312 271.432 214.965 271.432C215.605 271.432 215.925 271.759 215.925 272.412C215.925 273.079 215.605 273.412 214.965 273.412ZM222.265 280.812H223.585V282.432H222.065C221.372 282.432 220.772 282.292 220.265 282.012C220.105 283.372 219.512 284.432 218.485 285.192C217.565 285.885 216.425 286.232 215.065 286.232C213.332 286.232 211.985 285.619 211.025 284.392C210.292 283.445 209.925 282.325 209.925 281.032C209.925 279.912 210.205 278.952 210.765 278.152L212.425 277.792C211.825 278.739 211.525 279.759 211.525 280.852C211.525 281.972 211.872 282.892 212.565 283.612C213.219 284.279 214.052 284.612 215.065 284.612C216.239 284.612 217.145 284.272 217.785 283.592C218.319 283.019 218.585 282.272 218.585 281.352V274.672L220.305 273.752V278.812C220.305 280.145 220.959 280.812 222.265 280.812ZM233.159 280.812V282.432H222.379V280.812H225.839C225.185 279.972 224.859 278.939 224.859 277.712C224.859 276.352 225.325 275.272 226.259 274.472C227.019 273.832 227.899 273.505 228.899 273.492C230.312 273.492 231.412 274.059 232.199 275.192V276.812C231.345 275.665 230.312 275.092 229.099 275.092C228.339 275.092 227.725 275.339 227.259 275.832C226.805 276.312 226.579 276.959 226.579 277.772C226.579 278.692 226.852 279.432 227.399 279.992C227.959 280.539 228.699 280.812 229.619 280.812H233.159ZM248.318 280.812H249.638V282.432H248.118C247.438 282.432 246.851 282.299 246.358 282.032C246.238 283.352 245.778 284.405 244.978 285.192C244.245 285.912 243.325 286.272 242.218 286.272C241.418 286.272 240.638 286.072 239.878 285.672V284.172C240.558 284.545 241.238 284.732 241.918 284.732C242.771 284.732 243.438 284.445 243.918 283.872C244.398 283.299 244.638 282.505 244.638 281.492V274.672L246.358 273.752V273.772L246.378 273.752V279.212C246.498 280.279 247.145 280.812 248.318 280.812ZM259.38 280.812H260.52V282.432H259.2C258.08 282.432 257.207 282.085 256.58 281.392C255.953 282.085 255.08 282.432 253.96 282.432H248.44V280.812H253.8C255.08 280.812 255.72 280.139 255.72 278.792V278.612C255.72 277.612 255.333 276.852 254.56 276.332C253.947 275.905 253.193 275.692 252.3 275.692C251.593 275.692 250.887 275.825 250.18 276.092V274.392L254.56 269.532H256.32L252.38 273.972C252.393 273.972 252.413 273.972 252.44 273.972C252.467 273.972 252.487 273.972 252.5 273.972C254.02 273.972 255.247 274.432 256.18 275.352C257.02 276.205 257.44 277.285 257.44 278.592V278.812C257.44 280.145 258.087 280.812 259.38 280.812ZM266.279 280.812H267.599V282.432H266.079C264.972 282.432 264.099 282.079 263.459 281.372C262.819 282.079 261.946 282.432 260.839 282.432H259.319V280.812H260.639C261.946 280.812 262.599 280.145 262.599 278.812V274.672L264.319 273.752V278.812C264.319 280.145 264.972 280.812 266.279 280.812ZM263.339 284.432C263.979 284.432 264.299 284.759 264.299 285.412C264.299 286.079 263.979 286.412 263.339 286.412C262.686 286.412 262.359 286.079 262.359 285.412C262.359 284.759 262.686 284.432 263.339 284.432ZM279.269 280.812H280.609V282.432H279.089C277.983 282.432 277.109 282.079 276.469 281.372C275.789 282.345 274.796 282.832 273.489 282.832C272.183 282.832 271.196 282.352 270.529 281.392C269.903 282.085 269.029 282.432 267.909 282.432H266.389V280.812H267.709C269.016 280.812 269.669 280.145 269.669 278.812V278.152C269.669 276.605 270.049 275.419 270.809 274.592C271.476 273.859 272.369 273.492 273.489 273.492C274.769 273.492 275.756 273.965 276.449 274.912C277.036 275.725 277.329 276.805 277.329 278.152V278.812C277.329 280.145 277.976 280.812 279.269 280.812ZM273.489 281.212C274.143 281.212 274.656 280.939 275.029 280.392C275.416 279.845 275.609 279.092 275.609 278.132C275.609 276.105 274.903 275.092 273.489 275.092C272.089 275.092 271.389 276.105 271.389 278.132C271.389 280.185 272.089 281.212 273.489 281.212ZM279.417 282.432V280.812H280.477C281.863 280.812 282.557 280.085 282.557 278.632V270.452L284.297 269.532V278.652C284.297 279.839 283.943 280.779 283.237 281.472C282.57 282.112 281.697 282.432 280.617 282.432H279.417ZM287.891 282.432V270.452L289.611 269.532V282.432H287.891ZM312.871 271.472C312.218 271.472 311.891 271.139 311.891 270.472C311.891 269.819 312.218 269.492 312.871 269.492C313.511 269.492 313.831 269.819 313.831 270.472C313.831 271.139 313.511 271.472 312.871 271.472ZM315.271 280.812H318.851V282.432H314.131C313.598 282.432 313.144 282.385 312.771 282.292C312.384 282.385 311.931 282.432 311.411 282.432H304.011C302.931 282.432 302.084 282.072 301.471 281.352C300.938 280.725 300.671 279.905 300.671 278.892V276.472L302.391 275.552V278.732C302.391 280.119 303.038 280.812 304.331 280.812H310.251C309.424 279.865 309.011 278.819 309.011 277.672C309.011 276.365 309.384 275.325 310.131 274.552C310.798 273.845 311.678 273.492 312.771 273.492C314.011 273.492 314.978 273.945 315.671 274.852C316.231 275.599 316.511 276.539 316.511 277.672C316.511 278.819 316.098 279.865 315.271 280.812ZM312.771 280.632C313.384 280.419 313.884 280.025 314.271 279.452C314.671 278.879 314.871 278.259 314.871 277.592C314.871 276.832 314.678 276.225 314.291 275.772C313.918 275.319 313.411 275.092 312.771 275.092C312.131 275.092 311.618 275.319 311.231 275.772C310.858 276.212 310.671 276.819 310.671 277.592C310.671 278.259 310.864 278.879 311.251 279.452C311.651 280.025 312.158 280.419 312.771 280.632ZM328.646 269.492C328.059 269.492 327.766 269.192 327.766 268.592C327.766 268.005 328.059 267.712 328.646 267.712C329.233 267.712 329.526 268.005 329.526 268.592C329.526 269.192 329.233 269.492 328.646 269.492ZM327.386 271.872C326.733 271.872 326.406 271.539 326.406 270.872C326.406 270.219 326.733 269.892 327.386 269.892C328.026 269.892 328.346 270.219 328.346 270.872C328.346 271.539 328.026 271.872 327.386 271.872ZM329.926 271.872C329.273 271.872 328.946 271.539 328.946 270.872C328.946 270.219 329.273 269.892 329.926 269.892C330.566 269.892 330.886 270.219 330.886 270.872C330.886 271.539 330.566 271.872 329.926 271.872ZM317.646 282.432V280.812H319.446C320.739 280.812 321.386 280.145 321.386 278.812V276.012L323.106 275.092V278.812C323.106 280.145 323.759 280.812 325.066 280.812H325.986C327.293 280.812 327.946 280.145 327.946 278.812V275.332L329.666 274.432V278.812C329.666 280.145 330.313 280.812 331.606 280.812H332.546C333.853 280.812 334.506 280.145 334.506 278.812V274.672L336.226 273.752V278.632C336.226 280.085 336.919 280.812 338.306 280.812H339.966V282.432H338.166C336.966 282.432 336.053 282.025 335.426 281.212C334.866 282.012 333.993 282.419 332.806 282.432H331.426C330.253 282.432 329.379 282.039 328.806 281.252C328.233 282.025 327.379 282.419 326.246 282.432H324.866C323.719 282.432 322.846 282.039 322.246 281.252C321.673 282.039 320.799 282.432 319.626 282.432H317.646ZM349.699 280.812H350.839V282.432H349.519C348.399 282.432 347.526 282.085 346.899 281.392C346.273 282.085 345.399 282.432 344.279 282.432H338.759V280.812H344.119C345.399 280.812 346.039 280.139 346.039 278.792V278.612C346.039 277.612 345.653 276.852 344.879 276.332C344.266 275.905 343.513 275.692 342.619 275.692C341.913 275.692 341.206 275.825 340.499 276.092V274.392L344.879 269.532H346.639L342.699 273.972C342.713 273.972 342.733 273.972 342.759 273.972C342.786 273.972 342.806 273.972 342.819 273.972C344.339 273.972 345.566 274.432 346.499 275.352C347.339 276.205 347.759 277.285 347.759 278.592V278.812C347.759 280.145 348.406 280.812 349.699 280.812ZM356.458 280.812H357.778V282.432H356.258C355.112 282.432 354.225 282.065 353.598 281.332C352.932 282.065 352.012 282.432 350.838 282.432H349.638V280.812H350.698C352.085 280.812 352.778 280.085 352.778 278.632V270.452L354.518 269.532V278.652C354.518 279.425 354.665 279.979 354.958 280.312C355.265 280.645 355.765 280.812 356.458 280.812ZM356.572 282.432V280.812H357.632C359.019 280.812 359.712 280.085 359.712 278.632V270.452L361.452 269.532V278.652C361.452 279.839 361.099 280.779 360.392 281.472C359.725 282.112 358.852 282.432 357.772 282.432H356.572ZM73.9139 298.132C73.2606 298.132 72.9339 297.799 72.9339 297.132C72.9339 296.479 73.2606 296.152 73.9139 296.152C74.5539 296.152 74.8739 296.479 74.8739 297.132C74.8739 297.799 74.5539 298.132 73.9139 298.132ZM76.4539 298.132C75.8006 298.132 75.4739 297.799 75.4739 297.132C75.4739 296.479 75.8006 296.152 76.4539 296.152C77.0939 296.152 77.4139 296.479 77.4139 297.132C77.4139 297.799 77.0939 298.132 76.4539 298.132ZM84.4739 305.812H85.3939V307.432H84.2739C83.1539 307.432 82.2806 307.085 81.6539 306.392C81.0272 307.085 80.1539 307.432 79.0339 307.432H71.8939C70.8139 307.432 69.9672 307.072 69.3539 306.352C68.8206 305.725 68.5539 304.905 68.5539 303.892V301.472L70.2739 300.552V303.732C70.2739 305.119 70.9206 305.812 72.2139 305.812H78.8539C80.1472 305.812 80.7939 305.119 80.7939 303.732V299.672L82.5139 298.752V303.812C82.5139 305.145 83.1672 305.812 84.4739 305.812ZM86.4408 296.472C85.7874 296.472 85.4608 296.139 85.4608 295.472C85.4608 294.819 85.7874 294.492 86.4408 294.492C87.0808 294.492 87.4008 294.819 87.4008 295.472C87.4008 296.139 87.0808 296.472 86.4408 296.472ZM89.0008 296.472C88.3474 296.472 88.0208 296.139 88.0208 295.472C88.0208 294.819 88.3474 294.492 89.0008 294.492C89.6408 294.492 89.9608 294.819 89.9608 295.472C89.9608 296.139 89.6408 296.472 89.0008 296.472ZM91.1608 305.812H92.4808V307.432H90.9608C89.8541 307.432 88.9808 307.079 88.3408 306.372C87.7008 307.079 86.8274 307.432 85.7208 307.432H84.2008V305.812H85.5208C86.8274 305.812 87.4808 305.145 87.4808 303.812V299.672L89.2008 298.752V303.812C89.2008 305.145 89.8541 305.812 91.1608 305.812ZM102.271 294.492C101.684 294.492 101.391 294.192 101.391 293.592C101.391 293.005 101.684 292.712 102.271 292.712C102.858 292.712 103.151 293.005 103.151 293.592C103.151 294.192 102.858 294.492 102.271 294.492ZM101.011 296.872C100.358 296.872 100.031 296.539 100.031 295.872C100.031 295.219 100.358 294.892 101.011 294.892C101.651 294.892 101.971 295.219 101.971 295.872C101.971 296.539 101.651 296.872 101.011 296.872ZM103.551 296.872C102.898 296.872 102.571 296.539 102.571 295.872C102.571 295.219 102.898 294.892 103.551 294.892C104.191 294.892 104.511 295.219 104.511 295.872C104.511 296.539 104.191 296.872 103.551 296.872ZM91.2711 307.432V305.812H93.0711C94.3644 305.812 95.0111 305.145 95.0111 303.812V301.012L96.7311 300.092V303.812C96.7311 305.145 97.3844 305.812 98.6911 305.812H99.6111C100.918 305.812 101.571 305.145 101.571 303.812V300.332L103.291 299.432V303.812C103.291 305.145 103.938 305.812 105.231 305.812H106.171C107.478 305.812 108.131 305.145 108.131 303.812V299.672L109.851 298.752V303.632C109.851 305.085 110.544 305.812 111.931 305.812H113.591V307.432H111.791C110.591 307.432 109.678 307.025 109.051 306.212C108.491 307.012 107.618 307.419 106.431 307.432H105.051C103.878 307.432 103.004 307.039 102.431 306.252C101.858 307.025 101.004 307.419 99.8711 307.432H98.4911C97.3444 307.432 96.4711 307.039 95.8711 306.252C95.2978 307.039 94.4244 307.432 93.2511 307.432H91.2711ZM113.924 296.332C113.271 296.332 112.944 295.999 112.944 295.332C112.944 294.679 113.271 294.352 113.924 294.352C114.564 294.352 114.884 294.679 114.884 295.332C114.884 295.999 114.564 296.332 113.924 296.332ZM116.464 296.332C115.811 296.332 115.484 295.999 115.484 295.332C115.484 294.679 115.811 294.352 116.464 294.352C117.104 294.352 117.424 294.679 117.424 295.332C117.424 295.999 117.104 296.332 116.464 296.332ZM112.384 307.432V305.812H113.704C115.011 305.812 115.664 305.145 115.664 303.812V299.672L117.384 298.752V303.872C117.384 305.005 117.044 305.899 116.364 306.552C115.738 307.139 114.918 307.432 113.904 307.432H112.384ZM125.896 306.792C125.389 306.992 124.769 307.092 124.036 307.092C122.849 307.092 121.916 306.645 121.236 305.752C120.662 304.992 120.376 304.039 120.376 302.892C120.376 301.479 120.756 300.372 121.516 299.572C122.196 298.852 123.089 298.492 124.196 298.492C125.329 298.492 126.202 298.845 126.816 299.552C127.362 300.179 127.636 300.999 127.636 302.012V306.372C127.636 307.879 127.242 309.072 126.456 309.952C125.709 310.779 124.716 311.192 123.476 311.192C122.649 311.192 121.869 310.999 121.136 310.612V309.092C121.842 309.465 122.542 309.652 123.236 309.652C124.022 309.652 124.649 309.399 125.116 308.892C125.582 308.399 125.842 307.699 125.896 306.792ZM125.896 302.092C125.896 300.759 125.329 300.092 124.196 300.092C123.529 300.092 123.002 300.339 122.616 300.832C122.242 301.325 122.056 301.999 122.056 302.852C122.056 303.692 122.236 304.365 122.596 304.872C122.969 305.365 123.469 305.612 124.096 305.612C124.976 305.612 125.576 305.365 125.896 304.872V302.092ZM153.571 296.132C152.918 296.132 152.591 295.799 152.591 295.132C152.591 294.479 152.918 294.152 153.571 294.152C154.211 294.152 154.531 294.479 154.531 295.132C154.531 295.799 154.211 296.132 153.571 296.132ZM156.111 296.132C155.458 296.132 155.131 295.799 155.131 295.132C155.131 294.479 155.458 294.152 156.111 294.152C156.751 294.152 157.071 294.479 157.071 295.132C157.071 295.799 156.751 296.132 156.111 296.132ZM159.831 305.812H161.151V307.432H159.631C158.258 307.432 157.271 306.925 156.671 305.912C156.031 306.525 155.238 306.832 154.291 306.832C153.118 306.832 152.185 306.392 151.491 305.512C150.918 304.765 150.631 303.852 150.631 302.772C150.631 301.479 151.025 300.439 151.811 299.652C152.478 298.972 153.291 298.632 154.251 298.632C154.985 298.632 155.618 298.819 156.151 299.192V298.332L157.891 297.412V303.812C157.891 305.145 158.538 305.812 159.831 305.812ZM156.151 301.052C155.658 300.505 155.051 300.232 154.331 300.232C153.745 300.232 153.265 300.472 152.891 300.952C152.518 301.419 152.331 302.032 152.331 302.792C152.331 303.565 152.518 304.185 152.891 304.652C153.265 305.119 153.751 305.352 154.351 305.352C155.098 305.352 155.711 305.045 156.191 304.432C156.165 304.192 156.151 304.005 156.151 303.872V301.052ZM163.899 298.972C163.912 298.972 163.932 298.972 163.959 298.972C163.985 298.972 164.005 298.972 164.019 298.972C165.525 298.972 166.745 299.439 167.679 300.372C168.532 301.212 168.959 302.285 168.959 303.592V303.932C168.959 305.079 168.605 305.972 167.899 306.612C167.272 307.159 166.465 307.432 165.479 307.432H159.959V305.812H165.319C166.599 305.812 167.239 305.139 167.239 303.792V303.612C167.239 302.625 166.852 301.865 166.079 301.332C165.465 300.919 164.719 300.712 163.839 300.712C163.132 300.712 162.419 300.839 161.699 301.092V299.392L166.079 294.532H167.839L163.899 298.972ZM176.868 305.812H178.188V307.432H176.668C175.988 307.432 175.401 307.299 174.908 307.032C174.788 308.352 174.328 309.405 173.528 310.192C172.795 310.912 171.875 311.272 170.768 311.272C169.968 311.272 169.188 311.072 168.428 310.672V309.172C169.108 309.545 169.788 309.732 170.468 309.732C171.321 309.732 171.988 309.445 172.468 308.872C172.948 308.299 173.188 307.505 173.188 306.492V299.672L174.908 298.752V298.772L174.928 298.752V304.212C175.048 305.279 175.695 305.812 176.868 305.812ZM190.03 305.812H191.33V307.432H190.01C188.93 307.432 188.063 307.312 187.41 307.072C186.757 306.819 186.15 306.379 185.59 305.752C183.91 306.872 181.95 307.432 179.71 307.432H176.99V305.812H179.73C182.437 305.812 184.577 304.919 186.15 303.132C185.043 301.092 183.697 300.072 182.11 300.072C181.03 300.072 179.917 300.645 178.77 301.792V300.192C179.89 299.059 181.077 298.492 182.33 298.492C183.357 298.492 184.35 298.865 185.31 299.612C186.27 300.345 187.117 301.399 187.85 302.772V303.652C187.437 304.172 187.043 304.592 186.67 304.912C187.39 305.512 188.51 305.812 190.03 305.812ZM190.134 307.432V305.812H191.194C192.581 305.812 193.274 305.085 193.274 303.632V295.452L195.014 294.532V303.652C195.014 304.839 194.661 305.779 193.954 306.472C193.288 307.112 192.414 307.432 191.334 307.432H190.134ZM198.609 307.432V295.452L200.329 294.532V307.432H198.609ZM228.638 301.852C230.158 299.612 232.045 298.492 234.298 298.492C235.805 298.492 237.011 299.019 237.918 300.072C238.691 300.965 239.078 302.065 239.078 303.372V304.012C239.078 305.105 238.811 305.952 238.278 306.552C237.745 307.139 236.985 307.432 235.998 307.432H223.318L224.178 305.812H226.858L226.918 305.592V295.452L228.638 294.532V301.852ZM237.338 303.932V303.372C237.338 302.332 237.018 301.505 236.378 300.892C235.831 300.359 235.145 300.092 234.318 300.092C232.945 300.092 231.705 300.712 230.598 301.952C229.771 302.885 229.118 304.052 228.638 305.452V305.812H235.858C236.431 305.812 236.818 305.679 237.018 305.412C237.231 305.145 237.338 304.652 237.338 303.932ZM247.177 305.812H248.497V307.432H246.977C246.297 307.432 245.71 307.299 245.217 307.032C245.097 308.352 244.637 309.405 243.837 310.192C243.103 310.912 242.183 311.272 241.077 311.272C240.277 311.272 239.497 311.072 238.737 310.672V309.172C239.417 309.545 240.097 309.732 240.777 309.732C241.63 309.732 242.297 309.445 242.777 308.872C243.257 308.299 243.497 307.505 243.497 306.492V299.672L245.217 298.752V298.772L245.237 298.752V304.212C245.357 305.279 246.003 305.812 247.177 305.812ZM253.818 296.452C253.165 296.452 252.838 296.119 252.838 295.452C252.838 294.799 253.165 294.472 253.818 294.472C254.458 294.472 254.778 294.799 254.778 295.452C254.778 296.119 254.458 296.452 253.818 296.452ZM247.298 307.432V305.812H250.898C250.285 305.132 249.978 304.185 249.978 302.972C249.978 301.519 250.358 300.385 251.118 299.572C251.785 298.852 252.672 298.492 253.778 298.492C254.912 298.492 255.792 298.845 256.418 299.552C256.952 300.179 257.218 300.999 257.218 302.012V303.912C257.205 305.019 256.878 305.892 256.238 306.532C255.612 307.132 254.778 307.432 253.738 307.432H247.298ZM255.498 302.092C255.498 300.759 254.925 300.092 253.778 300.092C253.125 300.092 252.612 300.345 252.238 300.852C251.865 301.345 251.678 302.039 251.678 302.932C251.678 303.812 251.858 304.512 252.218 305.032C252.578 305.552 253.058 305.812 253.658 305.812C254.885 305.812 255.498 305.172 255.498 303.892V302.092ZM284.753 307.432C283.673 307.432 282.827 307.072 282.213 306.352C281.68 305.725 281.413 304.905 281.413 303.892V301.472L283.133 300.552V303.732C283.133 305.119 283.78 305.812 285.073 305.812H291.713C293.007 305.812 293.653 305.119 293.653 303.732V299.672L295.373 298.752V303.892C295.373 305.052 295.02 305.952 294.313 306.592C293.687 307.152 292.88 307.432 291.893 307.432H284.753ZM288.053 311.412C287.4 311.412 287.073 311.079 287.073 310.412C287.073 309.759 287.4 309.432 288.053 309.432C288.693 309.432 289.013 309.759 289.013 310.412C289.013 311.079 288.693 311.412 288.053 311.412ZM298.972 307.432V295.452L300.692 294.532V307.432H298.972ZM310.493 305.812H311.813V307.432H310.293C309.613 307.432 309.026 307.299 308.533 307.032C308.413 308.352 307.953 309.405 307.153 310.192C306.42 310.912 305.5 311.272 304.393 311.272C303.593 311.272 302.813 311.072 302.053 310.672V309.172C302.733 309.545 303.413 309.732 304.093 309.732C304.946 309.732 305.613 309.445 306.093 308.872C306.573 308.299 306.813 307.505 306.813 306.492V299.672L308.533 298.752V298.772L308.553 298.752V304.212C308.673 305.279 309.32 305.812 310.493 305.812ZM328.495 305.812H329.815V307.432H328.295C327.228 307.432 326.395 307.119 325.795 306.492C325.248 307.119 324.475 307.432 323.475 307.432H310.615V305.812H314.335L314.395 305.592V295.452L316.115 294.532V301.852C317.635 299.612 319.522 298.492 321.775 298.492C323.282 298.492 324.488 299.019 325.395 300.072C326.168 300.965 326.555 302.065 326.555 303.372V303.852C326.555 305.159 327.202 305.812 328.495 305.812ZM324.815 303.932V303.372C324.815 302.332 324.495 301.505 323.855 300.892C323.308 300.359 322.622 300.092 321.795 300.092C320.422 300.092 319.182 300.712 318.075 301.952C317.248 302.885 316.595 304.052 316.115 305.452V305.812H323.335C323.908 305.812 324.295 305.679 324.495 305.412C324.708 305.145 324.815 304.652 324.815 303.932ZM342.703 296.332C342.049 296.332 341.723 295.999 341.723 295.332C341.723 294.679 342.049 294.352 342.703 294.352C343.343 294.352 343.663 294.679 343.663 295.332C343.663 295.999 343.343 296.332 342.703 296.332ZM334.923 305.752C335.456 303.739 336.336 302.059 337.563 300.712C338.936 299.232 340.536 298.492 342.363 298.492C343.883 298.492 345.096 299.019 346.003 300.072C346.763 300.965 347.143 302.065 347.143 303.372V303.892C347.143 305.052 346.789 305.952 346.083 306.592C345.469 307.152 344.663 307.432 343.663 307.432H335.383C334.276 307.432 333.403 307.079 332.763 306.372C332.123 307.079 331.249 307.432 330.143 307.432H328.623V305.812H329.943C331.249 305.812 331.903 305.145 331.903 303.812V301.012L333.623 300.092V303.812C333.623 304.932 334.056 305.579 334.923 305.752ZM345.423 303.732V303.372C345.423 302.332 345.103 301.505 344.463 300.892C343.903 300.359 343.209 300.092 342.383 300.092C340.969 300.092 339.696 300.745 338.563 302.052C337.696 303.052 337.029 304.305 336.563 305.812H343.563C344.803 305.812 345.423 305.119 345.423 303.732ZM353.819 307.432C352.659 307.432 351.766 307.059 351.139 306.312C350.606 305.672 350.339 304.859 350.339 303.872V295.452L352.059 294.532V303.812C352.059 305.145 352.712 305.812 354.019 305.812H355.339V307.432H353.819ZM350.059 312.412L350.519 311.552H351.059C350.926 311.312 350.859 311.059 350.859 310.792C350.859 310.405 351.006 310.065 351.299 309.772C351.592 309.492 351.939 309.352 352.339 309.352C352.672 309.352 352.992 309.459 353.299 309.672V310.552C353.006 310.325 352.726 310.212 352.459 310.212C351.966 310.212 351.719 310.432 351.719 310.872C351.719 311.099 351.812 311.325 351.999 311.552H353.819L353.359 312.412H350.059ZM354.13 307.432V305.812H357.65V307.432H354.13ZM356.455 307.432V305.812H357.775C359.081 305.812 359.735 305.145 359.735 303.812V299.672L361.455 298.752V303.872C361.455 305.005 361.115 305.899 360.435 306.552C359.808 307.139 358.988 307.432 357.975 307.432H356.455ZM359.675 311.412C359.021 311.412 358.695 311.079 358.695 310.412C358.695 309.759 359.021 309.432 359.675 309.432C360.315 309.432 360.635 309.759 360.635 310.412C360.635 311.079 360.315 311.412 359.675 311.412ZM78.7939 331.172C78.7939 332.759 78.2406 334.025 77.1339 334.972C76.1606 335.812 74.9206 336.232 73.4139 336.232C71.6272 336.232 70.2472 335.632 69.2739 334.432C68.5272 333.499 68.1539 332.385 68.1539 331.092C68.1539 329.959 68.4272 328.992 68.9739 328.192L70.6939 327.812C70.0806 328.759 69.7739 329.792 69.7739 330.912C69.7739 332.019 70.1272 332.925 70.8339 333.632C71.4872 334.285 72.3472 334.612 73.4139 334.612C74.6272 334.612 75.5606 334.252 76.2139 333.532C76.7739 332.919 77.0539 332.132 77.0539 331.172V320.452L78.7939 319.532V331.172ZM93.5016 330.812H94.8216V332.432H93.3016C92.1549 332.432 91.2682 332.065 90.6416 331.332C89.9749 332.065 89.0549 332.432 87.8816 332.432H81.0016L81.8416 330.812H84.7616V323.052L86.4816 322.132V330.812H87.7416C89.1282 330.812 89.8216 330.085 89.8216 328.632V320.452L91.5616 319.532V328.652C91.5616 329.425 91.7082 329.979 92.0016 330.312C92.3082 330.645 92.8082 330.812 93.5016 330.812ZM99.6748 321.332C99.0215 321.332 98.6948 320.999 98.6948 320.332C98.6948 319.679 99.0215 319.352 99.6748 319.352C100.315 319.352 100.635 319.679 100.635 320.332C100.635 320.999 100.315 321.332 99.6748 321.332ZM93.6148 332.432V330.812H96.3548C99.0615 330.812 101.202 329.919 102.775 328.132C101.668 326.092 100.322 325.072 98.7348 325.072C97.6548 325.072 96.5415 325.645 95.3948 326.792V325.192C96.5148 324.059 97.7015 323.492 98.9548 323.492C99.9815 323.492 100.975 323.865 101.935 324.612C102.895 325.345 103.742 326.399 104.475 327.772V328.652C102.515 331.172 99.8015 332.432 96.3348 332.432H93.6148ZM127.8 323.412C127.147 323.412 126.82 323.079 126.82 322.412C126.82 321.759 127.147 321.432 127.8 321.432C128.44 321.432 128.76 321.759 128.76 322.412C128.76 323.079 128.44 323.412 127.8 323.412ZM135.1 330.812H136.42V332.432H134.9C134.207 332.432 133.607 332.292 133.1 332.012C132.94 333.372 132.347 334.432 131.32 335.192C130.4 335.885 129.26 336.232 127.9 336.232C126.167 336.232 124.82 335.619 123.86 334.392C123.127 333.445 122.76 332.325 122.76 331.032C122.76 329.912 123.04 328.952 123.6 328.152L125.26 327.792C124.66 328.739 124.36 329.759 124.36 330.852C124.36 331.972 124.707 332.892 125.4 333.612C126.054 334.279 126.887 334.612 127.9 334.612C129.074 334.612 129.98 334.272 130.62 333.592C131.154 333.019 131.42 332.272 131.42 331.352V324.672L133.14 323.752V328.812C133.14 330.145 133.794 330.812 135.1 330.812ZM138.493 327.012C138.493 325.852 138.84 324.952 139.533 324.312C140.147 323.765 140.947 323.492 141.933 323.492C143.2 323.492 144.173 323.959 144.853 324.892C145.44 325.679 145.733 326.705 145.733 327.972C145.733 329.412 145.36 330.539 144.613 331.352C143.96 332.072 143.107 332.432 142.053 332.432C140.853 332.432 139.94 332.099 139.313 331.432C138.673 332.099 137.813 332.432 136.733 332.432H135.213V330.812H136.533C137.84 330.812 138.493 330.145 138.493 328.812V327.012ZM140.213 328.952C140.213 330.192 140.82 330.812 142.033 330.812C142.66 330.812 143.147 330.559 143.493 330.052C143.853 329.545 144.033 328.839 144.033 327.932C144.033 327.039 143.847 326.345 143.473 325.852C143.1 325.345 142.587 325.092 141.933 325.092C140.787 325.092 140.213 325.759 140.213 327.092V328.952ZM180.815 330.812H182.135V332.432H180.615C179.495 332.432 178.629 332.085 178.015 331.392C177.362 332.085 176.489 332.432 175.395 332.432H168.255C167.175 332.432 166.329 332.072 165.715 331.352C165.182 330.725 164.915 329.905 164.915 328.892V326.472L166.635 325.552V328.732C166.635 330.119 167.282 330.812 168.575 330.812H175.215C176.495 330.812 177.135 330.119 177.135 328.732V320.452L178.875 319.532V328.812C178.875 330.145 179.522 330.812 180.815 330.812ZM171.995 322.692C173.142 322.745 173.715 323.312 173.715 324.392C173.715 324.859 173.575 325.232 173.295 325.512C173.029 325.792 172.669 325.932 172.215 325.932H169.575L170.035 325.072H172.135C172.615 325.072 172.855 324.832 172.855 324.352C172.855 323.765 172.482 323.472 171.735 323.472C171.349 323.472 170.995 323.565 170.675 323.752V322.952L172.355 321.092H173.415L171.995 322.692ZM180.933 332.432V330.812H181.993C183.38 330.812 184.073 330.085 184.073 328.632V320.452L185.813 319.532V328.652C185.813 329.839 185.46 330.779 184.753 331.472C184.087 332.112 183.213 332.432 182.133 332.432H180.933ZM192.147 321.332C191.494 321.332 191.167 320.999 191.167 320.332C191.167 319.679 191.494 319.352 192.147 319.352C192.787 319.352 193.107 319.679 193.107 320.332C193.107 320.999 192.787 321.332 192.147 321.332ZM187.807 332.432L188.647 330.812H192.207C192.741 330.812 193.114 330.679 193.327 330.412C193.554 330.145 193.667 329.685 193.667 329.032C193.667 327.245 192.861 325.892 191.247 324.972L192.087 323.552C194.287 324.805 195.387 326.639 195.387 329.052C195.387 331.305 194.427 332.432 192.507 332.432H187.807ZM203.507 331.792C203 331.992 202.38 332.092 201.647 332.092C200.46 332.092 199.527 331.645 198.847 330.752C198.274 329.992 197.987 329.039 197.987 327.892C197.987 326.479 198.367 325.372 199.127 324.572C199.807 323.852 200.7 323.492 201.807 323.492C202.94 323.492 203.814 323.845 204.427 324.552C204.974 325.179 205.247 325.999 205.247 327.012V331.372C205.247 332.879 204.854 334.072 204.067 334.952C203.32 335.779 202.327 336.192 201.087 336.192C200.26 336.192 199.48 335.999 198.747 335.612V334.092C199.454 334.465 200.154 334.652 200.847 334.652C201.634 334.652 202.26 334.399 202.727 333.892C203.194 333.399 203.454 332.699 203.507 331.792ZM203.507 327.092C203.507 325.759 202.94 325.092 201.807 325.092C201.14 325.092 200.614 325.339 200.227 325.832C199.854 326.325 199.667 326.999 199.667 327.852C199.667 328.692 199.847 329.365 200.207 329.872C200.58 330.365 201.08 330.612 201.707 330.612C202.587 330.612 203.187 330.365 203.507 329.872V327.092ZM225.382 330.092C226.115 330.092 226.495 330.472 226.522 331.232C226.522 331.605 226.402 331.919 226.162 332.172C225.935 332.412 225.635 332.532 225.262 332.532C224.435 332.532 224.022 332.025 224.022 331.012V328.432L224.862 328.192L224.882 330.092H225.382ZM232.304 319.532H233.844C232.057 321.959 231.164 324.552 231.164 327.312C231.164 328.699 231.417 330.139 231.924 331.632C232.431 333.125 233.071 334.325 233.844 335.232H232.304C231.517 334.485 230.844 333.339 230.284 331.792C229.724 330.245 229.444 328.752 229.444 327.312C229.444 325.925 229.711 324.499 230.244 323.032C230.791 321.565 231.477 320.399 232.304 319.532ZM239.867 319.772H241.627L246.207 332.432H244.307L243.347 329.572H238.167L237.187 332.432H235.287L239.867 319.772ZM240.747 322.012L238.687 328.032H242.807L240.747 322.012ZM248.311 319.792C249.311 319.619 250.371 319.532 251.491 319.532C253.691 319.532 255.377 320.192 256.551 321.512C257.551 322.632 258.051 324.119 258.051 325.972C258.051 328.225 257.424 329.939 256.171 331.112C255.064 332.152 253.544 332.672 251.611 332.672C250.411 332.672 249.311 332.585 248.311 332.412V319.792ZM250.171 331.052C250.597 331.145 251.077 331.192 251.611 331.192C253.117 331.192 254.257 330.712 255.031 329.752C255.737 328.872 256.091 327.639 256.091 326.052C256.091 324.345 255.597 323.039 254.611 322.132C253.811 321.385 252.791 321.012 251.551 321.012C251.004 321.012 250.544 321.059 250.171 321.152V331.052ZM262.69 332.432H260.85V319.772H262.69V325.092H268.79V319.772H270.65V332.432H268.79V326.632H262.69V332.432ZM274.248 319.792C275.248 319.619 276.308 319.532 277.428 319.532C279.628 319.532 281.315 320.192 282.488 321.512C283.488 322.632 283.988 324.119 283.988 325.972C283.988 328.225 283.362 329.939 282.108 331.112C281.002 332.152 279.482 332.672 277.548 332.672C276.348 332.672 275.248 332.585 274.248 332.412V319.792ZM276.108 331.052C276.535 331.145 277.015 331.192 277.548 331.192C279.055 331.192 280.195 330.712 280.968 329.752C281.675 328.872 282.028 327.639 282.028 326.052C282.028 324.345 281.535 323.039 280.548 322.132C279.748 321.385 278.728 321.012 277.488 321.012C276.942 321.012 276.482 321.059 276.108 321.152V331.052ZM286.127 319.532H287.667C288.494 320.399 289.174 321.565 289.707 323.032C290.254 324.499 290.527 325.925 290.527 327.312C290.527 329.259 290.094 331.119 289.227 332.892C288.707 333.972 288.187 334.752 287.667 335.232H286.127C286.901 334.325 287.541 333.125 288.047 331.632C288.554 330.139 288.807 328.699 288.807 327.312C288.807 324.552 287.914 321.959 286.127 319.532ZM313.347 332.432C312.133 332.432 311.187 332.025 310.507 331.212C309.92 330.505 309.627 329.605 309.627 328.512C309.627 327.325 309.953 326.299 310.607 325.432C311.273 324.552 312.22 323.905 313.447 323.492C314.74 323.932 315.713 324.625 316.367 325.572C316.953 326.412 317.247 327.392 317.247 328.512C317.247 329.779 316.873 330.772 316.127 331.492C315.46 332.119 314.6 332.432 313.547 332.432H313.347ZM313.287 330.812H313.587C314.187 330.812 314.66 330.605 315.007 330.192C315.367 329.779 315.547 329.225 315.547 328.532C315.547 326.932 314.847 325.785 313.447 325.092C312.047 325.785 311.347 326.925 311.347 328.512C311.347 329.219 311.52 329.779 311.867 330.192C312.213 330.605 312.687 330.812 313.287 330.812ZM323.936 332.432C322.776 332.432 321.883 332.059 321.256 331.312C320.723 330.672 320.456 329.859 320.456 328.872V320.452L322.176 319.532V328.812C322.176 330.145 322.83 330.812 324.136 330.812H325.456V332.432H323.936ZM331.208 330.812H332.528V332.432H331.008C329.901 332.432 329.028 332.079 328.388 331.372C327.748 332.079 326.874 332.432 325.768 332.432H324.248V330.812H325.568C326.874 330.812 327.528 330.145 327.528 328.812V324.672L329.248 323.752V328.812C329.248 330.145 329.901 330.812 331.208 330.812ZM328.268 334.432C328.908 334.432 329.228 334.759 329.228 335.412C329.228 336.079 328.908 336.412 328.268 336.412C327.614 336.412 327.288 336.079 327.288 335.412C327.288 334.759 327.614 334.432 328.268 334.432ZM333.558 321.472C332.905 321.472 332.578 321.139 332.578 320.472C332.578 319.819 332.905 319.492 333.558 319.492C334.198 319.492 334.518 319.819 334.518 320.472C334.518 321.139 334.198 321.472 333.558 321.472ZM336.118 321.472C335.465 321.472 335.138 321.139 335.138 320.472C335.138 319.819 335.465 319.492 336.118 319.492C336.758 319.492 337.078 319.819 337.078 320.472C337.078 321.139 336.758 321.472 336.118 321.472ZM338.278 330.812H339.598V332.432H338.078C336.971 332.432 336.098 332.079 335.458 331.372C334.818 332.079 333.945 332.432 332.838 332.432H331.318V330.812H332.638C333.945 330.812 334.598 330.145 334.598 328.812V324.672L336.318 323.752V328.812C336.318 330.145 336.971 330.812 338.278 330.812ZM342.468 321.332C341.815 321.332 341.488 320.999 341.488 320.332C341.488 319.679 341.815 319.352 342.468 319.352C343.108 319.352 343.428 319.679 343.428 320.332C343.428 320.999 343.108 321.332 342.468 321.332ZM338.388 332.432V330.812H339.708C341.015 330.812 341.668 330.145 341.668 328.812V324.672L343.388 323.752V328.872C343.388 330.005 343.048 330.899 342.368 331.552C341.742 332.139 340.922 332.432 339.908 332.432H338.388ZM354.4 320.452L356.14 319.532V328.652C356.14 329.839 355.786 330.779 355.08 331.472C354.413 332.112 353.54 332.432 352.46 332.432H345.58L346.42 330.812H349.34V323.052L351.06 322.132V330.812H352.32C353.706 330.812 354.4 330.085 354.4 328.632V320.452ZM359.734 332.432V320.452L361.454 319.532V332.432H359.734ZM72.4739 351.852C73.9939 349.612 75.8806 348.492 78.1339 348.492C79.6406 348.492 80.8472 349.019 81.7539 350.072C82.5272 350.965 82.9139 352.065 82.9139 353.372V354.012C82.9139 355.105 82.6472 355.952 82.1139 356.552C81.5806 357.139 80.8206 357.432 79.8339 357.432H67.1539L68.0139 355.812H70.6939L70.7539 355.592V345.452L72.4739 344.532V351.852ZM81.1739 353.932V353.372C81.1739 352.332 80.8539 351.505 80.2139 350.892C79.6672 350.359 78.9806 350.092 78.1539 350.092C76.7806 350.092 75.5406 350.712 74.4339 351.952C73.6072 352.885 72.9539 354.052 72.4739 355.452V355.812H79.6939C80.2672 355.812 80.6539 355.679 80.8539 355.412C81.0672 355.145 81.1739 354.652 81.1739 353.932ZM89.5925 357.432C88.4325 357.432 87.5392 357.059 86.9125 356.312C86.3792 355.672 86.1125 354.859 86.1125 353.872V345.452L87.8325 344.532V353.812C87.8325 355.145 88.4858 355.812 89.7925 355.812H91.1125V357.432H89.5925ZM102.784 355.812H104.124V357.432H102.604C101.497 357.432 100.624 357.079 99.9839 356.372C99.3039 357.345 98.3106 357.832 97.0039 357.832C95.6972 357.832 94.7106 357.352 94.0439 356.392C93.4172 357.085 92.5439 357.432 91.4239 357.432H89.9039V355.812H91.2239C92.5306 355.812 93.1839 355.145 93.1839 353.812V353.152C93.1839 351.605 93.5639 350.419 94.3239 349.592C94.9906 348.859 95.8839 348.492 97.0039 348.492C98.2839 348.492 99.2706 348.965 99.9639 349.912C100.551 350.725 100.844 351.805 100.844 353.152V353.812C100.844 355.145 101.491 355.812 102.784 355.812ZM97.0039 356.212C97.6572 356.212 98.1706 355.939 98.5439 355.392C98.9306 354.845 99.1239 354.092 99.1239 353.132C99.1239 351.105 98.4172 350.092 97.0039 350.092C95.6039 350.092 94.9039 351.105 94.9039 353.132C94.9039 355.185 95.6039 356.212 97.0039 356.212ZM107.011 346.332C106.358 346.332 106.031 345.999 106.031 345.332C106.031 344.679 106.358 344.352 107.011 344.352C107.651 344.352 107.971 344.679 107.971 345.332C107.971 345.999 107.651 346.332 107.011 346.332ZM102.931 357.432V355.812H104.251C105.558 355.812 106.211 355.145 106.211 353.812V349.672L107.931 348.752V353.872C107.931 355.005 107.591 355.899 106.911 356.552C106.285 357.139 105.465 357.432 104.451 357.432H102.931ZM110.463 344.252L110.923 343.392H111.463C111.329 343.152 111.263 342.905 111.263 342.652C111.263 342.252 111.409 341.912 111.703 341.632C111.996 341.339 112.343 341.192 112.743 341.192C113.076 341.192 113.396 341.299 113.703 341.512V342.392C113.409 342.165 113.129 342.052 112.863 342.052C112.369 342.052 112.123 342.272 112.123 342.712C112.123 342.939 112.216 343.165 112.403 343.392H114.223L113.763 344.252H110.463ZM111.523 357.432V346.252L113.243 345.332V357.432H111.523ZM133.446 355.812H134.786V357.432H133.266C132.186 357.432 131.326 357.099 130.686 356.432C130.059 357.072 129.172 357.405 128.026 357.432H125.406C124.099 357.432 123.446 358.099 123.446 359.432V362.812L121.726 363.732V359.372C121.726 358.265 122.046 357.392 122.686 356.752C123.259 356.165 124.019 355.852 124.966 355.812C124.486 355.039 124.246 354.092 124.246 352.972C124.246 351.519 124.626 350.385 125.386 349.572C126.066 348.852 126.959 348.492 128.066 348.492C129.199 348.492 130.072 348.845 130.686 349.552C131.232 350.179 131.506 350.999 131.506 352.012V353.812C131.506 355.145 132.152 355.812 133.446 355.812ZM129.786 353.952V352.092C129.786 350.759 129.212 350.092 128.066 350.092C127.399 350.092 126.879 350.345 126.506 350.852C126.146 351.345 125.966 352.039 125.966 352.932C125.966 353.839 126.139 354.545 126.486 355.052C126.832 355.559 127.319 355.812 127.946 355.812C129.172 355.812 129.786 355.192 129.786 353.952ZM133.577 357.432V355.812H135.377C136.671 355.812 137.317 355.145 137.317 353.812V351.012L139.037 350.092V353.812C139.037 355.145 139.691 355.812 140.997 355.812H141.917C143.224 355.812 143.877 355.145 143.877 353.812V350.332L145.597 349.432V353.812C145.597 355.145 146.244 355.812 147.537 355.812H148.477C149.784 355.812 150.437 355.145 150.437 353.812V349.672L152.157 348.752V353.872C152.157 355.005 151.817 355.892 151.137 356.532C150.537 357.119 149.737 357.419 148.737 357.432H147.357C146.184 357.432 145.311 357.039 144.737 356.252C144.164 357.025 143.311 357.419 142.177 357.432H140.797C139.651 357.432 138.777 357.039 138.177 356.252C137.604 357.039 136.731 357.432 135.557 357.432H133.577ZM158.723 356.372C158.723 357.865 158.329 359.065 157.543 359.972C156.796 360.839 155.803 361.272 154.563 361.272C153.763 361.272 152.983 361.072 152.223 360.672V359.172C152.903 359.545 153.583 359.732 154.263 359.732C155.116 359.732 155.783 359.445 156.263 358.872C156.743 358.299 156.983 357.505 156.983 356.492V349.672L158.723 348.752V356.372ZM170.356 346.132C169.702 346.132 169.376 345.799 169.376 345.132C169.376 344.479 169.702 344.152 170.356 344.152C170.996 344.152 171.316 344.479 171.316 345.132C171.316 345.799 170.996 346.132 170.356 346.132ZM172.896 346.132C172.242 346.132 171.916 345.799 171.916 345.132C171.916 344.479 172.242 344.152 172.896 344.152C173.536 344.152 173.856 344.479 173.856 345.132C173.856 345.799 173.536 346.132 172.896 346.132ZM176.616 355.812H177.936V357.432H176.416C175.042 357.432 174.056 356.925 173.456 355.912C172.816 356.525 172.022 356.832 171.076 356.832C169.902 356.832 168.969 356.392 168.276 355.512C167.702 354.765 167.416 353.852 167.416 352.772C167.416 351.479 167.809 350.439 168.596 349.652C169.262 348.972 170.076 348.632 171.036 348.632C171.769 348.632 172.402 348.819 172.936 349.192V348.332L174.676 347.412V353.812C174.676 355.145 175.322 355.812 176.616 355.812ZM172.936 351.052C172.442 350.505 171.836 350.232 171.116 350.232C170.529 350.232 170.049 350.472 169.676 350.952C169.302 351.419 169.116 352.032 169.116 352.792C169.116 353.565 169.302 354.185 169.676 354.652C170.049 355.119 170.536 355.352 171.136 355.352C171.882 355.352 172.496 355.045 172.976 354.432C172.949 354.192 172.936 354.005 172.936 353.872V351.052ZM194.623 355.812H195.943V357.432H194.423C193.356 357.432 192.523 357.119 191.923 356.492C191.376 357.119 190.603 357.432 189.603 357.432H176.743V355.812H180.463L180.523 355.592V345.452L182.243 344.532V351.852C183.763 349.612 185.65 348.492 187.903 348.492C189.41 348.492 190.616 349.019 191.523 350.072C192.296 350.965 192.683 352.065 192.683 353.372V353.852C192.683 355.159 193.33 355.812 194.623 355.812ZM190.943 353.932V353.372C190.943 352.332 190.623 351.505 189.983 350.892C189.436 350.359 188.75 350.092 187.923 350.092C186.55 350.092 185.31 350.712 184.203 351.952C183.376 352.885 182.723 354.052 182.243 355.452V355.812H189.463C190.036 355.812 190.423 355.679 190.623 355.412C190.836 355.145 190.943 354.652 190.943 353.932ZM194.751 357.432V355.812H196.551C197.844 355.812 198.491 355.145 198.491 353.812V351.012L200.211 350.092V353.812C200.211 355.145 200.864 355.812 202.171 355.812H203.091C204.397 355.812 205.051 355.145 205.051 353.812V350.332L206.771 349.432V353.812C206.771 355.145 207.417 355.812 208.711 355.812H209.651C210.957 355.812 211.611 355.145 211.611 353.812V349.672L213.331 348.752V353.872C213.331 355.005 212.991 355.892 212.311 356.532C211.711 357.119 210.911 357.419 209.911 357.432H208.531C207.357 357.432 206.484 357.039 205.911 356.252C205.337 357.025 204.484 357.419 203.351 357.432H201.971C200.824 357.432 199.951 357.039 199.351 356.252C198.777 357.039 197.904 357.432 196.731 357.432H194.751ZM216.936 357.432V345.452L218.656 344.532V357.432H216.936ZM231.588 355.812V357.432H229.108C229.055 358.579 228.562 359.525 227.628 360.272C226.842 360.885 225.948 361.192 224.948 361.192C224.122 361.192 223.342 360.999 222.608 360.612V359.092C223.315 359.465 224.015 359.652 224.708 359.652C225.415 359.652 226.028 359.432 226.548 358.992C227.082 358.552 227.355 358.025 227.368 357.412C226.675 357.385 226.162 357.359 225.828 357.332C224.388 357.252 223.302 356.765 222.568 355.872C221.955 355.125 221.648 354.159 221.648 352.972C221.648 351.519 222.035 350.385 222.808 349.572C223.502 348.852 224.415 348.492 225.548 348.492C226.735 348.492 227.648 348.845 228.288 349.552C228.835 350.179 229.108 350.999 229.108 352.012V355.812H231.588ZM227.368 352.132C227.368 350.772 226.762 350.092 225.548 350.092C224.855 350.092 224.315 350.345 223.928 350.852C223.542 351.345 223.348 352.039 223.348 352.932C223.348 354.679 224.202 355.605 225.908 355.712C226.228 355.752 226.715 355.785 227.368 355.812V352.132ZM230.395 357.432V355.812H231.715C233.022 355.812 233.675 355.145 233.675 353.812V349.672L235.395 348.752V353.872C235.395 355.005 235.055 355.899 234.375 356.552C233.749 357.139 232.929 357.432 231.915 357.432H230.395ZM233.615 361.412C232.962 361.412 232.635 361.079 232.635 360.412C232.635 359.759 232.962 359.432 233.615 359.432C234.255 359.432 234.575 359.759 234.575 360.412C234.575 361.079 234.255 361.412 233.615 361.412ZM243.677 357.432L244.517 355.812H248.077C248.611 355.812 248.984 355.679 249.197 355.412C249.424 355.145 249.537 354.685 249.537 354.032C249.537 352.259 248.717 350.925 247.077 350.032L247.957 348.552C250.051 349.779 251.144 351.472 251.237 353.632C251.264 354.405 251.437 354.965 251.757 355.312C252.091 355.645 252.617 355.812 253.337 355.812H254.517V357.432H253.197C252.091 357.432 251.224 357.079 250.597 356.372C250.157 357.079 249.417 357.432 248.377 357.432H243.677ZM260.287 355.812H261.607V357.432H260.087C258.98 357.432 258.107 357.079 257.467 356.372C256.827 357.079 255.953 357.432 254.847 357.432H253.327V355.812H254.647C255.953 355.812 256.607 355.145 256.607 353.812V349.672L258.327 348.752V353.812C258.327 355.145 258.98 355.812 260.287 355.812ZM255.507 359.432C256.147 359.432 256.467 359.765 256.467 360.432C256.467 361.085 256.147 361.412 255.507 361.412C254.853 361.412 254.527 361.085 254.527 360.432C254.527 359.765 254.853 359.432 255.507 359.432ZM258.047 359.432C258.687 359.432 259.007 359.765 259.007 360.432C259.007 361.085 258.687 361.412 258.047 361.412C257.393 361.412 257.067 361.085 257.067 360.432C257.067 359.765 257.393 359.432 258.047 359.432ZM260.397 357.432V355.812H261.457C262.844 355.812 263.537 355.085 263.537 353.632V345.452L265.277 344.532V353.652C265.277 354.839 264.924 355.779 264.217 356.472C263.55 357.112 262.677 357.432 261.597 357.432H260.397ZM268.871 357.432V345.452L270.591 344.532V357.432H268.871ZM296.774 355.812H298.094V357.432H296.574C295.508 357.432 294.674 357.119 294.074 356.492C293.528 357.119 292.754 357.432 291.754 357.432H279.074L279.934 355.812H282.614L282.674 355.592V345.452L284.394 344.532V351.852C285.914 349.612 287.801 348.492 290.054 348.492C291.561 348.492 292.768 349.019 293.674 350.072C294.448 350.965 294.834 352.065 294.834 353.372V353.852C294.834 355.159 295.481 355.812 296.774 355.812ZM293.094 353.932V353.372C293.094 352.332 292.774 351.505 292.134 350.892C291.588 350.359 290.901 350.092 290.074 350.092C288.701 350.092 287.461 350.712 286.354 351.952C285.528 352.885 284.874 354.052 284.394 355.452V355.812H291.614C292.188 355.812 292.574 355.679 292.774 355.412C292.988 355.145 293.094 354.652 293.094 353.932ZM302.962 346.332C302.309 346.332 301.982 345.999 301.982 345.332C301.982 344.679 302.309 344.352 302.962 344.352C303.602 344.352 303.922 344.679 303.922 345.332C303.922 345.999 303.602 346.332 302.962 346.332ZM296.902 357.432V355.812H299.642C302.349 355.812 304.489 354.919 306.062 353.132C304.956 351.092 303.609 350.072 302.022 350.072C300.942 350.072 299.829 350.645 298.682 351.792V350.192C299.802 349.059 300.989 348.492 302.242 348.492C303.269 348.492 304.262 348.865 305.222 349.612C306.182 350.345 307.029 351.399 307.762 352.772V353.652C305.802 356.172 303.089 357.432 299.622 357.432H296.902ZM329.183 355.812H330.503V357.432H328.983C328.263 357.432 327.616 357.272 327.043 356.952C326.856 358.325 326.236 359.405 325.183 360.192C324.249 360.885 323.096 361.232 321.723 361.232C319.936 361.232 318.556 360.632 317.583 359.432C316.836 358.499 316.463 357.385 316.463 356.092C316.463 354.959 316.736 353.992 317.283 353.192L319.003 352.812C318.389 353.759 318.083 354.792 318.083 355.912C318.083 357.019 318.436 357.925 319.143 358.632C319.796 359.285 320.656 359.612 321.723 359.612C322.936 359.612 323.869 359.252 324.523 358.532C325.083 357.919 325.363 357.132 325.363 356.172V345.452L327.103 344.532V353.812C327.103 355.145 327.796 355.812 329.183 355.812ZM336.266 355.812H337.586V357.432H336.066C334.96 357.432 334.086 357.079 333.446 356.372C332.806 357.079 331.933 357.432 330.826 357.432H329.306V355.812H330.626C331.933 355.812 332.586 355.145 332.586 353.812V349.672L334.306 348.752V353.812C334.306 355.145 334.96 355.812 336.266 355.812ZM331.486 359.432C332.126 359.432 332.446 359.765 332.446 360.432C332.446 361.085 332.126 361.412 331.486 361.412C330.833 361.412 330.506 361.085 330.506 360.432C330.506 359.765 330.833 359.432 331.486 359.432ZM334.026 359.432C334.666 359.432 334.986 359.765 334.986 360.432C334.986 361.085 334.666 361.412 334.026 361.412C333.373 361.412 333.046 361.085 333.046 360.432C333.046 359.765 333.373 359.432 334.026 359.432ZM343.197 355.812H344.517V357.432H342.997C341.85 357.432 340.963 357.065 340.337 356.332C339.67 357.065 338.75 357.432 337.577 357.432H336.377V355.812H337.437C338.823 355.812 339.517 355.085 339.517 353.632V345.452L341.257 344.532V353.652C341.257 354.425 341.403 354.979 341.697 355.312C342.003 355.645 342.503 355.812 343.197 355.812ZM356.35 355.812H357.65V357.432H356.33C355.25 357.432 354.383 357.312 353.73 357.072C353.077 356.819 352.47 356.379 351.91 355.752C350.23 356.872 348.27 357.432 346.03 357.432H343.31V355.812H346.05C348.757 355.812 350.897 354.919 352.47 353.132C351.363 351.092 350.017 350.072 348.43 350.072C347.35 350.072 346.237 350.645 345.09 351.792V350.192C346.21 349.059 347.397 348.492 348.65 348.492C349.677 348.492 350.67 348.865 351.63 349.612C352.59 350.345 353.437 351.399 354.17 352.772V353.652C353.757 354.172 353.363 354.592 352.99 354.912C353.71 355.512 354.83 355.812 356.35 355.812ZM357.995 346.332C357.341 346.332 357.015 345.999 357.015 345.332C357.015 344.679 357.341 344.352 357.995 344.352C358.635 344.352 358.955 344.679 358.955 345.332C358.955 345.999 358.635 346.332 357.995 346.332ZM360.535 346.332C359.881 346.332 359.555 345.999 359.555 345.332C359.555 344.679 359.881 344.352 360.535 344.352C361.175 344.352 361.495 344.679 361.495 345.332C361.495 345.999 361.175 346.332 360.535 346.332ZM356.455 357.432V355.812H357.775C359.081 355.812 359.735 355.145 359.735 353.812V349.672L361.455 348.752V353.872C361.455 355.005 361.115 355.899 360.435 356.552C359.808 357.139 358.988 357.432 357.975 357.432H356.455ZM67.4539 383.592V381.932C67.9339 381.572 68.5939 381.312 69.4339 381.152C68.8339 380.245 68.5339 379.285 68.5339 378.272C68.5339 377.005 68.9006 375.985 69.6339 375.212C70.3006 374.492 71.1672 374.132 72.2339 374.132C73.3939 374.132 74.3539 374.599 75.1139 375.532V377.192C74.2606 376.205 73.3272 375.712 72.3139 375.712C71.6872 375.712 71.1872 375.939 70.8139 376.392C70.4406 376.832 70.2539 377.432 70.2539 378.192C70.2539 379.285 70.6339 380.192 71.3939 380.912C71.7406 380.885 71.9872 380.872 72.1339 380.872C73.8406 380.819 75.1939 380.425 76.1939 379.692V381.292C75.0606 382.052 73.5806 382.432 71.7539 382.432C69.9672 382.432 68.5339 382.819 67.4539 383.592ZM82.4831 382.432C81.3231 382.432 80.4298 382.059 79.8031 381.312C79.2698 380.672 79.0031 379.859 79.0031 378.872V370.452L80.7231 369.532V378.812C80.7231 380.145 81.3765 380.812 82.6831 380.812H84.0031V382.432H82.4831ZM86.7345 373.972C86.7479 373.972 86.7679 373.972 86.7945 373.972C86.8212 373.972 86.8412 373.972 86.8545 373.972C88.3612 373.972 89.5812 374.439 90.5145 375.372C91.3679 376.212 91.7945 377.285 91.7945 378.592V378.932C91.7945 380.079 91.4412 380.972 90.7345 381.612C90.1079 382.159 89.3012 382.432 88.3145 382.432H82.7945V380.812H88.1545C89.4345 380.812 90.0745 380.139 90.0745 378.792V378.612C90.0745 377.625 89.6879 376.865 88.9145 376.332C88.3012 375.919 87.5545 375.712 86.6745 375.712C85.9679 375.712 85.2545 375.839 84.5345 376.092V374.392L88.9145 369.532H90.6745L86.7345 373.972ZM97.5439 371.332C96.8906 371.332 96.5639 370.999 96.5639 370.332C96.5639 369.679 96.8906 369.352 97.5439 369.352C98.1839 369.352 98.5039 369.679 98.5039 370.332C98.5039 370.999 98.1839 371.332 97.5439 371.332ZM93.2039 382.432L94.0439 380.812H97.6039C98.1372 380.812 98.5106 380.679 98.7239 380.412C98.9506 380.145 99.0639 379.685 99.0639 379.032C99.0639 377.259 98.2439 375.925 96.6039 375.032L97.4839 373.552C99.5772 374.779 100.671 376.472 100.764 378.632C100.791 379.405 100.964 379.965 101.284 380.312C101.617 380.645 102.144 380.812 102.864 380.812H104.044V382.432H102.724C101.617 382.432 100.751 382.079 100.124 381.372C99.6839 382.079 98.9439 382.432 97.9039 382.432H93.2039ZM102.853 382.432V380.812H103.913C105.3 380.812 105.993 380.085 105.993 378.632V370.452L107.733 369.532V378.652C107.733 379.839 107.38 380.779 106.673 381.472C106.006 382.112 105.133 382.432 104.053 382.432H102.853ZM111.327 382.432V370.452L113.047 369.532V382.432H111.327ZM145.633 388.732V384.372C145.633 383.239 145.96 382.359 146.613 381.732C147.2 381.159 148.013 380.852 149.053 380.812C148.453 380.132 148.153 379.185 148.153 377.972C148.153 376.519 148.533 375.385 149.293 374.572C149.973 373.852 150.866 373.492 151.973 373.492C153.106 373.492 153.98 373.845 154.593 374.552C155.14 375.179 155.413 375.999 155.413 377.012V379.172C155.4 380.172 155.086 380.959 154.473 381.532C153.86 382.105 153.013 382.405 151.933 382.432H149.313C148.006 382.432 147.353 383.099 147.353 384.432V387.812L145.633 388.732ZM153.693 377.092C153.693 375.759 153.12 375.092 151.973 375.092C151.306 375.092 150.786 375.345 150.413 375.852C150.053 376.345 149.873 377.039 149.873 377.932C149.873 378.839 150.046 379.545 150.393 380.052C150.74 380.559 151.226 380.812 151.853 380.812C153.08 380.812 153.693 380.192 153.693 378.952V377.092ZM158.81 382.432V370.452L160.53 369.532V382.432H158.81ZM162.523 382.432L163.363 380.812H166.923C167.456 380.812 167.83 380.679 168.043 380.412C168.27 380.145 168.383 379.685 168.383 379.032C168.383 377.259 167.563 375.925 165.923 375.032L166.803 373.552C168.896 374.779 169.99 376.472 170.083 378.632C170.11 379.405 170.283 379.965 170.603 380.312C170.936 380.645 171.463 380.812 172.183 380.812H173.363V382.432H172.043C170.936 382.432 170.07 382.079 169.443 381.372C169.003 382.079 168.263 382.432 167.223 382.432H162.523ZM178.232 371.332C177.579 371.332 177.252 370.999 177.252 370.332C177.252 369.679 177.579 369.352 178.232 369.352C178.872 369.352 179.192 369.679 179.192 370.332C179.192 370.999 178.872 371.332 178.232 371.332ZM185.212 380.812H186.512V382.432H185.192C184.112 382.432 183.245 382.312 182.592 382.072C181.939 381.819 181.332 381.379 180.772 380.752C179.092 381.872 177.132 382.432 174.892 382.432H172.172V380.812H174.912C177.619 380.812 179.759 379.919 181.332 378.132C180.225 376.092 178.879 375.072 177.292 375.072C176.212 375.072 175.099 375.645 173.952 376.792V375.192C175.072 374.059 176.259 373.492 177.512 373.492C178.539 373.492 179.532 373.865 180.492 374.612C181.452 375.345 182.299 376.399 183.032 377.772V378.652C182.619 379.172 182.225 379.592 181.852 379.912C182.572 380.512 183.692 380.812 185.212 380.812ZM187.557 371.472C186.903 371.472 186.577 371.139 186.577 370.472C186.577 369.819 186.903 369.492 187.557 369.492C188.197 369.492 188.517 369.819 188.517 370.472C188.517 371.139 188.197 371.472 187.557 371.472ZM190.117 371.472C189.463 371.472 189.137 371.139 189.137 370.472C189.137 369.819 189.463 369.492 190.117 369.492C190.757 369.492 191.077 369.819 191.077 370.472C191.077 371.139 190.757 371.472 190.117 371.472ZM192.277 380.812H193.597V382.432H192.077C190.97 382.432 190.097 382.079 189.457 381.372C188.817 382.079 187.943 382.432 186.837 382.432H185.317V380.812H186.637C187.943 380.812 188.597 380.145 188.597 378.812V374.672L190.317 373.752V378.812C190.317 380.145 190.97 380.812 192.277 380.812ZM192.387 382.432V380.812H194.187C195.48 380.812 196.127 380.145 196.127 378.812V376.012L197.847 375.092V378.812C197.847 380.145 198.5 380.812 199.807 380.812H200.727C202.034 380.812 202.687 380.145 202.687 378.812V375.332L204.407 374.432V378.812C204.407 380.145 205.054 380.812 206.347 380.812H207.287C208.594 380.812 209.247 380.145 209.247 378.812V374.672L210.967 373.752V378.872C210.967 380.005 210.627 380.892 209.947 381.532C209.347 382.119 208.547 382.419 207.547 382.432H206.167C204.994 382.432 204.12 382.039 203.547 381.252C202.974 382.025 202.12 382.419 200.987 382.432H199.607C198.46 382.432 197.587 382.039 196.987 381.252C196.414 382.039 195.54 382.432 194.367 382.432H192.387ZM214.572 382.432V370.452L216.292 369.532V382.432H214.572ZM254.758 381.952C253.491 382.712 252.725 383.232 252.458 383.512C251.925 384.032 251.658 384.679 251.658 385.452C251.658 386.305 251.951 386.992 252.538 387.512C253.125 388.045 253.885 388.312 254.818 388.312C256.285 388.299 257.511 387.945 258.498 387.252V388.872C257.351 389.579 256.098 389.932 254.738 389.932C253.258 389.932 252.071 389.445 251.178 388.472C250.405 387.645 250.018 386.625 250.018 385.412C250.018 384.505 250.258 383.732 250.738 383.092C251.218 382.465 252.065 381.805 253.278 381.112C252.185 380.312 251.065 379.059 249.918 377.352V376.472C250.571 375.539 251.338 374.812 252.218 374.292C253.098 373.759 253.991 373.492 254.898 373.492C255.791 373.492 256.685 373.765 257.578 374.312C258.471 374.845 259.238 375.579 259.878 376.512V377.352C259.198 378.379 258.071 379.519 256.498 380.772C256.791 380.799 257.025 380.812 257.198 380.812H262.478L262.498 382.432H257.058C256.271 382.432 255.505 382.272 254.758 381.952ZM251.518 376.932C252.718 378.572 253.811 379.659 254.798 380.192C256.091 379.312 257.251 378.212 258.278 376.892C257.291 375.692 256.165 375.085 254.898 375.072C253.618 375.072 252.491 375.692 251.518 376.932ZM264.576 377.012C264.576 375.852 264.922 374.952 265.616 374.312C266.229 373.765 267.029 373.492 268.016 373.492C269.282 373.492 270.256 373.959 270.936 374.892C271.522 375.679 271.816 376.705 271.816 377.972C271.816 379.412 271.442 380.539 270.696 381.352C270.042 382.072 269.189 382.432 268.136 382.432C266.936 382.432 266.022 382.099 265.396 381.432C264.756 382.099 263.896 382.432 262.816 382.432H261.296V380.812H262.616C263.922 380.812 264.576 380.145 264.576 378.812V377.012ZM266.296 378.952C266.296 380.192 266.902 380.812 268.116 380.812C268.742 380.812 269.229 380.559 269.576 380.052C269.936 379.545 270.116 378.839 270.116 377.932C270.116 377.039 269.929 376.345 269.556 375.852C269.182 375.345 268.669 375.092 268.016 375.092C266.869 375.092 266.296 375.759 266.296 377.092V378.952ZM306.375 380.092C307.108 380.092 307.488 380.472 307.515 381.232C307.515 381.605 307.395 381.919 307.155 382.172C306.928 382.412 306.628 382.532 306.255 382.532C305.428 382.532 305.015 382.025 305.015 381.012V378.432L305.855 378.192L305.875 380.092H306.375ZM312.497 371.132C311.844 371.132 311.517 370.799 311.517 370.132C311.517 369.479 311.844 369.152 312.497 369.152C313.137 369.152 313.457 369.479 313.457 370.132C313.457 370.799 313.137 371.132 312.497 371.132ZM315.057 371.132C314.404 371.132 314.077 370.799 314.077 370.132C314.077 369.479 314.404 369.152 315.057 369.152C315.697 369.152 316.017 369.479 316.017 370.132C316.017 370.799 315.697 371.132 315.057 371.132ZM313.797 382.432C312.584 382.432 311.637 382.025 310.957 381.212C310.371 380.505 310.077 379.605 310.077 378.512C310.077 377.325 310.404 376.299 311.057 375.432C311.724 374.552 312.671 373.905 313.897 373.492C315.191 373.932 316.164 374.625 316.817 375.572C317.404 376.412 317.697 377.392 317.697 378.512C317.697 379.779 317.324 380.772 316.577 381.492C315.911 382.119 315.051 382.432 313.997 382.432H313.797ZM313.737 380.812H314.037C314.637 380.812 315.111 380.605 315.457 380.192C315.817 379.779 315.997 379.225 315.997 378.532C315.997 376.932 315.297 375.785 313.897 375.092C312.497 375.785 311.797 376.925 311.797 378.512C311.797 379.219 311.971 379.779 312.317 380.192C312.664 380.605 313.137 380.812 313.737 380.812ZM319.247 382.432L320.087 380.812H323.647C324.18 380.812 324.554 380.679 324.767 380.412C324.994 380.145 325.107 379.685 325.107 379.032C325.107 377.245 324.3 375.892 322.687 374.972L323.527 373.552C325.727 374.805 326.827 376.639 326.827 379.052C326.827 381.305 325.867 382.432 323.947 382.432H319.247ZM328.427 382.432L329.267 380.812H332.827C333.36 380.812 333.733 380.679 333.947 380.412C334.173 380.145 334.287 379.685 334.287 379.032C334.287 377.259 333.467 375.925 331.827 375.032L332.707 373.552C334.8 374.779 335.893 376.472 335.987 378.632C336.013 379.405 336.187 379.965 336.507 380.312C336.84 380.645 337.367 380.812 338.087 380.812H339.267V382.432H337.947C336.84 382.432 335.973 382.079 335.347 381.372C334.907 382.079 334.167 382.432 333.127 382.432H328.427ZM351.116 380.812H352.416V382.432H351.096C350.016 382.432 349.149 382.312 348.496 382.072C347.842 381.819 347.236 381.379 346.676 380.752C344.996 381.872 343.036 382.432 340.796 382.432H338.076V380.812H340.816C343.522 380.812 345.662 379.919 347.236 378.132C346.129 376.092 344.782 375.072 343.196 375.072C342.116 375.072 341.002 375.645 339.856 376.792V375.192C340.976 374.059 342.162 373.492 343.416 373.492C344.442 373.492 345.436 373.865 346.396 374.612C347.356 375.345 348.202 376.399 348.936 377.772V378.652C348.522 379.172 348.129 379.592 347.756 379.912C348.476 380.512 349.596 380.812 351.116 380.812ZM354.5 377.012C354.5 375.852 354.847 374.952 355.54 374.312C356.154 373.765 356.954 373.492 357.94 373.492C359.207 373.492 360.18 373.959 360.86 374.892C361.447 375.679 361.74 376.705 361.74 377.972C361.74 379.412 361.367 380.539 360.62 381.352C359.967 382.072 359.114 382.432 358.06 382.432C356.86 382.432 355.947 382.099 355.32 381.432C354.68 382.099 353.82 382.432 352.74 382.432H351.22V380.812H352.54C353.847 380.812 354.5 380.145 354.5 378.812V377.012ZM356.22 378.952C356.22 380.192 356.827 380.812 358.04 380.812C358.667 380.812 359.154 380.559 359.5 380.052C359.86 379.545 360.04 378.839 360.04 377.932C360.04 377.039 359.854 376.345 359.48 375.852C359.107 375.345 358.594 375.092 357.94 375.092C356.794 375.092 356.22 375.759 356.22 377.092V378.952ZM153.816 406.472C153.816 406.459 153.816 406.445 153.816 406.432C153.843 405.765 154.196 405.432 154.876 405.432C155.583 405.432 155.936 405.779 155.936 406.472C155.936 407.179 155.583 407.532 154.876 407.532C154.169 407.532 153.816 407.179 153.816 406.472ZM171.359 405.812H172.239V407.432H171.339C170.205 407.432 169.299 407.299 168.619 407.032C167.952 406.765 167.332 406.285 166.759 405.592C166.319 405.752 165.645 405.925 164.739 406.112C163.219 406.432 162.205 406.845 161.699 407.352C161.059 407.965 160.739 408.825 160.739 409.932C160.739 411.052 161.105 411.919 161.839 412.532C162.452 413.052 163.239 413.312 164.199 413.312C165.665 413.299 166.892 412.945 167.879 412.252V413.872C166.745 414.579 165.472 414.932 164.059 414.932C162.539 414.932 161.312 414.425 160.379 413.412C159.539 412.505 159.119 411.339 159.119 409.912C159.119 408.379 159.572 407.159 160.479 406.252C160.879 405.852 161.339 405.539 161.859 405.312C162.379 405.085 163.165 404.859 164.219 404.632C165.219 404.419 165.952 404.212 166.419 404.012C166.899 403.812 167.312 403.525 167.659 403.152C166.565 401.099 165.219 400.072 163.619 400.072C162.552 400.072 161.432 400.645 160.259 401.792V400.192C161.379 399.059 162.572 398.492 163.839 398.492C164.852 398.492 165.839 398.865 166.799 399.612C167.759 400.359 168.605 401.412 169.339 402.772V403.652C168.979 404.172 168.559 404.592 168.079 404.912C168.785 405.512 169.879 405.812 171.359 405.812ZM163.179 409.872C163.179 409.285 163.479 408.992 164.079 408.992C164.652 408.992 164.939 409.285 164.939 409.872C164.939 410.485 164.652 410.792 164.079 410.792C163.479 410.792 163.179 410.485 163.179 409.872ZM172.725 396.192L173.185 395.332H173.725C173.591 395.092 173.525 394.839 173.525 394.572C173.525 394.185 173.671 393.852 173.965 393.572C174.258 393.279 174.605 393.132 175.005 393.132C175.338 393.132 175.658 393.239 175.965 393.452V394.332C175.671 394.105 175.391 393.992 175.125 393.992C174.631 393.992 174.385 394.212 174.385 394.652C174.385 394.879 174.478 395.105 174.665 395.332H176.485L176.025 396.192H172.725ZM171.045 407.432V405.812H172.365C173.671 405.812 174.325 405.145 174.325 403.812V399.672L176.045 398.752V403.872C176.045 405.005 175.705 405.899 175.025 406.552C174.398 407.139 173.578 407.432 172.565 407.432H171.045ZM182.862 407.432C181.702 407.432 180.809 407.059 180.182 406.312C179.649 405.672 179.382 404.859 179.382 403.872V395.452L181.102 394.532V403.812C181.102 405.145 181.755 405.812 183.062 405.812H184.382V407.432H182.862ZM185.413 396.472C184.76 396.472 184.433 396.139 184.433 395.472C184.433 394.819 184.76 394.492 185.413 394.492C186.053 394.492 186.373 394.819 186.373 395.472C186.373 396.139 186.053 396.472 185.413 396.472ZM187.973 396.472C187.32 396.472 186.993 396.139 186.993 395.472C186.993 394.819 187.32 394.492 187.973 394.492C188.613 394.492 188.933 394.819 188.933 395.472C188.933 396.139 188.613 396.472 187.973 396.472ZM190.133 405.812H191.453V407.432H189.933C188.827 407.432 187.953 407.079 187.313 406.372C186.673 407.079 185.8 407.432 184.693 407.432H183.173V405.812H184.493C185.8 405.812 186.453 405.145 186.453 403.812V399.672L188.173 398.752V403.812C188.173 405.145 188.827 405.812 190.133 405.812ZM194.044 396.332C193.39 396.332 193.064 395.999 193.064 395.332C193.064 394.679 193.39 394.352 194.044 394.352C194.684 394.352 195.004 394.679 195.004 395.332C195.004 395.999 194.684 396.332 194.044 396.332ZM197.204 405.812H198.524V407.432H197.004C195.897 407.432 195.024 407.079 194.384 406.372C193.744 407.079 192.87 407.432 191.764 407.432H190.244V405.812H191.564C192.87 405.812 193.524 405.145 193.524 403.812V399.672L195.244 398.752V403.812C195.244 405.145 195.897 405.812 197.204 405.812ZM197.314 407.432V405.812H198.374C199.761 405.812 200.454 405.085 200.454 403.632V395.452L202.194 394.532V403.652C202.194 404.839 201.841 405.779 201.134 406.472C200.467 407.112 199.594 407.432 198.514 407.432H197.314ZM209.268 407.432C208.108 407.432 207.215 407.059 206.588 406.312C206.055 405.672 205.788 404.859 205.788 403.872V395.452L207.508 394.532V403.812C207.508 405.145 208.162 405.812 209.468 405.812H210.788V407.432H209.268ZM209.58 407.432V405.812H210.9C212.206 405.812 212.86 405.145 212.86 403.812V399.672L214.58 398.752V403.872C214.58 405.005 214.24 405.899 213.56 406.552C212.933 407.139 212.113 407.432 211.1 407.432H209.58ZM212.8 411.412C212.146 411.412 211.82 411.079 211.82 410.412C211.82 409.759 212.146 409.432 212.8 409.432C213.44 409.432 213.76 409.759 213.76 410.412C213.76 411.079 213.44 411.412 212.8 411.412ZM227.499 395.332L227.039 396.192H223.739L224.199 395.332H224.739C224.606 395.092 224.539 394.839 224.539 394.572C224.539 394.185 224.686 393.852 224.979 393.572C225.272 393.279 225.619 393.132 226.019 393.132C226.352 393.132 226.672 393.239 226.979 393.452V394.332C226.699 394.105 226.419 393.992 226.139 393.992C225.646 393.992 225.399 394.212 225.399 394.652C225.399 394.879 225.492 395.105 225.679 395.332H227.499ZM232.179 405.812V407.432H229.699C229.646 408.579 229.152 409.525 228.219 410.272C227.432 410.885 226.539 411.192 225.539 411.192C224.712 411.192 223.932 410.999 223.199 410.612V409.092C223.906 409.465 224.606 409.652 225.299 409.652C226.006 409.652 226.619 409.432 227.139 408.992C227.672 408.552 227.946 408.025 227.959 407.412C227.266 407.385 226.752 407.359 226.419 407.332C224.979 407.252 223.892 406.765 223.159 405.872C222.546 405.125 222.239 404.159 222.239 402.972C222.239 401.519 222.626 400.385 223.399 399.572C224.092 398.852 225.006 398.492 226.139 398.492C227.326 398.492 228.239 398.845 228.879 399.552C229.426 400.179 229.699 400.999 229.699 402.012V405.812H232.179ZM227.959 402.132C227.959 400.772 227.352 400.092 226.139 400.092C225.446 400.092 224.906 400.345 224.519 400.852C224.132 401.345 223.939 402.039 223.939 402.932C223.939 404.679 224.792 405.605 226.499 405.712C226.819 405.752 227.306 405.785 227.959 405.812V402.132ZM237.946 405.812H239.266V407.432H237.746C236.639 407.432 235.766 407.079 235.126 406.372C234.486 407.079 233.613 407.432 232.506 407.432H230.986V405.812H232.306C233.613 405.812 234.266 405.145 234.266 403.812V399.672L235.986 398.752V403.812C235.986 405.145 236.639 405.812 237.946 405.812ZM235.006 409.432C235.646 409.432 235.966 409.759 235.966 410.412C235.966 411.079 235.646 411.412 235.006 411.412C234.353 411.412 234.026 411.079 234.026 410.412C234.026 409.759 234.353 409.432 235.006 409.432ZM241.856 396.332C241.203 396.332 240.876 395.999 240.876 395.332C240.876 394.679 241.203 394.352 241.856 394.352C242.496 394.352 242.816 394.679 242.816 395.332C242.816 395.999 242.496 396.332 241.856 396.332ZM245.016 405.812H246.336V407.432H244.816C243.71 407.432 242.836 407.079 242.196 406.372C241.556 407.079 240.683 407.432 239.576 407.432H238.056V405.812H239.376C240.683 405.812 241.336 405.145 241.336 403.812V399.672L243.056 398.752V403.812C243.056 405.145 243.71 405.812 245.016 405.812ZM247.367 396.472C246.713 396.472 246.387 396.139 246.387 395.472C246.387 394.819 246.713 394.492 247.367 394.492C248.007 394.492 248.327 394.819 248.327 395.472C248.327 396.139 248.007 396.472 247.367 396.472ZM249.927 396.472C249.273 396.472 248.947 396.139 248.947 395.472C248.947 394.819 249.273 394.492 249.927 394.492C250.567 394.492 250.887 394.819 250.887 395.472C250.887 396.139 250.567 396.472 249.927 396.472ZM252.087 405.812H253.407V407.432H251.887C250.78 407.432 249.907 407.079 249.267 406.372C248.627 407.079 247.753 407.432 246.647 407.432H245.127V405.812H246.447C247.753 405.812 248.407 405.145 248.407 403.812V399.672L250.127 398.752V403.812C250.127 405.145 250.78 405.812 252.087 405.812ZM259.017 405.812H260.337V407.432H258.817C257.67 407.432 256.784 407.065 256.157 406.332C255.49 407.065 254.57 407.432 253.397 407.432H252.197V405.812H253.257C254.644 405.812 255.337 405.085 255.337 403.632V395.452L257.077 394.532V403.652C257.077 404.425 257.224 404.979 257.517 405.312C257.824 405.645 258.324 405.812 259.017 405.812ZM259.13 407.432V405.812H260.19C261.577 405.812 262.27 405.085 262.27 403.632V395.452L264.01 394.532V403.652C264.01 404.839 263.657 405.779 262.95 406.472C262.284 407.112 261.41 407.432 260.33 407.432H259.13ZM283.813 407.432C283.679 408.605 283.039 409.545 281.893 410.252C280.826 410.905 279.466 411.232 277.813 411.232C275.706 411.232 274.119 410.619 273.053 409.392C272.266 408.485 271.873 407.365 271.873 406.032C271.873 404.912 272.153 403.952 272.713 403.152L274.373 402.792C273.773 403.739 273.473 404.759 273.473 405.852C273.473 407.039 273.859 407.972 274.633 408.652C275.393 409.332 276.453 409.672 277.813 409.672C278.959 409.672 279.906 409.472 280.653 409.072C281.399 408.672 281.853 408.125 282.013 407.432H280.013L280.853 405.812H283.873V407.432H283.813ZM276.473 414.772C275.819 414.772 275.493 414.439 275.493 413.772C275.493 413.119 275.819 412.792 276.473 412.792C277.113 412.792 277.433 413.119 277.433 413.772C277.433 414.439 277.113 414.772 276.473 414.772ZM279.013 414.772C278.359 414.772 278.033 414.439 278.033 413.772C278.033 413.119 278.359 412.792 279.013 412.792C279.653 412.792 279.973 413.119 279.973 413.772C279.973 414.439 279.653 414.772 279.013 414.772ZM293.602 405.812V407.432H282.822V405.812H286.282C285.629 404.972 285.302 403.939 285.302 402.712C285.302 401.352 285.769 400.272 286.702 399.472C287.462 398.832 288.342 398.505 289.342 398.492C290.755 398.492 291.855 399.059 292.642 400.192V401.812C291.789 400.665 290.755 400.092 289.542 400.092C288.782 400.092 288.169 400.339 287.702 400.832C287.249 401.312 287.022 401.959 287.022 402.772C287.022 403.692 287.295 404.432 287.842 404.992C288.402 405.539 289.142 405.812 290.062 405.812H293.602ZM299.874 407.432C298.714 407.432 297.82 407.059 297.194 406.312C296.66 405.672 296.394 404.859 296.394 403.872V395.452L298.114 394.532V403.812C298.114 405.145 298.767 405.812 300.074 405.812H301.394V407.432H299.874ZM303.985 396.332C303.332 396.332 303.005 395.999 303.005 395.332C303.005 394.679 303.332 394.352 303.985 394.352C304.625 394.352 304.945 394.679 304.945 395.332C304.945 395.999 304.625 396.332 303.985 396.332ZM307.145 405.812H308.465V407.432H306.945C305.838 407.432 304.965 407.079 304.325 406.372C303.685 407.079 302.812 407.432 301.705 407.432H300.185V405.812H301.505C302.812 405.812 303.465 405.145 303.465 403.812V399.672L305.185 398.752V403.812C305.185 405.145 305.838 405.812 307.145 405.812ZM325.135 405.812H326.455V407.432H324.935C323.869 407.432 323.035 407.119 322.435 406.492C321.889 407.119 321.115 407.432 320.115 407.432H307.255V405.812H310.975L311.035 405.592V395.452L312.755 394.532V401.852C314.275 399.612 316.162 398.492 318.415 398.492C319.922 398.492 321.129 399.019 322.035 400.072C322.809 400.965 323.195 402.065 323.195 403.372V403.852C323.195 405.159 323.842 405.812 325.135 405.812ZM321.455 403.932V403.372C321.455 402.332 321.135 401.505 320.495 400.892C319.949 400.359 319.262 400.092 318.435 400.092C317.062 400.092 315.822 400.712 314.715 401.952C313.889 402.885 313.235 404.052 312.755 405.452V405.812H319.975C320.549 405.812 320.935 405.679 321.135 405.412C321.349 405.145 321.455 404.652 321.455 403.932ZM331.563 405.752C332.097 403.739 332.977 402.059 334.203 400.712C335.577 399.232 337.177 398.492 339.003 398.492C340.523 398.492 341.737 399.019 342.643 400.072C343.403 400.965 343.783 402.065 343.783 403.372V403.892C343.783 405.052 343.43 405.952 342.723 406.592C342.11 407.152 341.303 407.432 340.303 407.432H332.023C330.917 407.432 330.043 407.079 329.403 406.372C328.763 407.079 327.89 407.432 326.783 407.432H325.263V405.812H326.583C327.89 405.812 328.543 405.145 328.543 403.812V401.012L330.263 400.092V403.812C330.263 404.932 330.697 405.579 331.563 405.752ZM342.063 403.732V403.372C342.063 402.332 341.743 401.505 341.103 400.892C340.543 400.359 339.85 400.092 339.023 400.092C337.61 400.092 336.337 400.745 335.203 402.052C334.337 403.052 333.67 404.305 333.203 405.812H340.203C341.443 405.812 342.063 405.119 342.063 403.732ZM354.4 395.452L356.14 394.532V403.652C356.14 404.839 355.786 405.779 355.08 406.472C354.413 407.112 353.54 407.432 352.46 407.432H345.58L346.42 405.812H349.34V398.052L351.06 397.132V405.812H352.32C353.706 405.812 354.4 405.085 354.4 403.632V395.452ZM359.734 407.432V395.452L361.454 394.532V407.432H359.734Z" fill="black"/>
<path d="M335.055 255.012H336.855V257.432H334.815C333.575 257.432 332.615 257.019 331.935 256.192C331.361 256.632 330.661 256.852 329.835 256.852C328.608 256.852 327.628 256.392 326.895 255.472C326.295 254.712 325.995 253.799 325.995 252.732C325.995 251.412 326.421 250.339 327.275 249.512C327.995 248.819 328.828 248.472 329.775 248.472C330.268 248.472 330.721 248.565 331.135 248.752V248.232L333.635 246.912V253.572C333.635 254.092 333.741 254.465 333.955 254.692C334.181 254.905 334.548 255.012 335.055 255.012ZM331.135 251.272C330.788 250.979 330.395 250.832 329.955 250.832C329.515 250.832 329.155 251.012 328.875 251.372C328.608 251.732 328.475 252.205 328.475 252.792C328.475 253.379 328.608 253.845 328.875 254.192C329.141 254.539 329.508 254.712 329.975 254.712C330.481 254.712 330.875 254.539 331.155 254.192C331.141 254.085 331.135 253.919 331.135 253.692V251.272ZM335.654 257.432V255.012H339.174V257.432H335.654ZM337.978 257.432V255.012H341.498V257.432H337.978ZM347.422 255.012H349.222V257.432H347.182C346.209 257.432 345.402 257.172 344.762 256.652C344.122 257.172 343.316 257.432 342.342 257.432H340.302V255.012H342.102C342.609 255.012 342.969 254.905 343.182 254.692C343.396 254.465 343.502 254.092 343.502 253.572V249.872L346.022 248.552V253.572C346.022 254.092 346.129 254.465 346.342 254.692C346.556 254.905 346.916 255.012 347.422 255.012ZM342.242 259.252C342.642 259.252 342.956 259.365 343.182 259.592C343.422 259.832 343.542 260.152 343.542 260.552C343.542 261.445 343.109 261.892 342.242 261.892C341.842 261.892 341.522 261.772 341.282 261.532C341.042 261.292 340.922 260.965 340.922 260.552C340.922 259.685 341.362 259.252 342.242 259.252ZM345.322 259.252C345.722 259.252 346.036 259.365 346.262 259.592C346.502 259.832 346.622 260.152 346.622 260.552C346.622 261.445 346.189 261.892 345.322 261.892C344.922 261.892 344.602 261.772 344.362 261.532C344.122 261.292 344.002 260.965 344.002 260.552C344.002 259.685 344.442 259.252 345.322 259.252ZM349.828 267.132L350.728 265.192L355.988 264.252L355.088 266.172L349.828 267.132ZM355.137 255.012H356.937V257.432H354.897C353.924 257.432 353.117 257.172 352.477 256.652C351.837 257.172 351.031 257.432 350.057 257.432H348.017V255.012H349.817C350.324 255.012 350.684 254.905 350.897 254.692C351.111 254.465 351.217 254.092 351.217 253.572V249.872L353.737 248.552V253.572C353.737 254.092 353.844 254.465 354.057 254.692C354.271 254.905 354.631 255.012 355.137 255.012ZM352.597 259.252C352.997 259.252 353.311 259.365 353.537 259.592C353.777 259.832 353.897 260.152 353.897 260.552C353.897 261.445 353.464 261.892 352.597 261.892C352.197 261.892 351.877 261.772 351.637 261.532C351.397 261.292 351.277 260.965 351.277 260.552C351.277 260.165 351.397 259.852 351.637 259.612C351.877 259.372 352.197 259.252 352.597 259.252ZM355.434 241.132L356.334 239.192L361.594 238.252L360.694 240.172L355.434 241.132ZM360.252 246.532C359.852 246.532 359.532 246.412 359.292 246.172C359.052 245.932 358.932 245.605 358.932 245.192C358.932 244.805 359.052 244.492 359.292 244.252C359.532 244.012 359.852 243.892 360.252 243.892C360.652 243.892 360.965 244.012 361.192 244.252C361.432 244.479 361.552 244.792 361.552 245.192C361.552 246.085 361.119 246.532 360.252 246.532ZM355.732 257.432V255.012H357.532C358.039 255.012 358.399 254.905 358.612 254.692C358.825 254.465 358.932 254.092 358.932 253.572V249.872L361.452 248.552V253.692C361.452 254.905 361.079 255.852 360.332 256.532C359.679 257.132 358.825 257.432 357.772 257.432H355.732Z" fill="#6D6AB1"/>
<path d="M335.055 255.012H336.855V257.432H334.815C333.575 257.432 332.615 257.019 331.935 256.192C331.361 256.632 330.661 256.852 329.835 256.852C328.608 256.852 327.628 256.392 326.895 255.472C326.295 254.712 325.995 253.799 325.995 252.732C325.995 251.412 326.421 250.339 327.275 249.512C327.995 248.819 328.828 248.472 329.775 248.472C330.268 248.472 330.721 248.565 331.135 248.752V248.232L333.635 246.912V253.572C333.635 254.092 333.741 254.465 333.955 254.692C334.181 254.905 334.548 255.012 335.055 255.012ZM331.135 251.272C330.788 250.979 330.395 250.832 329.955 250.832C329.515 250.832 329.155 251.012 328.875 251.372C328.608 251.732 328.475 252.205 328.475 252.792C328.475 253.379 328.608 253.845 328.875 254.192C329.141 254.539 329.508 254.712 329.975 254.712C330.481 254.712 330.875 254.539 331.155 254.192C331.141 254.085 331.135 253.919 331.135 253.692V251.272ZM335.654 257.432V255.012H339.174V257.432H335.654ZM337.978 257.432V255.012H341.498V257.432H337.978ZM347.422 255.012H349.222V257.432H347.182C346.209 257.432 345.402 257.172 344.762 256.652C344.122 257.172 343.316 257.432 342.342 257.432H340.302V255.012H342.102C342.609 255.012 342.969 254.905 343.182 254.692C343.396 254.465 343.502 254.092 343.502 253.572V249.872L346.022 248.552V253.572C346.022 254.092 346.129 254.465 346.342 254.692C346.556 254.905 346.916 255.012 347.422 255.012ZM342.242 259.252C342.642 259.252 342.956 259.365 343.182 259.592C343.422 259.832 343.542 260.152 343.542 260.552C343.542 261.445 343.109 261.892 342.242 261.892C341.842 261.892 341.522 261.772 341.282 261.532C341.042 261.292 340.922 260.965 340.922 260.552C340.922 259.685 341.362 259.252 342.242 259.252ZM345.322 259.252C345.722 259.252 346.036 259.365 346.262 259.592C346.502 259.832 346.622 260.152 346.622 260.552C346.622 261.445 346.189 261.892 345.322 261.892C344.922 261.892 344.602 261.772 344.362 261.532C344.122 261.292 344.002 260.965 344.002 260.552C344.002 259.685 344.442 259.252 345.322 259.252ZM349.828 267.132L350.728 265.192L355.988 264.252L355.088 266.172L349.828 267.132ZM355.137 255.012H356.937V257.432H354.897C353.924 257.432 353.117 257.172 352.477 256.652C351.837 257.172 351.031 257.432 350.057 257.432H348.017V255.012H349.817C350.324 255.012 350.684 254.905 350.897 254.692C351.111 254.465 351.217 254.092 351.217 253.572V249.872L353.737 248.552V253.572C353.737 254.092 353.844 254.465 354.057 254.692C354.271 254.905 354.631 255.012 355.137 255.012ZM352.597 259.252C352.997 259.252 353.311 259.365 353.537 259.592C353.777 259.832 353.897 260.152 353.897 260.552C353.897 261.445 353.464 261.892 352.597 261.892C352.197 261.892 351.877 261.772 351.637 261.532C351.397 261.292 351.277 260.965 351.277 260.552C351.277 260.165 351.397 259.852 351.637 259.612C351.877 259.372 352.197 259.252 352.597 259.252ZM355.434 241.132L356.334 239.192L361.594 238.252L360.694 240.172L355.434 241.132ZM360.252 246.532C359.852 246.532 359.532 246.412 359.292 246.172C359.052 245.932 358.932 245.605 358.932 245.192C358.932 244.805 359.052 244.492 359.292 244.252C359.532 244.012 359.852 243.892 360.252 243.892C360.652 243.892 360.965 244.012 361.192 244.252C361.432 244.479 361.552 244.792 361.552 245.192C361.552 246.085 361.119 246.532 360.252 246.532ZM355.732 257.432V255.012H357.532C358.039 255.012 358.399 254.905 358.612 254.692C358.825 254.465 358.932 254.092 358.932 253.572V249.872L361.452 248.552V253.692C361.452 254.905 361.079 255.852 360.332 256.532C359.679 257.132 358.825 257.432 357.772 257.432H355.732Z" fill="black" fill-opacity="0.2"/>
</g>
<defs>
<clipPath id="clip0_1042_306">
<rect width="296.492" height="175" fill="white" transform="translate(66.7539 242.432)"/>
</clipPath>
</defs>
</svg>
