<svg width="430" height="515" viewBox="0 0 430 515" fill="none" xmlns="http://www.w3.org/2000/svg">
<rect width="430" height="515" fill="white"/>
<g clip-path="url(#clip0_1042_306)">
<path d="M80.8739 279.472C80.2206 279.472 79.8939 279.139 79.8939 278.472C79.8939 277.819 80.2206 277.492 80.8739 277.492C81.5139 277.492 81.8339 277.819 81.8339 278.472C81.8339 279.139 81.5139 279.472 80.8739 279.472ZM72.0939 290.432C70.9606 290.432 70.0672 290.052 69.4139 289.292C68.8406 288.612 68.5539 287.745 68.5539 286.692V284.292L70.2739 283.372V286.532C70.2739 288.052 70.9739 288.812 72.3739 288.812H77.8339C77.2072 288.119 76.8939 287.172 76.8939 285.972C76.8939 284.519 77.2739 283.385 78.0339 282.572C78.7139 281.852 79.6072 281.492 80.7139 281.492C81.8472 281.492 82.7206 281.845 83.3339 282.552C83.8806 283.179 84.1539 283.999 84.1539 285.012V286.892C84.1539 288.012 83.8139 288.899 83.1339 289.552C82.5072 290.139 81.6806 290.432 80.6539 290.432H72.0939ZM82.4339 285.092C82.4339 283.759 81.8606 283.092 80.7139 283.092C80.0472 283.092 79.5272 283.345 79.1539 283.852C78.7939 284.345 78.6139 285.039 78.6139 285.932C78.6139 286.812 78.7939 287.512 79.1539 288.032C79.5139 288.552 79.9939 288.812 80.5939 288.812C81.8206 288.812 82.4339 288.145 82.4339 286.812V285.092ZM85.9578 290.432L86.7978 288.812H90.3578C90.8911 288.812 91.2645 288.679 91.4778 288.412C91.7045 288.145 91.8178 287.685 91.8178 287.032C91.8178 285.259 90.9978 283.925 89.3578 283.032L90.2378 281.552C92.3311 282.779 93.4245 284.472 93.5178 286.632C93.5445 287.405 93.7178 287.965 94.0378 288.312C94.3711 288.645 94.8978 288.812 95.6178 288.812H96.7978V290.432H95.4778C94.3711 290.432 93.5045 290.079 92.8778 289.372C92.4378 290.079 91.6978 290.432 90.6578 290.432H85.9578ZM109.227 288.812H110.547V290.432H109.027C107.907 290.432 107.04 290.085 106.427 289.392C105.774 290.085 104.887 290.432 103.767 290.432H101.607C101.154 290.432 100.727 290.365 100.327 290.232C99.9137 290.365 99.487 290.432 99.047 290.432H95.607V288.812H98.187C97.6804 288.132 97.427 287.359 97.427 286.492C97.427 285.705 97.6204 285.039 98.007 284.492C98.3404 283.265 98.9737 282.325 99.907 281.672C100.667 281.152 101.527 280.892 102.487 280.892C103.9 280.892 105.067 281.372 105.987 282.332C106.854 283.239 107.287 284.405 107.287 285.832V286.812C107.287 288.145 107.934 288.812 109.227 288.812ZM103.707 288.812C104.36 288.812 104.827 288.652 105.107 288.332C105.4 287.999 105.547 287.465 105.547 286.732V285.832C105.547 284.725 105.194 283.865 104.487 283.252C103.914 282.745 103.227 282.492 102.427 282.492C101.507 282.492 100.787 282.792 100.267 283.392H100.327C101.207 283.392 101.907 283.679 102.427 284.252C102.96 284.812 103.227 285.559 103.227 286.492C103.227 287.385 102.967 288.159 102.447 288.812H103.707ZM100.327 288.632C101.42 288.259 101.967 287.512 101.967 286.392C101.967 285.832 101.814 285.385 101.507 285.052C101.214 284.705 100.82 284.532 100.327 284.532C99.8337 284.532 99.4337 284.705 99.127 285.052C98.8337 285.385 98.687 285.832 98.687 286.392C98.687 287.512 99.2337 288.259 100.327 288.632ZM110.878 279.332C110.224 279.332 109.897 278.999 109.897 278.332C109.897 277.679 110.224 277.352 110.878 277.352C111.518 277.352 111.838 277.679 111.838 278.332C111.838 278.999 111.518 279.332 110.878 279.332ZM113.418 279.332C112.764 279.332 112.438 278.999 112.438 278.332C112.438 277.679 112.764 277.352 113.418 277.352C114.058 277.352 114.378 277.679 114.378 278.332C114.378 278.999 114.058 279.332 113.418 279.332ZM109.337 290.432V288.812H110.658C111.964 288.812 112.618 288.145 112.618 286.812V282.672L114.338 281.752V286.872C114.338 288.005 113.998 288.899 113.318 289.552C112.691 290.139 111.871 290.432 110.858 290.432H109.337ZM141.315 279.132C140.661 279.132 140.335 278.799 140.335 278.132C140.335 277.479 140.661 277.152 141.315 277.152C141.955 277.152 142.275 277.479 142.275 278.132C142.275 278.799 141.955 279.132 141.315 279.132ZM143.875 279.132C143.221 279.132 142.895 278.799 142.895 278.132C142.895 277.479 143.221 277.152 143.875 277.152C144.515 277.152 144.835 277.479 144.835 278.132C144.835 278.799 144.515 279.132 143.875 279.132ZM142.615 290.432C141.401 290.432 140.455 290.025 139.775 289.212C139.188 288.505 138.895 287.605 138.895 286.512C138.895 285.325 139.221 284.299 139.875 283.432C140.541 282.552 141.488 281.905 142.715 281.492C144.008 281.932 144.981 282.625 145.635 283.572C146.221 284.412 146.515 285.392 146.515 286.512C146.515 287.779 146.141 288.772 145.395 289.492C144.728 290.119 143.868 290.432 142.815 290.432H142.615ZM142.555 288.812H142.855C143.455 288.812 143.928 288.605 144.275 288.192C144.635 287.779 144.815 287.225 144.815 286.532C144.815 284.932 144.115 283.785 142.715 283.092C141.315 283.785 140.615 284.925 140.615 286.512C140.615 287.219 140.788 287.779 141.135 288.192C141.481 288.605 141.955 288.812 142.555 288.812ZM148.064 290.432L148.904 288.812H152.464C152.998 288.812 153.371 288.679 153.584 288.412C153.811 288.145 153.924 287.685 153.924 287.032C153.924 285.259 153.104 283.925 151.464 283.032L152.344 281.552C154.438 282.779 155.531 284.472 155.624 286.632C155.651 287.405 155.824 287.965 156.144 288.312C156.478 288.645 157.004 288.812 157.724 288.812H158.904V290.432H157.584C156.478 290.432 155.611 290.079 154.984 289.372C154.544 290.079 153.804 290.432 152.764 290.432H148.064ZM168.493 288.812V290.432H157.713V288.812H161.173C160.52 287.972 160.193 286.939 160.193 285.712C160.193 284.352 160.66 283.272 161.593 282.472C162.353 281.832 163.233 281.505 164.233 281.492C165.647 281.492 166.747 282.059 167.533 283.192V284.812C166.68 283.665 165.647 283.092 164.433 283.092C163.673 283.092 163.06 283.339 162.593 283.832C162.14 284.312 161.913 284.959 161.913 285.772C161.913 286.692 162.187 287.432 162.733 287.992C163.293 288.539 164.033 288.812 164.953 288.812H168.493ZM174.765 290.432C173.605 290.432 172.712 290.059 172.085 289.312C171.552 288.672 171.285 287.859 171.285 286.872V278.452L173.005 277.532V286.812C173.005 288.145 173.659 288.812 174.965 288.812H176.285V290.432H174.765ZM175.077 290.432V288.812H176.877C178.17 288.812 178.817 288.145 178.817 286.812V284.012L180.537 283.092V286.812C180.537 288.145 181.19 288.812 182.497 288.812H183.417C184.723 288.812 185.377 288.145 185.377 286.812V283.332L187.097 282.432V286.812C187.097 288.145 187.743 288.812 189.037 288.812H189.977C191.283 288.812 191.937 288.145 191.937 286.812V282.672L193.657 281.752V286.632C193.657 288.085 194.35 288.812 195.737 288.812H197.397V290.432H195.597C194.397 290.432 193.483 290.025 192.857 289.212C192.297 290.012 191.423 290.419 190.237 290.432H188.857C187.683 290.432 186.81 290.039 186.237 289.252C185.663 290.025 184.81 290.419 183.677 290.432H182.297C181.15 290.432 180.277 290.039 179.677 289.252C179.103 290.039 178.23 290.432 177.057 290.432H175.077ZM199.47 285.012C199.47 283.852 199.817 282.952 200.51 282.312C201.123 281.765 201.923 281.492 202.91 281.492C204.177 281.492 205.15 281.959 205.83 282.892C206.417 283.679 206.71 284.705 206.71 285.972C206.71 287.412 206.337 288.539 205.59 289.352C204.937 290.072 204.083 290.432 203.03 290.432C201.83 290.432 200.917 290.099 200.29 289.432C199.65 290.099 198.79 290.432 197.71 290.432H196.19V288.812H197.51C198.817 288.812 199.47 288.145 199.47 286.812V285.012ZM201.19 286.952C201.19 288.192 201.797 288.812 203.01 288.812C203.637 288.812 204.123 288.559 204.47 288.052C204.83 287.545 205.01 286.839 205.01 285.932C205.01 285.039 204.823 284.345 204.45 283.852C204.077 283.345 203.563 283.092 202.91 283.092C201.763 283.092 201.19 283.759 201.19 285.092V286.952ZM233.401 279.132C232.748 279.132 232.421 278.799 232.421 278.132C232.421 277.479 232.748 277.152 233.401 277.152C234.041 277.152 234.361 277.479 234.361 278.132C234.361 278.799 234.041 279.132 233.401 279.132ZM235.961 279.132C235.308 279.132 234.981 278.799 234.981 278.132C234.981 277.479 235.308 277.152 235.961 277.152C236.601 277.152 236.921 277.479 236.921 278.132C236.921 278.799 236.601 279.132 235.961 279.132ZM234.701 290.432C233.488 290.432 232.541 290.025 231.861 289.212C231.275 288.505 230.981 287.605 230.981 286.512C230.981 285.325 231.308 284.299 231.961 283.432C232.628 282.552 233.575 281.905 234.801 281.492C236.095 281.932 237.068 282.625 237.721 283.572C238.308 284.412 238.601 285.392 238.601 286.512C238.601 287.779 238.228 288.772 237.481 289.492C236.815 290.119 235.955 290.432 234.901 290.432H234.701ZM234.641 288.812H234.941C235.541 288.812 236.015 288.605 236.361 288.192C236.721 287.779 236.901 287.225 236.901 286.532C236.901 284.932 236.201 283.785 234.801 283.092C233.401 283.785 232.701 284.925 232.701 286.512C232.701 287.219 232.875 287.779 233.221 288.192C233.568 288.605 234.041 288.812 234.641 288.812ZM241.751 290.432V278.452L243.471 277.532V290.432H241.751ZM245.464 290.432L246.304 288.812H249.864C250.397 288.812 250.77 288.679 250.984 288.412C251.21 288.145 251.324 287.685 251.324 287.032C251.324 285.245 250.517 283.892 248.904 282.972L249.744 281.552C251.944 282.805 253.044 284.639 253.044 287.052C253.044 289.305 252.084 290.432 250.164 290.432H245.464ZM255.183 277.252L255.643 276.392H256.183C256.05 276.152 255.983 275.905 255.983 275.652C255.983 275.252 256.13 274.912 256.423 274.632C256.717 274.339 257.063 274.192 257.463 274.192C257.797 274.192 258.117 274.299 258.423 274.512V275.392C258.13 275.165 257.85 275.052 257.583 275.052C257.09 275.052 256.843 275.272 256.843 275.712C256.843 275.939 256.937 276.165 257.123 276.392H258.943L258.483 277.252H255.183ZM256.243 290.432V279.252L257.963 278.332V290.432H256.243ZM292.202 288.812V290.432H289.722C289.668 291.579 289.175 292.525 288.242 293.272C287.455 293.885 286.562 294.192 285.562 294.192C284.735 294.192 283.955 293.999 283.222 293.612V292.092C283.928 292.465 284.628 292.652 285.322 292.652C286.028 292.652 286.642 292.432 287.162 291.992C287.695 291.552 287.968 291.025 287.982 290.412C287.288 290.385 286.775 290.359 286.442 290.332C285.002 290.252 283.915 289.765 283.182 288.872C282.568 288.125 282.262 287.159 282.262 285.972C282.262 284.519 282.648 283.385 283.422 282.572C284.115 281.852 285.028 281.492 286.162 281.492C287.348 281.492 288.262 281.845 288.902 282.552C289.448 283.179 289.722 283.999 289.722 285.012V288.812H292.202ZM287.982 285.132C287.982 283.772 287.375 283.092 286.162 283.092C285.468 283.092 284.928 283.345 284.542 283.852C284.155 284.345 283.962 285.039 283.962 285.932C283.962 287.679 284.815 288.605 286.522 288.712C286.842 288.752 287.328 288.785 287.982 288.812V285.132ZM293.408 284.492C293.742 283.265 294.375 282.325 295.308 281.672C296.068 281.152 296.928 280.892 297.888 280.892C299.302 280.892 300.468 281.372 301.388 282.332C302.255 283.239 302.688 284.405 302.688 285.832V286.892C302.688 288.052 302.328 288.952 301.608 289.592C300.982 290.152 300.168 290.432 299.168 290.432H297.008C296.555 290.432 296.128 290.365 295.728 290.232C295.315 290.365 294.888 290.432 294.448 290.432H291.008V288.812H293.588C293.082 288.132 292.828 287.359 292.828 286.492C292.828 285.705 293.022 285.039 293.408 284.492ZM300.948 286.732V285.832C300.948 284.725 300.595 283.865 299.888 283.252C299.315 282.745 298.628 282.492 297.828 282.492C296.908 282.492 296.188 282.792 295.668 283.392H295.728C296.608 283.392 297.308 283.679 297.828 284.252C298.362 284.812 298.628 285.559 298.628 286.492C298.628 287.385 298.368 288.159 297.848 288.812H299.108C299.762 288.812 300.228 288.652 300.508 288.332C300.802 287.999 300.948 287.465 300.948 286.732ZM295.728 288.632C296.822 288.259 297.368 287.512 297.368 286.392C297.368 285.832 297.215 285.385 296.908 285.052C296.615 284.705 296.222 284.532 295.728 284.532C295.235 284.532 294.835 284.705 294.528 285.052C294.235 285.385 294.088 285.832 294.088 286.392C294.088 287.512 294.635 288.259 295.728 288.632ZM70.2939 309.132C69.6406 309.132 69.3139 308.799 69.3139 308.132C69.3139 307.479 69.6406 307.152 70.2939 307.152C70.9339 307.152 71.2539 307.479 71.2539 308.132C71.2539 308.799 70.9339 309.132 70.2939 309.132ZM72.8339 309.132C72.1806 309.132 71.8539 308.799 71.8539 308.132C71.8539 307.479 72.1806 307.152 72.8339 307.152C73.4739 307.152 73.7939 307.479 73.7939 308.132C73.7939 308.799 73.4739 309.132 72.8339 309.132ZM76.5539 318.812H77.8739V320.432H76.3539C74.9806 320.432 73.9939 319.925 73.3939 318.912C72.7539 319.525 71.9606 319.832 71.0139 319.832C69.8406 319.832 68.9072 319.392 68.2139 318.512C67.6406 317.765 67.3539 316.852 67.3539 315.772C67.3539 314.479 67.7472 313.439 68.5339 312.652C69.2006 311.972 70.0139 311.632 70.9739 311.632C71.7072 311.632 72.3406 311.819 72.8739 312.192V311.332L74.6139 310.412V316.812C74.6139 318.145 75.2606 318.812 76.5539 318.812ZM72.8739 314.052C72.3806 313.505 71.7739 313.232 71.0539 313.232C70.4672 313.232 69.9872 313.472 69.6139 313.952C69.2406 314.419 69.0539 315.032 69.0539 315.792C69.0539 316.565 69.2406 317.185 69.6139 317.652C69.9872 318.119 70.4739 318.352 71.0739 318.352C71.8206 318.352 72.4339 318.045 72.9139 317.432C72.8872 317.192 72.8739 317.005 72.8739 316.872V314.052ZM76.6812 320.432V318.812H78.0013C79.3079 318.812 79.9613 318.145 79.9613 316.812V312.672L81.6813 311.752V316.872C81.6813 318.005 81.3413 318.899 80.6613 319.552C80.0346 320.139 79.2146 320.432 78.2013 320.432H76.6812ZM79.9013 324.412C79.2479 324.412 78.9213 324.079 78.9213 323.412C78.9213 322.759 79.2479 322.432 79.9013 322.432C80.5413 322.432 80.8613 322.759 80.8613 323.412C80.8613 324.079 80.5413 324.412 79.9013 324.412ZM88.7527 320.432C87.5927 320.432 86.6993 320.059 86.0727 319.312C85.5393 318.672 85.2727 317.859 85.2727 316.872V308.452L86.9927 307.532V316.812C86.9927 318.145 87.646 318.812 88.9527 318.812H90.2727V320.432H88.7527ZM95.3641 318.752C95.8974 316.739 96.7774 315.059 98.0041 313.712C99.3774 312.232 100.977 311.492 102.804 311.492C104.324 311.492 105.537 312.019 106.444 313.072C107.204 313.965 107.584 315.065 107.584 316.372V316.892C107.584 318.052 107.231 318.952 106.524 319.592C105.911 320.152 105.104 320.432 104.104 320.432H95.8241C94.7174 320.432 93.8441 320.079 93.2041 319.372C92.5641 320.079 91.6907 320.432 90.5841 320.432H89.0641V318.812H90.3841C91.6907 318.812 92.3441 318.145 92.3441 316.812V314.012L94.0641 313.092V316.812C94.0641 317.932 94.4974 318.579 95.3641 318.752ZM105.864 316.732V316.372C105.864 315.332 105.544 314.505 104.904 313.892C104.344 313.359 103.651 313.092 102.824 313.092C101.411 313.092 100.137 313.745 99.0041 315.052C98.1374 316.052 97.4707 317.305 97.0041 318.812H104.004C105.244 318.812 105.864 318.119 105.864 316.732ZM118.2 308.452L119.94 307.532V316.652C119.94 317.839 119.587 318.779 118.88 319.472C118.214 320.112 117.34 320.432 116.26 320.432H109.38L110.22 318.812H113.14V311.052L114.86 310.132V318.812H116.12C117.507 318.812 118.2 318.085 118.2 316.632V308.452ZM115.16 323.132C114.867 322.905 114.587 322.792 114.32 322.792C113.827 322.792 113.58 323.012 113.58 323.452C113.58 323.679 113.674 323.905 113.86 324.132H115.68L115.22 324.992H111.92L112.38 324.132H112.92C112.787 323.892 112.72 323.639 112.72 323.372C112.72 322.985 112.867 322.645 113.16 322.352C113.454 322.072 113.8 321.932 114.2 321.932C114.534 321.932 114.854 322.039 115.16 322.252V323.132ZM123.534 320.432V308.452L125.254 307.532V320.432H123.534ZM138.055 309.132C137.401 309.132 137.075 308.799 137.075 308.132C137.075 307.479 137.401 307.152 138.055 307.152C138.695 307.152 139.015 307.479 139.015 308.132C139.015 308.799 138.695 309.132 138.055 309.132ZM140.595 309.132C139.941 309.132 139.615 308.799 139.615 308.132C139.615 307.479 139.941 307.152 140.595 307.152C141.235 307.152 141.555 307.479 141.555 308.132C141.555 308.799 141.235 309.132 140.595 309.132ZM144.315 318.812H145.635V320.432H144.115C142.741 320.432 141.755 319.925 141.155 318.912C140.515 319.525 139.721 319.832 138.775 319.832C137.601 319.832 136.668 319.392 135.975 318.512C135.401 317.765 135.115 316.852 135.115 315.772C135.115 314.479 135.508 313.439 136.295 312.652C136.961 311.972 137.775 311.632 138.735 311.632C139.468 311.632 140.101 311.819 140.635 312.192V311.332L142.375 310.412V316.812C142.375 318.145 143.021 318.812 144.315 318.812ZM140.635 314.052C140.141 313.505 139.535 313.232 138.815 313.232C138.228 313.232 137.748 313.472 137.375 313.952C137.001 314.419 136.815 315.032 136.815 315.792C136.815 316.565 137.001 317.185 137.375 317.652C137.748 318.119 138.235 318.352 138.835 318.352C139.581 318.352 140.195 318.045 140.675 317.432C140.648 317.192 140.635 317.005 140.635 316.872V314.052ZM151.402 318.812H152.722V320.432H151.202C150.095 320.432 149.222 320.079 148.582 319.372C147.942 320.079 147.069 320.432 145.962 320.432H144.442V318.812H145.762C147.069 318.812 147.722 318.145 147.722 316.812V312.672L149.442 311.752V316.812C149.442 318.145 150.095 318.812 151.402 318.812ZM146.622 322.432C147.262 322.432 147.582 322.765 147.582 323.432C147.582 324.085 147.262 324.412 146.622 324.412C145.969 324.412 145.642 324.085 145.642 323.432C145.642 322.765 145.969 322.432 146.622 322.432ZM149.162 322.432C149.802 322.432 150.122 322.765 150.122 323.432C150.122 324.085 149.802 324.412 149.162 324.412C148.509 324.412 148.182 324.085 148.182 323.432C148.182 322.765 148.509 322.432 149.162 322.432ZM151.512 320.432V318.812H152.572C153.959 318.812 154.652 318.085 154.652 316.632V308.452L156.392 307.532V316.652C156.392 317.839 156.039 318.779 155.332 319.472C154.666 320.112 153.792 320.432 152.712 320.432H151.512ZM163.467 320.432C162.307 320.432 161.413 320.059 160.787 319.312C160.253 318.672 159.987 317.859 159.987 316.872V308.452L161.707 307.532V316.812C161.707 318.145 162.36 318.812 163.667 318.812H164.987V320.432H163.467ZM176.658 318.812H177.998V320.432H176.478C175.371 320.432 174.498 320.079 173.858 319.372C173.178 320.345 172.185 320.832 170.878 320.832C169.571 320.832 168.585 320.352 167.918 319.392C167.291 320.085 166.418 320.432 165.298 320.432H163.778V318.812H165.098C166.405 318.812 167.058 318.145 167.058 316.812V316.152C167.058 314.605 167.438 313.419 168.198 312.592C168.865 311.859 169.758 311.492 170.878 311.492C172.158 311.492 173.145 311.965 173.838 312.912C174.425 313.725 174.718 314.805 174.718 316.152V316.812C174.718 318.145 175.365 318.812 176.658 318.812ZM170.878 319.212C171.531 319.212 172.045 318.939 172.418 318.392C172.805 317.845 172.998 317.092 172.998 316.132C172.998 314.105 172.291 313.092 170.878 313.092C169.478 313.092 168.778 314.105 168.778 316.132C168.778 318.185 169.478 319.212 170.878 319.212ZM179.045 309.472C178.392 309.472 178.065 309.139 178.065 308.472C178.065 307.819 178.392 307.492 179.045 307.492C179.685 307.492 180.005 307.819 180.005 308.472C180.005 309.139 179.685 309.472 179.045 309.472ZM181.605 309.472C180.952 309.472 180.625 309.139 180.625 308.472C180.625 307.819 180.952 307.492 181.605 307.492C182.245 307.492 182.565 307.819 182.565 308.472C182.565 309.139 182.245 309.472 181.605 309.472ZM183.765 318.812H185.085V320.432H183.565C182.459 320.432 181.585 320.079 180.945 319.372C180.305 320.079 179.432 320.432 178.325 320.432H176.805V318.812H178.125C179.432 318.812 180.085 318.145 180.085 316.812V312.672L181.805 311.752V316.812C181.805 318.145 182.459 318.812 183.765 318.812ZM183.876 320.432V318.812H186.616C189.322 318.812 191.462 317.919 193.036 316.132C191.929 314.092 190.582 313.072 188.996 313.072C187.916 313.072 186.802 313.645 185.656 314.792V313.192C186.776 312.059 187.962 311.492 189.216 311.492C190.242 311.492 191.236 311.865 192.196 312.612C193.156 313.345 194.002 314.399 194.736 315.772V316.652C192.776 319.172 190.062 320.432 186.596 320.432H183.876ZM197.545 320.432V308.452L199.265 307.532V320.432H197.545ZM214.965 311.412C214.312 311.412 213.985 311.079 213.985 310.412C213.985 309.759 214.312 309.432 214.965 309.432C215.605 309.432 215.925 309.759 215.925 310.412C215.925 311.079 215.605 311.412 214.965 311.412ZM222.265 318.812H223.585V320.432H222.065C221.372 320.432 220.772 320.292 220.265 320.012C220.105 321.372 219.512 322.432 218.485 323.192C217.565 323.885 216.425 324.232 215.065 324.232C213.332 324.232 211.985 323.619 211.025 322.392C210.292 321.445 209.925 320.325 209.925 319.032C209.925 317.912 210.205 316.952 210.765 316.152L212.425 315.792C211.825 316.739 211.525 317.759 211.525 318.852C211.525 319.972 211.872 320.892 212.565 321.612C213.219 322.279 214.052 322.612 215.065 322.612C216.239 322.612 217.145 322.272 217.785 321.592C218.319 321.019 218.585 320.272 218.585 319.352V312.672L220.305 311.752V316.812C220.305 318.145 220.959 318.812 222.265 318.812ZM233.159 318.812V320.432H222.379V318.812H225.839C225.185 317.972 224.859 316.939 224.859 315.712C224.859 314.352 225.325 313.272 226.259 312.472C227.019 311.832 227.899 311.505 228.899 311.492C230.312 311.492 231.412 312.059 232.199 313.192V314.812C231.345 313.665 230.312 313.092 229.099 313.092C228.339 313.092 227.725 313.339 227.259 313.832C226.805 314.312 226.579 314.959 226.579 315.772C226.579 316.692 226.852 317.432 227.399 317.992C227.959 318.539 228.699 318.812 229.619 318.812H233.159ZM248.318 318.812H249.638V320.432H248.118C247.438 320.432 246.851 320.299 246.358 320.032C246.238 321.352 245.778 322.405 244.978 323.192C244.245 323.912 243.325 324.272 242.218 324.272C241.418 324.272 240.638 324.072 239.878 323.672V322.172C240.558 322.545 241.238 322.732 241.918 322.732C242.771 322.732 243.438 322.445 243.918 321.872C244.398 321.299 244.638 320.505 244.638 319.492V312.672L246.358 311.752V311.772L246.378 311.752V317.212C246.498 318.279 247.145 318.812 248.318 318.812ZM259.38 318.812H260.52V320.432H259.2C258.08 320.432 257.207 320.085 256.58 319.392C255.953 320.085 255.08 320.432 253.96 320.432H248.44V318.812H253.8C255.08 318.812 255.72 318.139 255.72 316.792V316.612C255.72 315.612 255.333 314.852 254.56 314.332C253.947 313.905 253.193 313.692 252.3 313.692C251.593 313.692 250.887 313.825 250.18 314.092V312.392L254.56 307.532H256.32L252.38 311.972C252.393 311.972 252.413 311.972 252.44 311.972C252.467 311.972 252.487 311.972 252.5 311.972C254.02 311.972 255.247 312.432 256.18 313.352C257.02 314.205 257.44 315.285 257.44 316.592V316.812C257.44 318.145 258.087 318.812 259.38 318.812ZM266.279 318.812H267.599V320.432H266.079C264.972 320.432 264.099 320.079 263.459 319.372C262.819 320.079 261.946 320.432 260.839 320.432H259.319V318.812H260.639C261.946 318.812 262.599 318.145 262.599 316.812V312.672L264.319 311.752V316.812C264.319 318.145 264.972 318.812 266.279 318.812ZM263.339 322.432C263.979 322.432 264.299 322.759 264.299 323.412C264.299 324.079 263.979 324.412 263.339 324.412C262.686 324.412 262.359 324.079 262.359 323.412C262.359 322.759 262.686 322.432 263.339 322.432ZM279.269 318.812H280.609V320.432H279.089C277.983 320.432 277.109 320.079 276.469 319.372C275.789 320.345 274.796 320.832 273.489 320.832C272.183 320.832 271.196 320.352 270.529 319.392C269.903 320.085 269.029 320.432 267.909 320.432H266.389V318.812H267.709C269.016 318.812 269.669 318.145 269.669 316.812V316.152C269.669 314.605 270.049 313.419 270.809 312.592C271.476 311.859 272.369 311.492 273.489 311.492C274.769 311.492 275.756 311.965 276.449 312.912C277.036 313.725 277.329 314.805 277.329 316.152V316.812C277.329 318.145 277.976 318.812 279.269 318.812ZM273.489 319.212C274.143 319.212 274.656 318.939 275.029 318.392C275.416 317.845 275.609 317.092 275.609 316.132C275.609 314.105 274.903 313.092 273.489 313.092C272.089 313.092 271.389 314.105 271.389 316.132C271.389 318.185 272.089 319.212 273.489 319.212ZM279.417 320.432V318.812H280.477C281.863 318.812 282.557 318.085 282.557 316.632V308.452L284.297 307.532V316.652C284.297 317.839 283.943 318.779 283.237 319.472C282.57 320.112 281.697 320.432 280.617 320.432H279.417ZM287.891 320.432V308.452L289.611 307.532V320.432H287.891ZM312.871 309.472C312.218 309.472 311.891 309.139 311.891 308.472C311.891 307.819 312.218 307.492 312.871 307.492C313.511 307.492 313.831 307.819 313.831 308.472C313.831 309.139 313.511 309.472 312.871 309.472ZM315.271 318.812H318.851V320.432H314.131C313.598 320.432 313.144 320.385 312.771 320.292C312.384 320.385 311.931 320.432 311.411 320.432H304.011C302.931 320.432 302.084 320.072 301.471 319.352C300.938 318.725 300.671 317.905 300.671 316.892V314.472L302.391 313.552V316.732C302.391 318.119 303.038 318.812 304.331 318.812H310.251C309.424 317.865 309.011 316.819 309.011 315.672C309.011 314.365 309.384 313.325 310.131 312.552C310.798 311.845 311.678 311.492 312.771 311.492C314.011 311.492 314.978 311.945 315.671 312.852C316.231 313.599 316.511 314.539 316.511 315.672C316.511 316.819 316.098 317.865 315.271 318.812ZM312.771 318.632C313.384 318.419 313.884 318.025 314.271 317.452C314.671 316.879 314.871 316.259 314.871 315.592C314.871 314.832 314.678 314.225 314.291 313.772C313.918 313.319 313.411 313.092 312.771 313.092C312.131 313.092 311.618 313.319 311.231 313.772C310.858 314.212 310.671 314.819 310.671 315.592C310.671 316.259 310.864 316.879 311.251 317.452C311.651 318.025 312.158 318.419 312.771 318.632ZM328.646 307.492C328.059 307.492 327.766 307.192 327.766 306.592C327.766 306.005 328.059 305.712 328.646 305.712C329.233 305.712 329.526 306.005 329.526 306.592C329.526 307.192 329.233 307.492 328.646 307.492ZM327.386 309.872C326.733 309.872 326.406 309.539 326.406 308.872C326.406 308.219 326.733 307.892 327.386 307.892C328.026 307.892 328.346 308.219 328.346 308.872C328.346 309.539 328.026 309.872 327.386 309.872ZM329.926 309.872C329.273 309.872 328.946 309.539 328.946 308.872C328.946 308.219 329.273 307.892 329.926 307.892C330.566 307.892 330.886 308.219 330.886 308.872C330.886 309.539 330.566 309.872 329.926 309.872ZM317.646 320.432V318.812H319.446C320.739 318.812 321.386 318.145 321.386 316.812V314.012L323.106 313.092V316.812C323.106 318.145 323.759 318.812 325.066 318.812H325.986C327.293 318.812 327.946 318.145 327.946 316.812V313.332L329.666 312.432V316.812C329.666 318.145 330.313 318.812 331.606 318.812H332.546C333.853 318.812 334.506 318.145 334.506 316.812V312.672L336.226 311.752V316.632C336.226 318.085 336.919 318.812 338.306 318.812H339.966V320.432H338.166C336.966 320.432 336.053 320.025 335.426 319.212C334.866 320.012 333.993 320.419 332.806 320.432H331.426C330.253 320.432 329.379 320.039 328.806 319.252C328.233 320.025 327.379 320.419 326.246 320.432H324.866C323.719 320.432 322.846 320.039 322.246 319.252C321.673 320.039 320.799 320.432 319.626 320.432H317.646ZM349.699 318.812H350.839V320.432H349.519C348.399 320.432 347.526 320.085 346.899 319.392C346.273 320.085 345.399 320.432 344.279 320.432H338.759V318.812H344.119C345.399 318.812 346.039 318.139 346.039 316.792V316.612C346.039 315.612 345.653 314.852 344.879 314.332C344.266 313.905 343.513 313.692 342.619 313.692C341.913 313.692 341.206 313.825 340.499 314.092V312.392L344.879 307.532H346.639L342.699 311.972C342.713 311.972 342.733 311.972 342.759 311.972C342.786 311.972 342.806 311.972 342.819 311.972C344.339 311.972 345.566 312.432 346.499 313.352C347.339 314.205 347.759 315.285 347.759 316.592V316.812C347.759 318.145 348.406 318.812 349.699 318.812ZM356.458 318.812H357.778V320.432H356.258C355.112 320.432 354.225 320.065 353.598 319.332C352.932 320.065 352.012 320.432 350.838 320.432H349.638V318.812H350.698C352.085 318.812 352.778 318.085 352.778 316.632V308.452L354.518 307.532V316.652C354.518 317.425 354.665 317.979 354.958 318.312C355.265 318.645 355.765 318.812 356.458 318.812ZM356.572 320.432V318.812H357.632C359.019 318.812 359.712 318.085 359.712 316.632V308.452L361.452 307.532V316.652C361.452 317.839 361.099 318.779 360.392 319.472C359.725 320.112 358.852 320.432 357.772 320.432H356.572ZM73.9139 341.132C73.2606 341.132 72.9339 340.799 72.9339 340.132C72.9339 339.479 73.2606 339.152 73.9139 339.152C74.5539 339.152 74.8739 339.479 74.8739 340.132C74.8739 340.799 74.5539 341.132 73.9139 341.132ZM76.4539 341.132C75.8006 341.132 75.4739 340.799 75.4739 340.132C75.4739 339.479 75.8006 339.152 76.4539 339.152C77.0939 339.152 77.4139 339.479 77.4139 340.132C77.4139 340.799 77.0939 341.132 76.4539 341.132ZM84.4739 348.812H85.3939V350.432H84.2739C83.1539 350.432 82.2806 350.085 81.6539 349.392C81.0272 350.085 80.1539 350.432 79.0339 350.432H71.8939C70.8139 350.432 69.9672 350.072 69.3539 349.352C68.8206 348.725 68.5539 347.905 68.5539 346.892V344.472L70.2739 343.552V346.732C70.2739 348.119 70.9206 348.812 72.2139 348.812H78.8539C80.1472 348.812 80.7939 348.119 80.7939 346.732V342.672L82.5139 341.752V346.812C82.5139 348.145 83.1672 348.812 84.4739 348.812ZM86.4408 339.472C85.7874 339.472 85.4608 339.139 85.4608 338.472C85.4608 337.819 85.7874 337.492 86.4408 337.492C87.0808 337.492 87.4008 337.819 87.4008 338.472C87.4008 339.139 87.0808 339.472 86.4408 339.472ZM89.0008 339.472C88.3474 339.472 88.0208 339.139 88.0208 338.472C88.0208 337.819 88.3474 337.492 89.0008 337.492C89.6408 337.492 89.9608 337.819 89.9608 338.472C89.9608 339.139 89.6408 339.472 89.0008 339.472ZM91.1608 348.812H92.4808V350.432H90.9608C89.8541 350.432 88.9808 350.079 88.3408 349.372C87.7008 350.079 86.8274 350.432 85.7208 350.432H84.2008V348.812H85.5208C86.8274 348.812 87.4808 348.145 87.4808 346.812V342.672L89.2008 341.752V346.812C89.2008 348.145 89.8541 348.812 91.1608 348.812ZM102.271 337.492C101.684 337.492 101.391 337.192 101.391 336.592C101.391 336.005 101.684 335.712 102.271 335.712C102.858 335.712 103.151 336.005 103.151 336.592C103.151 337.192 102.858 337.492 102.271 337.492ZM101.011 339.872C100.358 339.872 100.031 339.539 100.031 338.872C100.031 338.219 100.358 337.892 101.011 337.892C101.651 337.892 101.971 338.219 101.971 338.872C101.971 339.539 101.651 339.872 101.011 339.872ZM103.551 339.872C102.898 339.872 102.571 339.539 102.571 338.872C102.571 338.219 102.898 337.892 103.551 337.892C104.191 337.892 104.511 338.219 104.511 338.872C104.511 339.539 104.191 339.872 103.551 339.872ZM91.2711 350.432V348.812H93.0711C94.3644 348.812 95.0111 348.145 95.0111 346.812V344.012L96.7311 343.092V346.812C96.7311 348.145 97.3844 348.812 98.6911 348.812H99.6111C100.918 348.812 101.571 348.145 101.571 346.812V343.332L103.291 342.432V346.812C103.291 348.145 103.938 348.812 105.231 348.812H106.171C107.478 348.812 108.131 348.145 108.131 346.812V342.672L109.851 341.752V346.632C109.851 348.085 110.544 348.812 111.931 348.812H113.591V350.432H111.791C110.591 350.432 109.678 350.025 109.051 349.212C108.491 350.012 107.618 350.419 106.431 350.432H105.051C103.878 350.432 103.004 350.039 102.431 349.252C101.858 350.025 101.004 350.419 99.8711 350.432H98.4911C97.3444 350.432 96.4711 350.039 95.8711 349.252C95.2978 350.039 94.4244 350.432 93.2511 350.432H91.2711ZM113.924 339.332C113.271 339.332 112.944 338.999 112.944 338.332C112.944 337.679 113.271 337.352 113.924 337.352C114.564 337.352 114.884 337.679 114.884 338.332C114.884 338.999 114.564 339.332 113.924 339.332ZM116.464 339.332C115.811 339.332 115.484 338.999 115.484 338.332C115.484 337.679 115.811 337.352 116.464 337.352C117.104 337.352 117.424 337.679 117.424 338.332C117.424 338.999 117.104 339.332 116.464 339.332ZM112.384 350.432V348.812H113.704C115.011 348.812 115.664 348.145 115.664 346.812V342.672L117.384 341.752V346.872C117.384 348.005 117.044 348.899 116.364 349.552C115.738 350.139 114.918 350.432 113.904 350.432H112.384ZM125.896 349.792C125.389 349.992 124.769 350.092 124.036 350.092C122.849 350.092 121.916 349.645 121.236 348.752C120.662 347.992 120.376 347.039 120.376 345.892C120.376 344.479 120.756 343.372 121.516 342.572C122.196 341.852 123.089 341.492 124.196 341.492C125.329 341.492 126.202 341.845 126.816 342.552C127.362 343.179 127.636 343.999 127.636 345.012V349.372C127.636 350.879 127.242 352.072 126.456 352.952C125.709 353.779 124.716 354.192 123.476 354.192C122.649 354.192 121.869 353.999 121.136 353.612V352.092C121.842 352.465 122.542 352.652 123.236 352.652C124.022 352.652 124.649 352.399 125.116 351.892C125.582 351.399 125.842 350.699 125.896 349.792ZM125.896 345.092C125.896 343.759 125.329 343.092 124.196 343.092C123.529 343.092 123.002 343.339 122.616 343.832C122.242 344.325 122.056 344.999 122.056 345.852C122.056 346.692 122.236 347.365 122.596 347.872C122.969 348.365 123.469 348.612 124.096 348.612C124.976 348.612 125.576 348.365 125.896 347.872V345.092ZM153.571 339.132C152.918 339.132 152.591 338.799 152.591 338.132C152.591 337.479 152.918 337.152 153.571 337.152C154.211 337.152 154.531 337.479 154.531 338.132C154.531 338.799 154.211 339.132 153.571 339.132ZM156.111 339.132C155.458 339.132 155.131 338.799 155.131 338.132C155.131 337.479 155.458 337.152 156.111 337.152C156.751 337.152 157.071 337.479 157.071 338.132C157.071 338.799 156.751 339.132 156.111 339.132ZM159.831 348.812H161.151V350.432H159.631C158.258 350.432 157.271 349.925 156.671 348.912C156.031 349.525 155.238 349.832 154.291 349.832C153.118 349.832 152.185 349.392 151.491 348.512C150.918 347.765 150.631 346.852 150.631 345.772C150.631 344.479 151.025 343.439 151.811 342.652C152.478 341.972 153.291 341.632 154.251 341.632C154.985 341.632 155.618 341.819 156.151 342.192V341.332L157.891 340.412V346.812C157.891 348.145 158.538 348.812 159.831 348.812ZM156.151 344.052C155.658 343.505 155.051 343.232 154.331 343.232C153.745 343.232 153.265 343.472 152.891 343.952C152.518 344.419 152.331 345.032 152.331 345.792C152.331 346.565 152.518 347.185 152.891 347.652C153.265 348.119 153.751 348.352 154.351 348.352C155.098 348.352 155.711 348.045 156.191 347.432C156.165 347.192 156.151 347.005 156.151 346.872V344.052ZM163.899 341.972C163.912 341.972 163.932 341.972 163.959 341.972C163.985 341.972 164.005 341.972 164.019 341.972C165.525 341.972 166.745 342.439 167.679 343.372C168.532 344.212 168.959 345.285 168.959 346.592V346.932C168.959 348.079 168.605 348.972 167.899 349.612C167.272 350.159 166.465 350.432 165.479 350.432H159.959V348.812H165.319C166.599 348.812 167.239 348.139 167.239 346.792V346.612C167.239 345.625 166.852 344.865 166.079 344.332C165.465 343.919 164.719 343.712 163.839 343.712C163.132 343.712 162.419 343.839 161.699 344.092V342.392L166.079 337.532H167.839L163.899 341.972ZM176.868 348.812H178.188V350.432H176.668C175.988 350.432 175.401 350.299 174.908 350.032C174.788 351.352 174.328 352.405 173.528 353.192C172.795 353.912 171.875 354.272 170.768 354.272C169.968 354.272 169.188 354.072 168.428 353.672V352.172C169.108 352.545 169.788 352.732 170.468 352.732C171.321 352.732 171.988 352.445 172.468 351.872C172.948 351.299 173.188 350.505 173.188 349.492V342.672L174.908 341.752V341.772L174.928 341.752V347.212C175.048 348.279 175.695 348.812 176.868 348.812ZM190.03 348.812H191.33V350.432H190.01C188.93 350.432 188.063 350.312 187.41 350.072C186.757 349.819 186.15 349.379 185.59 348.752C183.91 349.872 181.95 350.432 179.71 350.432H176.99V348.812H179.73C182.437 348.812 184.577 347.919 186.15 346.132C185.043 344.092 183.697 343.072 182.11 343.072C181.03 343.072 179.917 343.645 178.77 344.792V343.192C179.89 342.059 181.077 341.492 182.33 341.492C183.357 341.492 184.35 341.865 185.31 342.612C186.27 343.345 187.117 344.399 187.85 345.772V346.652C187.437 347.172 187.043 347.592 186.67 347.912C187.39 348.512 188.51 348.812 190.03 348.812ZM190.134 350.432V348.812H191.194C192.581 348.812 193.274 348.085 193.274 346.632V338.452L195.014 337.532V346.652C195.014 347.839 194.661 348.779 193.954 349.472C193.288 350.112 192.414 350.432 191.334 350.432H190.134ZM198.609 350.432V338.452L200.329 337.532V350.432H198.609ZM228.638 344.852C230.158 342.612 232.045 341.492 234.298 341.492C235.805 341.492 237.011 342.019 237.918 343.072C238.691 343.965 239.078 345.065 239.078 346.372V347.012C239.078 348.105 238.811 348.952 238.278 349.552C237.745 350.139 236.985 350.432 235.998 350.432H223.318L224.178 348.812H226.858L226.918 348.592V338.452L228.638 337.532V344.852ZM237.338 346.932V346.372C237.338 345.332 237.018 344.505 236.378 343.892C235.831 343.359 235.145 343.092 234.318 343.092C232.945 343.092 231.705 343.712 230.598 344.952C229.771 345.885 229.118 347.052 228.638 348.452V348.812H235.858C236.431 348.812 236.818 348.679 237.018 348.412C237.231 348.145 237.338 347.652 237.338 346.932ZM247.177 348.812H248.497V350.432H246.977C246.297 350.432 245.71 350.299 245.217 350.032C245.097 351.352 244.637 352.405 243.837 353.192C243.103 353.912 242.183 354.272 241.077 354.272C240.277 354.272 239.497 354.072 238.737 353.672V352.172C239.417 352.545 240.097 352.732 240.777 352.732C241.63 352.732 242.297 352.445 242.777 351.872C243.257 351.299 243.497 350.505 243.497 349.492V342.672L245.217 341.752V341.772L245.237 341.752V347.212C245.357 348.279 246.003 348.812 247.177 348.812ZM253.818 339.452C253.165 339.452 252.838 339.119 252.838 338.452C252.838 337.799 253.165 337.472 253.818 337.472C254.458 337.472 254.778 337.799 254.778 338.452C254.778 339.119 254.458 339.452 253.818 339.452ZM247.298 350.432V348.812H250.898C250.285 348.132 249.978 347.185 249.978 345.972C249.978 344.519 250.358 343.385 251.118 342.572C251.785 341.852 252.672 341.492 253.778 341.492C254.912 341.492 255.792 341.845 256.418 342.552C256.952 343.179 257.218 343.999 257.218 345.012V346.912C257.205 348.019 256.878 348.892 256.238 349.532C255.612 350.132 254.778 350.432 253.738 350.432H247.298ZM255.498 345.092C255.498 343.759 254.925 343.092 253.778 343.092C253.125 343.092 252.612 343.345 252.238 343.852C251.865 344.345 251.678 345.039 251.678 345.932C251.678 346.812 251.858 347.512 252.218 348.032C252.578 348.552 253.058 348.812 253.658 348.812C254.885 348.812 255.498 348.172 255.498 346.892V345.092ZM284.753 350.432C283.673 350.432 282.827 350.072 282.213 349.352C281.68 348.725 281.413 347.905 281.413 346.892V344.472L283.133 343.552V346.732C283.133 348.119 283.78 348.812 285.073 348.812H291.713C293.007 348.812 293.653 348.119 293.653 346.732V342.672L295.373 341.752V346.892C295.373 348.052 295.02 348.952 294.313 349.592C293.687 350.152 292.88 350.432 291.893 350.432H284.753ZM288.053 354.412C287.4 354.412 287.073 354.079 287.073 353.412C287.073 352.759 287.4 352.432 288.053 352.432C288.693 352.432 289.013 352.759 289.013 353.412C289.013 354.079 288.693 354.412 288.053 354.412ZM298.972 350.432V338.452L300.692 337.532V350.432H298.972ZM310.493 348.812H311.813V350.432H310.293C309.613 350.432 309.026 350.299 308.533 350.032C308.413 351.352 307.953 352.405 307.153 353.192C306.42 353.912 305.5 354.272 304.393 354.272C303.593 354.272 302.813 354.072 302.053 353.672V352.172C302.733 352.545 303.413 352.732 304.093 352.732C304.946 352.732 305.613 352.445 306.093 351.872C306.573 351.299 306.813 350.505 306.813 349.492V342.672L308.533 341.752V341.772L308.553 341.752V347.212C308.673 348.279 309.32 348.812 310.493 348.812ZM328.495 348.812H329.815V350.432H328.295C327.228 350.432 326.395 350.119 325.795 349.492C325.248 350.119 324.475 350.432 323.475 350.432H310.615V348.812H314.335L314.395 348.592V338.452L316.115 337.532V344.852C317.635 342.612 319.522 341.492 321.775 341.492C323.282 341.492 324.488 342.019 325.395 343.072C326.168 343.965 326.555 345.065 326.555 346.372V346.852C326.555 348.159 327.202 348.812 328.495 348.812ZM324.815 346.932V346.372C324.815 345.332 324.495 344.505 323.855 343.892C323.308 343.359 322.622 343.092 321.795 343.092C320.422 343.092 319.182 343.712 318.075 344.952C317.248 345.885 316.595 347.052 316.115 348.452V348.812H323.335C323.908 348.812 324.295 348.679 324.495 348.412C324.708 348.145 324.815 347.652 324.815 346.932ZM342.703 339.332C342.049 339.332 341.723 338.999 341.723 338.332C341.723 337.679 342.049 337.352 342.703 337.352C343.343 337.352 343.663 337.679 343.663 338.332C343.663 338.999 343.343 339.332 342.703 339.332ZM334.923 348.752C335.456 346.739 336.336 345.059 337.563 343.712C338.936 342.232 340.536 341.492 342.363 341.492C343.883 341.492 345.096 342.019 346.003 343.072C346.763 343.965 347.143 345.065 347.143 346.372V346.892C347.143 348.052 346.789 348.952 346.083 349.592C345.469 350.152 344.663 350.432 343.663 350.432H335.383C334.276 350.432 333.403 350.079 332.763 349.372C332.123 350.079 331.249 350.432 330.143 350.432H328.623V348.812H329.943C331.249 348.812 331.903 348.145 331.903 346.812V344.012L333.623 343.092V346.812C333.623 347.932 334.056 348.579 334.923 348.752ZM345.423 346.732V346.372C345.423 345.332 345.103 344.505 344.463 343.892C343.903 343.359 343.209 343.092 342.383 343.092C340.969 343.092 339.696 343.745 338.563 345.052C337.696 346.052 337.029 347.305 336.563 348.812H343.563C344.803 348.812 345.423 348.119 345.423 346.732ZM353.819 350.432C352.659 350.432 351.766 350.059 351.139 349.312C350.606 348.672 350.339 347.859 350.339 346.872V338.452L352.059 337.532V346.812C352.059 348.145 352.712 348.812 354.019 348.812H355.339V350.432H353.819ZM350.059 355.412L350.519 354.552H351.059C350.926 354.312 350.859 354.059 350.859 353.792C350.859 353.405 351.006 353.065 351.299 352.772C351.592 352.492 351.939 352.352 352.339 352.352C352.672 352.352 352.992 352.459 353.299 352.672V353.552C353.006 353.325 352.726 353.212 352.459 353.212C351.966 353.212 351.719 353.432 351.719 353.872C351.719 354.099 351.812 354.325 351.999 354.552H353.819L353.359 355.412H350.059ZM354.13 350.432V348.812H357.65V350.432H354.13ZM356.455 350.432V348.812H357.775C359.081 348.812 359.735 348.145 359.735 346.812V342.672L361.455 341.752V346.872C361.455 348.005 361.115 348.899 360.435 349.552C359.808 350.139 358.988 350.432 357.975 350.432H356.455ZM359.675 354.412C359.021 354.412 358.695 354.079 358.695 353.412C358.695 352.759 359.021 352.432 359.675 352.432C360.315 352.432 360.635 352.759 360.635 353.412C360.635 354.079 360.315 354.412 359.675 354.412ZM78.7939 379.172C78.7939 380.759 78.2406 382.025 77.1339 382.972C76.1606 383.812 74.9206 384.232 73.4139 384.232C71.6272 384.232 70.2472 383.632 69.2739 382.432C68.5272 381.499 68.1539 380.385 68.1539 379.092C68.1539 377.959 68.4272 376.992 68.9739 376.192L70.6939 375.812C70.0806 376.759 69.7739 377.792 69.7739 378.912C69.7739 380.019 70.1272 380.925 70.8339 381.632C71.4872 382.285 72.3472 382.612 73.4139 382.612C74.6272 382.612 75.5606 382.252 76.2139 381.532C76.7739 380.919 77.0539 380.132 77.0539 379.172V368.452L78.7939 367.532V379.172ZM93.5016 378.812H94.8216V380.432H93.3016C92.1549 380.432 91.2682 380.065 90.6416 379.332C89.9749 380.065 89.0549 380.432 87.8816 380.432H81.0016L81.8416 378.812H84.7616V371.052L86.4816 370.132V378.812H87.7416C89.1282 378.812 89.8216 378.085 89.8216 376.632V368.452L91.5616 367.532V376.652C91.5616 377.425 91.7082 377.979 92.0016 378.312C92.3082 378.645 92.8082 378.812 93.5016 378.812ZM99.6748 369.332C99.0215 369.332 98.6948 368.999 98.6948 368.332C98.6948 367.679 99.0215 367.352 99.6748 367.352C100.315 367.352 100.635 367.679 100.635 368.332C100.635 368.999 100.315 369.332 99.6748 369.332ZM93.6148 380.432V378.812H96.3548C99.0615 378.812 101.202 377.919 102.775 376.132C101.668 374.092 100.322 373.072 98.7348 373.072C97.6548 373.072 96.5415 373.645 95.3948 374.792V373.192C96.5148 372.059 97.7015 371.492 98.9548 371.492C99.9815 371.492 100.975 371.865 101.935 372.612C102.895 373.345 103.742 374.399 104.475 375.772V376.652C102.515 379.172 99.8015 380.432 96.3348 380.432H93.6148ZM127.8 371.412C127.147 371.412 126.82 371.079 126.82 370.412C126.82 369.759 127.147 369.432 127.8 369.432C128.44 369.432 128.76 369.759 128.76 370.412C128.76 371.079 128.44 371.412 127.8 371.412ZM135.1 378.812H136.42V380.432H134.9C134.207 380.432 133.607 380.292 133.1 380.012C132.94 381.372 132.347 382.432 131.32 383.192C130.4 383.885 129.26 384.232 127.9 384.232C126.167 384.232 124.82 383.619 123.86 382.392C123.127 381.445 122.76 380.325 122.76 379.032C122.76 377.912 123.04 376.952 123.6 376.152L125.26 375.792C124.66 376.739 124.36 377.759 124.36 378.852C124.36 379.972 124.707 380.892 125.4 381.612C126.054 382.279 126.887 382.612 127.9 382.612C129.074 382.612 129.98 382.272 130.62 381.592C131.154 381.019 131.42 380.272 131.42 379.352V372.672L133.14 371.752V376.812C133.14 378.145 133.794 378.812 135.1 378.812ZM138.493 375.012C138.493 373.852 138.84 372.952 139.533 372.312C140.147 371.765 140.947 371.492 141.933 371.492C143.2 371.492 144.173 371.959 144.853 372.892C145.44 373.679 145.733 374.705 145.733 375.972C145.733 377.412 145.36 378.539 144.613 379.352C143.96 380.072 143.107 380.432 142.053 380.432C140.853 380.432 139.94 380.099 139.313 379.432C138.673 380.099 137.813 380.432 136.733 380.432H135.213V378.812H136.533C137.84 378.812 138.493 378.145 138.493 376.812V375.012ZM140.213 376.952C140.213 378.192 140.82 378.812 142.033 378.812C142.66 378.812 143.147 378.559 143.493 378.052C143.853 377.545 144.033 376.839 144.033 375.932C144.033 375.039 143.847 374.345 143.473 373.852C143.1 373.345 142.587 373.092 141.933 373.092C140.787 373.092 140.213 373.759 140.213 375.092V376.952ZM180.815 378.812H182.135V380.432H180.615C179.495 380.432 178.629 380.085 178.015 379.392C177.362 380.085 176.489 380.432 175.395 380.432H168.255C167.175 380.432 166.329 380.072 165.715 379.352C165.182 378.725 164.915 377.905 164.915 376.892V374.472L166.635 373.552V376.732C166.635 378.119 167.282 378.812 168.575 378.812H175.215C176.495 378.812 177.135 378.119 177.135 376.732V368.452L178.875 367.532V376.812C178.875 378.145 179.522 378.812 180.815 378.812ZM171.995 370.692C173.142 370.745 173.715 371.312 173.715 372.392C173.715 372.859 173.575 373.232 173.295 373.512C173.029 373.792 172.669 373.932 172.215 373.932H169.575L170.035 373.072H172.135C172.615 373.072 172.855 372.832 172.855 372.352C172.855 371.765 172.482 371.472 171.735 371.472C171.349 371.472 170.995 371.565 170.675 371.752V370.952L172.355 369.092H173.415L171.995 370.692ZM180.933 380.432V378.812H181.993C183.38 378.812 184.073 378.085 184.073 376.632V368.452L185.813 367.532V376.652C185.813 377.839 185.46 378.779 184.753 379.472C184.087 380.112 183.213 380.432 182.133 380.432H180.933ZM192.147 369.332C191.494 369.332 191.167 368.999 191.167 368.332C191.167 367.679 191.494 367.352 192.147 367.352C192.787 367.352 193.107 367.679 193.107 368.332C193.107 368.999 192.787 369.332 192.147 369.332ZM187.807 380.432L188.647 378.812H192.207C192.741 378.812 193.114 378.679 193.327 378.412C193.554 378.145 193.667 377.685 193.667 377.032C193.667 375.245 192.861 373.892 191.247 372.972L192.087 371.552C194.287 372.805 195.387 374.639 195.387 377.052C195.387 379.305 194.427 380.432 192.507 380.432H187.807ZM203.507 379.792C203 379.992 202.38 380.092 201.647 380.092C200.46 380.092 199.527 379.645 198.847 378.752C198.274 377.992 197.987 377.039 197.987 375.892C197.987 374.479 198.367 373.372 199.127 372.572C199.807 371.852 200.7 371.492 201.807 371.492C202.94 371.492 203.814 371.845 204.427 372.552C204.974 373.179 205.247 373.999 205.247 375.012V379.372C205.247 380.879 204.854 382.072 204.067 382.952C203.32 383.779 202.327 384.192 201.087 384.192C200.26 384.192 199.48 383.999 198.747 383.612V382.092C199.454 382.465 200.154 382.652 200.847 382.652C201.634 382.652 202.26 382.399 202.727 381.892C203.194 381.399 203.454 380.699 203.507 379.792ZM203.507 375.092C203.507 373.759 202.94 373.092 201.807 373.092C201.14 373.092 200.614 373.339 200.227 373.832C199.854 374.325 199.667 374.999 199.667 375.852C199.667 376.692 199.847 377.365 200.207 377.872C200.58 378.365 201.08 378.612 201.707 378.612C202.587 378.612 203.187 378.365 203.507 377.872V375.092ZM225.382 378.092C226.115 378.092 226.495 378.472 226.522 379.232C226.522 379.605 226.402 379.919 226.162 380.172C225.935 380.412 225.635 380.532 225.262 380.532C224.435 380.532 224.022 380.025 224.022 379.012V376.432L224.862 376.192L224.882 378.092H225.382ZM232.304 367.532H233.844C232.057 369.959 231.164 372.552 231.164 375.312C231.164 376.699 231.417 378.139 231.924 379.632C232.431 381.125 233.071 382.325 233.844 383.232H232.304C231.517 382.485 230.844 381.339 230.284 379.792C229.724 378.245 229.444 376.752 229.444 375.312C229.444 373.925 229.711 372.499 230.244 371.032C230.791 369.565 231.477 368.399 232.304 367.532ZM239.867 367.772H241.627L246.207 380.432H244.307L243.347 377.572H238.167L237.187 380.432H235.287L239.867 367.772ZM240.747 370.012L238.687 376.032H242.807L240.747 370.012ZM248.311 367.792C249.311 367.619 250.371 367.532 251.491 367.532C253.691 367.532 255.377 368.192 256.551 369.512C257.551 370.632 258.051 372.119 258.051 373.972C258.051 376.225 257.424 377.939 256.171 379.112C255.064 380.152 253.544 380.672 251.611 380.672C250.411 380.672 249.311 380.585 248.311 380.412V367.792ZM250.171 379.052C250.597 379.145 251.077 379.192 251.611 379.192C253.117 379.192 254.257 378.712 255.031 377.752C255.737 376.872 256.091 375.639 256.091 374.052C256.091 372.345 255.597 371.039 254.611 370.132C253.811 369.385 252.791 369.012 251.551 369.012C251.004 369.012 250.544 369.059 250.171 369.152V379.052ZM262.69 380.432H260.85V367.772H262.69V373.092H268.79V367.772H270.65V380.432H268.79V374.632H262.69V380.432ZM274.248 367.792C275.248 367.619 276.308 367.532 277.428 367.532C279.628 367.532 281.315 368.192 282.488 369.512C283.488 370.632 283.988 372.119 283.988 373.972C283.988 376.225 283.362 377.939 282.108 379.112C281.002 380.152 279.482 380.672 277.548 380.672C276.348 380.672 275.248 380.585 274.248 380.412V367.792ZM276.108 379.052C276.535 379.145 277.015 379.192 277.548 379.192C279.055 379.192 280.195 378.712 280.968 377.752C281.675 376.872 282.028 375.639 282.028 374.052C282.028 372.345 281.535 371.039 280.548 370.132C279.748 369.385 278.728 369.012 277.488 369.012C276.942 369.012 276.482 369.059 276.108 369.152V379.052ZM286.127 367.532H287.667C288.494 368.399 289.174 369.565 289.707 371.032C290.254 372.499 290.527 373.925 290.527 375.312C290.527 377.259 290.094 379.119 289.227 380.892C288.707 381.972 288.187 382.752 287.667 383.232H286.127C286.901 382.325 287.541 381.125 288.047 379.632C288.554 378.139 288.807 376.699 288.807 375.312C288.807 372.552 287.914 369.959 286.127 367.532ZM313.347 380.432C312.133 380.432 311.187 380.025 310.507 379.212C309.92 378.505 309.627 377.605 309.627 376.512C309.627 375.325 309.953 374.299 310.607 373.432C311.273 372.552 312.22 371.905 313.447 371.492C314.74 371.932 315.713 372.625 316.367 373.572C316.953 374.412 317.247 375.392 317.247 376.512C317.247 377.779 316.873 378.772 316.127 379.492C315.46 380.119 314.6 380.432 313.547 380.432H313.347ZM313.287 378.812H313.587C314.187 378.812 314.66 378.605 315.007 378.192C315.367 377.779 315.547 377.225 315.547 376.532C315.547 374.932 314.847 373.785 313.447 373.092C312.047 373.785 311.347 374.925 311.347 376.512C311.347 377.219 311.52 377.779 311.867 378.192C312.213 378.605 312.687 378.812 313.287 378.812ZM323.936 380.432C322.776 380.432 321.883 380.059 321.256 379.312C320.723 378.672 320.456 377.859 320.456 376.872V368.452L322.176 367.532V376.812C322.176 378.145 322.83 378.812 324.136 378.812H325.456V380.432H323.936ZM331.208 378.812H332.528V380.432H331.008C329.901 380.432 329.028 380.079 328.388 379.372C327.748 380.079 326.874 380.432 325.768 380.432H324.248V378.812H325.568C326.874 378.812 327.528 378.145 327.528 376.812V372.672L329.248 371.752V376.812C329.248 378.145 329.901 378.812 331.208 378.812ZM328.268 382.432C328.908 382.432 329.228 382.759 329.228 383.412C329.228 384.079 328.908 384.412 328.268 384.412C327.614 384.412 327.288 384.079 327.288 383.412C327.288 382.759 327.614 382.432 328.268 382.432ZM333.558 369.472C332.905 369.472 332.578 369.139 332.578 368.472C332.578 367.819 332.905 367.492 333.558 367.492C334.198 367.492 334.518 367.819 334.518 368.472C334.518 369.139 334.198 369.472 333.558 369.472ZM336.118 369.472C335.465 369.472 335.138 369.139 335.138 368.472C335.138 367.819 335.465 367.492 336.118 367.492C336.758 367.492 337.078 367.819 337.078 368.472C337.078 369.139 336.758 369.472 336.118 369.472ZM338.278 378.812H339.598V380.432H338.078C336.971 380.432 336.098 380.079 335.458 379.372C334.818 380.079 333.945 380.432 332.838 380.432H331.318V378.812H332.638C333.945 378.812 334.598 378.145 334.598 376.812V372.672L336.318 371.752V376.812C336.318 378.145 336.971 378.812 338.278 378.812ZM342.468 369.332C341.815 369.332 341.488 368.999 341.488 368.332C341.488 367.679 341.815 367.352 342.468 367.352C343.108 367.352 343.428 367.679 343.428 368.332C343.428 368.999 343.108 369.332 342.468 369.332ZM338.388 380.432V378.812H339.708C341.015 378.812 341.668 378.145 341.668 376.812V372.672L343.388 371.752V376.872C343.388 378.005 343.048 378.899 342.368 379.552C341.742 380.139 340.922 380.432 339.908 380.432H338.388ZM354.4 368.452L356.14 367.532V376.652C356.14 377.839 355.786 378.779 355.08 379.472C354.413 380.112 353.54 380.432 352.46 380.432H345.58L346.42 378.812H349.34V371.052L351.06 370.132V378.812H352.32C353.706 378.812 354.4 378.085 354.4 376.632V368.452ZM359.734 380.432V368.452L361.454 367.532V380.432H359.734ZM72.4739 404.852C73.9939 402.612 75.8806 401.492 78.1339 401.492C79.6406 401.492 80.8472 402.019 81.7539 403.072C82.5272 403.965 82.9139 405.065 82.9139 406.372V407.012C82.9139 408.105 82.6472 408.952 82.1139 409.552C81.5806 410.139 80.8206 410.432 79.8339 410.432H67.1539L68.0139 408.812H70.6939L70.7539 408.592V398.452L72.4739 397.532V404.852ZM81.1739 406.932V406.372C81.1739 405.332 80.8539 404.505 80.2139 403.892C79.6672 403.359 78.9806 403.092 78.1539 403.092C76.7806 403.092 75.5406 403.712 74.4339 404.952C73.6072 405.885 72.9539 407.052 72.4739 408.452V408.812H79.6939C80.2672 408.812 80.6539 408.679 80.8539 408.412C81.0672 408.145 81.1739 407.652 81.1739 406.932ZM89.5925 410.432C88.4325 410.432 87.5392 410.059 86.9125 409.312C86.3792 408.672 86.1125 407.859 86.1125 406.872V398.452L87.8325 397.532V406.812C87.8325 408.145 88.4858 408.812 89.7925 408.812H91.1125V410.432H89.5925ZM102.784 408.812H104.124V410.432H102.604C101.497 410.432 100.624 410.079 99.9839 409.372C99.3039 410.345 98.3106 410.832 97.0039 410.832C95.6972 410.832 94.7106 410.352 94.0439 409.392C93.4172 410.085 92.5439 410.432 91.4239 410.432H89.9039V408.812H91.2239C92.5306 408.812 93.1839 408.145 93.1839 406.812V406.152C93.1839 404.605 93.5639 403.419 94.3239 402.592C94.9906 401.859 95.8839 401.492 97.0039 401.492C98.2839 401.492 99.2706 401.965 99.9639 402.912C100.551 403.725 100.844 404.805 100.844 406.152V406.812C100.844 408.145 101.491 408.812 102.784 408.812ZM97.0039 409.212C97.6572 409.212 98.1706 408.939 98.5439 408.392C98.9306 407.845 99.1239 407.092 99.1239 406.132C99.1239 404.105 98.4172 403.092 97.0039 403.092C95.6039 403.092 94.9039 404.105 94.9039 406.132C94.9039 408.185 95.6039 409.212 97.0039 409.212ZM107.011 399.332C106.358 399.332 106.031 398.999 106.031 398.332C106.031 397.679 106.358 397.352 107.011 397.352C107.651 397.352 107.971 397.679 107.971 398.332C107.971 398.999 107.651 399.332 107.011 399.332ZM102.931 410.432V408.812H104.251C105.558 408.812 106.211 408.145 106.211 406.812V402.672L107.931 401.752V406.872C107.931 408.005 107.591 408.899 106.911 409.552C106.285 410.139 105.465 410.432 104.451 410.432H102.931ZM110.463 397.252L110.923 396.392H111.463C111.329 396.152 111.263 395.905 111.263 395.652C111.263 395.252 111.409 394.912 111.703 394.632C111.996 394.339 112.343 394.192 112.743 394.192C113.076 394.192 113.396 394.299 113.703 394.512V395.392C113.409 395.165 113.129 395.052 112.863 395.052C112.369 395.052 112.123 395.272 112.123 395.712C112.123 395.939 112.216 396.165 112.403 396.392H114.223L113.763 397.252H110.463ZM111.523 410.432V399.252L113.243 398.332V410.432H111.523ZM133.446 408.812H134.786V410.432H133.266C132.186 410.432 131.326 410.099 130.686 409.432C130.059 410.072 129.172 410.405 128.026 410.432H125.406C124.099 410.432 123.446 411.099 123.446 412.432V415.812L121.726 416.732V412.372C121.726 411.265 122.046 410.392 122.686 409.752C123.259 409.165 124.019 408.852 124.966 408.812C124.486 408.039 124.246 407.092 124.246 405.972C124.246 404.519 124.626 403.385 125.386 402.572C126.066 401.852 126.959 401.492 128.066 401.492C129.199 401.492 130.072 401.845 130.686 402.552C131.232 403.179 131.506 403.999 131.506 405.012V406.812C131.506 408.145 132.152 408.812 133.446 408.812ZM129.786 406.952V405.092C129.786 403.759 129.212 403.092 128.066 403.092C127.399 403.092 126.879 403.345 126.506 403.852C126.146 404.345 125.966 405.039 125.966 405.932C125.966 406.839 126.139 407.545 126.486 408.052C126.832 408.559 127.319 408.812 127.946 408.812C129.172 408.812 129.786 408.192 129.786 406.952ZM133.577 410.432V408.812H135.377C136.671 408.812 137.317 408.145 137.317 406.812V404.012L139.037 403.092V406.812C139.037 408.145 139.691 408.812 140.997 408.812H141.917C143.224 408.812 143.877 408.145 143.877 406.812V403.332L145.597 402.432V406.812C145.597 408.145 146.244 408.812 147.537 408.812H148.477C149.784 408.812 150.437 408.145 150.437 406.812V402.672L152.157 401.752V406.872C152.157 408.005 151.817 408.892 151.137 409.532C150.537 410.119 149.737 410.419 148.737 410.432H147.357C146.184 410.432 145.311 410.039 144.737 409.252C144.164 410.025 143.311 410.419 142.177 410.432H140.797C139.651 410.432 138.777 410.039 138.177 409.252C137.604 410.039 136.731 410.432 135.557 410.432H133.577ZM158.723 409.372C158.723 410.865 158.329 412.065 157.543 412.972C156.796 413.839 155.803 414.272 154.563 414.272C153.763 414.272 152.983 414.072 152.223 413.672V412.172C152.903 412.545 153.583 412.732 154.263 412.732C155.116 412.732 155.783 412.445 156.263 411.872C156.743 411.299 156.983 410.505 156.983 409.492V402.672L158.723 401.752V409.372ZM170.356 399.132C169.702 399.132 169.376 398.799 169.376 398.132C169.376 397.479 169.702 397.152 170.356 397.152C170.996 397.152 171.316 397.479 171.316 398.132C171.316 398.799 170.996 399.132 170.356 399.132ZM172.896 399.132C172.242 399.132 171.916 398.799 171.916 398.132C171.916 397.479 172.242 397.152 172.896 397.152C173.536 397.152 173.856 397.479 173.856 398.132C173.856 398.799 173.536 399.132 172.896 399.132ZM176.616 408.812H177.936V410.432H176.416C175.042 410.432 174.056 409.925 173.456 408.912C172.816 409.525 172.022 409.832 171.076 409.832C169.902 409.832 168.969 409.392 168.276 408.512C167.702 407.765 167.416 406.852 167.416 405.772C167.416 404.479 167.809 403.439 168.596 402.652C169.262 401.972 170.076 401.632 171.036 401.632C171.769 401.632 172.402 401.819 172.936 402.192V401.332L174.676 400.412V406.812C174.676 408.145 175.322 408.812 176.616 408.812ZM172.936 404.052C172.442 403.505 171.836 403.232 171.116 403.232C170.529 403.232 170.049 403.472 169.676 403.952C169.302 404.419 169.116 405.032 169.116 405.792C169.116 406.565 169.302 407.185 169.676 407.652C170.049 408.119 170.536 408.352 171.136 408.352C171.882 408.352 172.496 408.045 172.976 407.432C172.949 407.192 172.936 407.005 172.936 406.872V404.052ZM194.623 408.812H195.943V410.432H194.423C193.356 410.432 192.523 410.119 191.923 409.492C191.376 410.119 190.603 410.432 189.603 410.432H176.743V408.812H180.463L180.523 408.592V398.452L182.243 397.532V404.852C183.763 402.612 185.65 401.492 187.903 401.492C189.41 401.492 190.616 402.019 191.523 403.072C192.296 403.965 192.683 405.065 192.683 406.372V406.852C192.683 408.159 193.33 408.812 194.623 408.812ZM190.943 406.932V406.372C190.943 405.332 190.623 404.505 189.983 403.892C189.436 403.359 188.75 403.092 187.923 403.092C186.55 403.092 185.31 403.712 184.203 404.952C183.376 405.885 182.723 407.052 182.243 408.452V408.812H189.463C190.036 408.812 190.423 408.679 190.623 408.412C190.836 408.145 190.943 407.652 190.943 406.932ZM194.751 410.432V408.812H196.551C197.844 408.812 198.491 408.145 198.491 406.812V404.012L200.211 403.092V406.812C200.211 408.145 200.864 408.812 202.171 408.812H203.091C204.397 408.812 205.051 408.145 205.051 406.812V403.332L206.771 402.432V406.812C206.771 408.145 207.417 408.812 208.711 408.812H209.651C210.957 408.812 211.611 408.145 211.611 406.812V402.672L213.331 401.752V406.872C213.331 408.005 212.991 408.892 212.311 409.532C211.711 410.119 210.911 410.419 209.911 410.432H208.531C207.357 410.432 206.484 410.039 205.911 409.252C205.337 410.025 204.484 410.419 203.351 410.432H201.971C200.824 410.432 199.951 410.039 199.351 409.252C198.777 410.039 197.904 410.432 196.731 410.432H194.751ZM216.936 410.432V398.452L218.656 397.532V410.432H216.936ZM231.588 408.812V410.432H229.108C229.055 411.579 228.562 412.525 227.628 413.272C226.842 413.885 225.948 414.192 224.948 414.192C224.122 414.192 223.342 413.999 222.608 413.612V412.092C223.315 412.465 224.015 412.652 224.708 412.652C225.415 412.652 226.028 412.432 226.548 411.992C227.082 411.552 227.355 411.025 227.368 410.412C226.675 410.385 226.162 410.359 225.828 410.332C224.388 410.252 223.302 409.765 222.568 408.872C221.955 408.125 221.648 407.159 221.648 405.972C221.648 404.519 222.035 403.385 222.808 402.572C223.502 401.852 224.415 401.492 225.548 401.492C226.735 401.492 227.648 401.845 228.288 402.552C228.835 403.179 229.108 403.999 229.108 405.012V408.812H231.588ZM227.368 405.132C227.368 403.772 226.762 403.092 225.548 403.092C224.855 403.092 224.315 403.345 223.928 403.852C223.542 404.345 223.348 405.039 223.348 405.932C223.348 407.679 224.202 408.605 225.908 408.712C226.228 408.752 226.715 408.785 227.368 408.812V405.132ZM230.395 410.432V408.812H231.715C233.022 408.812 233.675 408.145 233.675 406.812V402.672L235.395 401.752V406.872C235.395 408.005 235.055 408.899 234.375 409.552C233.749 410.139 232.929 410.432 231.915 410.432H230.395ZM233.615 414.412C232.962 414.412 232.635 414.079 232.635 413.412C232.635 412.759 232.962 412.432 233.615 412.432C234.255 412.432 234.575 412.759 234.575 413.412C234.575 414.079 234.255 414.412 233.615 414.412ZM243.677 410.432L244.517 408.812H248.077C248.611 408.812 248.984 408.679 249.197 408.412C249.424 408.145 249.537 407.685 249.537 407.032C249.537 405.259 248.717 403.925 247.077 403.032L247.957 401.552C250.051 402.779 251.144 404.472 251.237 406.632C251.264 407.405 251.437 407.965 251.757 408.312C252.091 408.645 252.617 408.812 253.337 408.812H254.517V410.432H253.197C252.091 410.432 251.224 410.079 250.597 409.372C250.157 410.079 249.417 410.432 248.377 410.432H243.677ZM260.287 408.812H261.607V410.432H260.087C258.98 410.432 258.107 410.079 257.467 409.372C256.827 410.079 255.953 410.432 254.847 410.432H253.327V408.812H254.647C255.953 408.812 256.607 408.145 256.607 406.812V402.672L258.327 401.752V406.812C258.327 408.145 258.98 408.812 260.287 408.812ZM255.507 412.432C256.147 412.432 256.467 412.765 256.467 413.432C256.467 414.085 256.147 414.412 255.507 414.412C254.853 414.412 254.527 414.085 254.527 413.432C254.527 412.765 254.853 412.432 255.507 412.432ZM258.047 412.432C258.687 412.432 259.007 412.765 259.007 413.432C259.007 414.085 258.687 414.412 258.047 414.412C257.393 414.412 257.067 414.085 257.067 413.432C257.067 412.765 257.393 412.432 258.047 412.432ZM260.397 410.432V408.812H261.457C262.844 408.812 263.537 408.085 263.537 406.632V398.452L265.277 397.532V406.652C265.277 407.839 264.924 408.779 264.217 409.472C263.55 410.112 262.677 410.432 261.597 410.432H260.397ZM268.871 410.432V398.452L270.591 397.532V410.432H268.871ZM296.774 408.812H298.094V410.432H296.574C295.508 410.432 294.674 410.119 294.074 409.492C293.528 410.119 292.754 410.432 291.754 410.432H279.074L279.934 408.812H282.614L282.674 408.592V398.452L284.394 397.532V404.852C285.914 402.612 287.801 401.492 290.054 401.492C291.561 401.492 292.768 402.019 293.674 403.072C294.448 403.965 294.834 405.065 294.834 406.372V406.852C294.834 408.159 295.481 408.812 296.774 408.812ZM293.094 406.932V406.372C293.094 405.332 292.774 404.505 292.134 403.892C291.588 403.359 290.901 403.092 290.074 403.092C288.701 403.092 287.461 403.712 286.354 404.952C285.528 405.885 284.874 407.052 284.394 408.452V408.812H291.614C292.188 408.812 292.574 408.679 292.774 408.412C292.988 408.145 293.094 407.652 293.094 406.932ZM302.962 399.332C302.309 399.332 301.982 398.999 301.982 398.332C301.982 397.679 302.309 397.352 302.962 397.352C303.602 397.352 303.922 397.679 303.922 398.332C303.922 398.999 303.602 399.332 302.962 399.332ZM296.902 410.432V408.812H299.642C302.349 408.812 304.489 407.919 306.062 406.132C304.956 404.092 303.609 403.072 302.022 403.072C300.942 403.072 299.829 403.645 298.682 404.792V403.192C299.802 402.059 300.989 401.492 302.242 401.492C303.269 401.492 304.262 401.865 305.222 402.612C306.182 403.345 307.029 404.399 307.762 405.772V406.652C305.802 409.172 303.089 410.432 299.622 410.432H296.902ZM329.183 408.812H330.503V410.432H328.983C328.263 410.432 327.616 410.272 327.043 409.952C326.856 411.325 326.236 412.405 325.183 413.192C324.249 413.885 323.096 414.232 321.723 414.232C319.936 414.232 318.556 413.632 317.583 412.432C316.836 411.499 316.463 410.385 316.463 409.092C316.463 407.959 316.736 406.992 317.283 406.192L319.003 405.812C318.389 406.759 318.083 407.792 318.083 408.912C318.083 410.019 318.436 410.925 319.143 411.632C319.796 412.285 320.656 412.612 321.723 412.612C322.936 412.612 323.869 412.252 324.523 411.532C325.083 410.919 325.363 410.132 325.363 409.172V398.452L327.103 397.532V406.812C327.103 408.145 327.796 408.812 329.183 408.812ZM336.266 408.812H337.586V410.432H336.066C334.96 410.432 334.086 410.079 333.446 409.372C332.806 410.079 331.933 410.432 330.826 410.432H329.306V408.812H330.626C331.933 408.812 332.586 408.145 332.586 406.812V402.672L334.306 401.752V406.812C334.306 408.145 334.96 408.812 336.266 408.812ZM331.486 412.432C332.126 412.432 332.446 412.765 332.446 413.432C332.446 414.085 332.126 414.412 331.486 414.412C330.833 414.412 330.506 414.085 330.506 413.432C330.506 412.765 330.833 412.432 331.486 412.432ZM334.026 412.432C334.666 412.432 334.986 412.765 334.986 413.432C334.986 414.085 334.666 414.412 334.026 414.412C333.373 414.412 333.046 414.085 333.046 413.432C333.046 412.765 333.373 412.432 334.026 412.432ZM343.197 408.812H344.517V410.432H342.997C341.85 410.432 340.963 410.065 340.337 409.332C339.67 410.065 338.75 410.432 337.577 410.432H336.377V408.812H337.437C338.823 408.812 339.517 408.085 339.517 406.632V398.452L341.257 397.532V406.652C341.257 407.425 341.403 407.979 341.697 408.312C342.003 408.645 342.503 408.812 343.197 408.812ZM356.35 408.812H357.65V410.432H356.33C355.25 410.432 354.383 410.312 353.73 410.072C353.077 409.819 352.47 409.379 351.91 408.752C350.23 409.872 348.27 410.432 346.03 410.432H343.31V408.812H346.05C348.757 408.812 350.897 407.919 352.47 406.132C351.363 404.092 350.017 403.072 348.43 403.072C347.35 403.072 346.237 403.645 345.09 404.792V403.192C346.21 402.059 347.397 401.492 348.65 401.492C349.677 401.492 350.67 401.865 351.63 402.612C352.59 403.345 353.437 404.399 354.17 405.772V406.652C353.757 407.172 353.363 407.592 352.99 407.912C353.71 408.512 354.83 408.812 356.35 408.812ZM357.995 399.332C357.341 399.332 357.015 398.999 357.015 398.332C357.015 397.679 357.341 397.352 357.995 397.352C358.635 397.352 358.955 397.679 358.955 398.332C358.955 398.999 358.635 399.332 357.995 399.332ZM360.535 399.332C359.881 399.332 359.555 398.999 359.555 398.332C359.555 397.679 359.881 397.352 360.535 397.352C361.175 397.352 361.495 397.679 361.495 398.332C361.495 398.999 361.175 399.332 360.535 399.332ZM356.455 410.432V408.812H357.775C359.081 408.812 359.735 408.145 359.735 406.812V402.672L361.455 401.752V406.872C361.455 408.005 361.115 408.899 360.435 409.552C359.808 410.139 358.988 410.432 357.975 410.432H356.455ZM67.4539 441.592V439.932C67.9339 439.572 68.5939 439.312 69.4339 439.152C68.8339 438.245 68.5339 437.285 68.5339 436.272C68.5339 435.005 68.9006 433.985 69.6339 433.212C70.3006 432.492 71.1672 432.132 72.2339 432.132C73.3939 432.132 74.3539 432.599 75.1139 433.532V435.192C74.2606 434.205 73.3272 433.712 72.3139 433.712C71.6872 433.712 71.1872 433.939 70.8139 434.392C70.4406 434.832 70.2539 435.432 70.2539 436.192C70.2539 437.285 70.6339 438.192 71.3939 438.912C71.7406 438.885 71.9872 438.872 72.1339 438.872C73.8406 438.819 75.1939 438.425 76.1939 437.692V439.292C75.0606 440.052 73.5806 440.432 71.7539 440.432C69.9672 440.432 68.5339 440.819 67.4539 441.592ZM82.4831 440.432C81.3231 440.432 80.4298 440.059 79.8031 439.312C79.2698 438.672 79.0031 437.859 79.0031 436.872V428.452L80.7231 427.532V436.812C80.7231 438.145 81.3765 438.812 82.6831 438.812H84.0031V440.432H82.4831ZM86.7345 431.972C86.7479 431.972 86.7679 431.972 86.7945 431.972C86.8212 431.972 86.8412 431.972 86.8545 431.972C88.3612 431.972 89.5812 432.439 90.5145 433.372C91.3679 434.212 91.7945 435.285 91.7945 436.592V436.932C91.7945 438.079 91.4412 438.972 90.7345 439.612C90.1079 440.159 89.3012 440.432 88.3145 440.432H82.7945V438.812H88.1545C89.4345 438.812 90.0745 438.139 90.0745 436.792V436.612C90.0745 435.625 89.6879 434.865 88.9145 434.332C88.3012 433.919 87.5545 433.712 86.6745 433.712C85.9679 433.712 85.2545 433.839 84.5345 434.092V432.392L88.9145 427.532H90.6745L86.7345 431.972ZM97.5439 429.332C96.8906 429.332 96.5639 428.999 96.5639 428.332C96.5639 427.679 96.8906 427.352 97.5439 427.352C98.1839 427.352 98.5039 427.679 98.5039 428.332C98.5039 428.999 98.1839 429.332 97.5439 429.332ZM93.2039 440.432L94.0439 438.812H97.6039C98.1372 438.812 98.5106 438.679 98.7239 438.412C98.9506 438.145 99.0639 437.685 99.0639 437.032C99.0639 435.259 98.2439 433.925 96.6039 433.032L97.4839 431.552C99.5772 432.779 100.671 434.472 100.764 436.632C100.791 437.405 100.964 437.965 101.284 438.312C101.617 438.645 102.144 438.812 102.864 438.812H104.044V440.432H102.724C101.617 440.432 100.751 440.079 100.124 439.372C99.6839 440.079 98.9439 440.432 97.9039 440.432H93.2039ZM102.853 440.432V438.812H103.913C105.3 438.812 105.993 438.085 105.993 436.632V428.452L107.733 427.532V436.652C107.733 437.839 107.38 438.779 106.673 439.472C106.006 440.112 105.133 440.432 104.053 440.432H102.853ZM111.327 440.432V428.452L113.047 427.532V440.432H111.327ZM145.633 446.732V442.372C145.633 441.239 145.96 440.359 146.613 439.732C147.2 439.159 148.013 438.852 149.053 438.812C148.453 438.132 148.153 437.185 148.153 435.972C148.153 434.519 148.533 433.385 149.293 432.572C149.973 431.852 150.866 431.492 151.973 431.492C153.106 431.492 153.98 431.845 154.593 432.552C155.14 433.179 155.413 433.999 155.413 435.012V437.172C155.4 438.172 155.086 438.959 154.473 439.532C153.86 440.105 153.013 440.405 151.933 440.432H149.313C148.006 440.432 147.353 441.099 147.353 442.432V445.812L145.633 446.732ZM153.693 435.092C153.693 433.759 153.12 433.092 151.973 433.092C151.306 433.092 150.786 433.345 150.413 433.852C150.053 434.345 149.873 435.039 149.873 435.932C149.873 436.839 150.046 437.545 150.393 438.052C150.74 438.559 151.226 438.812 151.853 438.812C153.08 438.812 153.693 438.192 153.693 436.952V435.092ZM158.81 440.432V428.452L160.53 427.532V440.432H158.81ZM162.523 440.432L163.363 438.812H166.923C167.456 438.812 167.83 438.679 168.043 438.412C168.27 438.145 168.383 437.685 168.383 437.032C168.383 435.259 167.563 433.925 165.923 433.032L166.803 431.552C168.896 432.779 169.99 434.472 170.083 436.632C170.11 437.405 170.283 437.965 170.603 438.312C170.936 438.645 171.463 438.812 172.183 438.812H173.363V440.432H172.043C170.936 440.432 170.07 440.079 169.443 439.372C169.003 440.079 168.263 440.432 167.223 440.432H162.523ZM178.232 429.332C177.579 429.332 177.252 428.999 177.252 428.332C177.252 427.679 177.579 427.352 178.232 427.352C178.872 427.352 179.192 427.679 179.192 428.332C179.192 428.999 178.872 429.332 178.232 429.332ZM185.212 438.812H186.512V440.432H185.192C184.112 440.432 183.245 440.312 182.592 440.072C181.939 439.819 181.332 439.379 180.772 438.752C179.092 439.872 177.132 440.432 174.892 440.432H172.172V438.812H174.912C177.619 438.812 179.759 437.919 181.332 436.132C180.225 434.092 178.879 433.072 177.292 433.072C176.212 433.072 175.099 433.645 173.952 434.792V433.192C175.072 432.059 176.259 431.492 177.512 431.492C178.539 431.492 179.532 431.865 180.492 432.612C181.452 433.345 182.299 434.399 183.032 435.772V436.652C182.619 437.172 182.225 437.592 181.852 437.912C182.572 438.512 183.692 438.812 185.212 438.812ZM187.557 429.472C186.903 429.472 186.577 429.139 186.577 428.472C186.577 427.819 186.903 427.492 187.557 427.492C188.197 427.492 188.517 427.819 188.517 428.472C188.517 429.139 188.197 429.472 187.557 429.472ZM190.117 429.472C189.463 429.472 189.137 429.139 189.137 428.472C189.137 427.819 189.463 427.492 190.117 427.492C190.757 427.492 191.077 427.819 191.077 428.472C191.077 429.139 190.757 429.472 190.117 429.472ZM192.277 438.812H193.597V440.432H192.077C190.97 440.432 190.097 440.079 189.457 439.372C188.817 440.079 187.943 440.432 186.837 440.432H185.317V438.812H186.637C187.943 438.812 188.597 438.145 188.597 436.812V432.672L190.317 431.752V436.812C190.317 438.145 190.97 438.812 192.277 438.812ZM192.387 440.432V438.812H194.187C195.48 438.812 196.127 438.145 196.127 436.812V434.012L197.847 433.092V436.812C197.847 438.145 198.5 438.812 199.807 438.812H200.727C202.034 438.812 202.687 438.145 202.687 436.812V433.332L204.407 432.432V436.812C204.407 438.145 205.054 438.812 206.347 438.812H207.287C208.594 438.812 209.247 438.145 209.247 436.812V432.672L210.967 431.752V436.872C210.967 438.005 210.627 438.892 209.947 439.532C209.347 440.119 208.547 440.419 207.547 440.432H206.167C204.994 440.432 204.12 440.039 203.547 439.252C202.974 440.025 202.12 440.419 200.987 440.432H199.607C198.46 440.432 197.587 440.039 196.987 439.252C196.414 440.039 195.54 440.432 194.367 440.432H192.387ZM214.572 440.432V428.452L216.292 427.532V440.432H214.572ZM254.758 439.952C253.491 440.712 252.725 441.232 252.458 441.512C251.925 442.032 251.658 442.679 251.658 443.452C251.658 444.305 251.951 444.992 252.538 445.512C253.125 446.045 253.885 446.312 254.818 446.312C256.285 446.299 257.511 445.945 258.498 445.252V446.872C257.351 447.579 256.098 447.932 254.738 447.932C253.258 447.932 252.071 447.445 251.178 446.472C250.405 445.645 250.018 444.625 250.018 443.412C250.018 442.505 250.258 441.732 250.738 441.092C251.218 440.465 252.065 439.805 253.278 439.112C252.185 438.312 251.065 437.059 249.918 435.352V434.472C250.571 433.539 251.338 432.812 252.218 432.292C253.098 431.759 253.991 431.492 254.898 431.492C255.791 431.492 256.685 431.765 257.578 432.312C258.471 432.845 259.238 433.579 259.878 434.512V435.352C259.198 436.379 258.071 437.519 256.498 438.772C256.791 438.799 257.025 438.812 257.198 438.812H262.478L262.498 440.432H257.058C256.271 440.432 255.505 440.272 254.758 439.952ZM251.518 434.932C252.718 436.572 253.811 437.659 254.798 438.192C256.091 437.312 257.251 436.212 258.278 434.892C257.291 433.692 256.165 433.085 254.898 433.072C253.618 433.072 252.491 433.692 251.518 434.932ZM264.576 435.012C264.576 433.852 264.922 432.952 265.616 432.312C266.229 431.765 267.029 431.492 268.016 431.492C269.282 431.492 270.256 431.959 270.936 432.892C271.522 433.679 271.816 434.705 271.816 435.972C271.816 437.412 271.442 438.539 270.696 439.352C270.042 440.072 269.189 440.432 268.136 440.432C266.936 440.432 266.022 440.099 265.396 439.432C264.756 440.099 263.896 440.432 262.816 440.432H261.296V438.812H262.616C263.922 438.812 264.576 438.145 264.576 436.812V435.012ZM266.296 436.952C266.296 438.192 266.902 438.812 268.116 438.812C268.742 438.812 269.229 438.559 269.576 438.052C269.936 437.545 270.116 436.839 270.116 435.932C270.116 435.039 269.929 434.345 269.556 433.852C269.182 433.345 268.669 433.092 268.016 433.092C266.869 433.092 266.296 433.759 266.296 435.092V436.952ZM306.375 438.092C307.108 438.092 307.488 438.472 307.515 439.232C307.515 439.605 307.395 439.919 307.155 440.172C306.928 440.412 306.628 440.532 306.255 440.532C305.428 440.532 305.015 440.025 305.015 439.012V436.432L305.855 436.192L305.875 438.092H306.375ZM312.497 429.132C311.844 429.132 311.517 428.799 311.517 428.132C311.517 427.479 311.844 427.152 312.497 427.152C313.137 427.152 313.457 427.479 313.457 428.132C313.457 428.799 313.137 429.132 312.497 429.132ZM315.057 429.132C314.404 429.132 314.077 428.799 314.077 428.132C314.077 427.479 314.404 427.152 315.057 427.152C315.697 427.152 316.017 427.479 316.017 428.132C316.017 428.799 315.697 429.132 315.057 429.132ZM313.797 440.432C312.584 440.432 311.637 440.025 310.957 439.212C310.371 438.505 310.077 437.605 310.077 436.512C310.077 435.325 310.404 434.299 311.057 433.432C311.724 432.552 312.671 431.905 313.897 431.492C315.191 431.932 316.164 432.625 316.817 433.572C317.404 434.412 317.697 435.392 317.697 436.512C317.697 437.779 317.324 438.772 316.577 439.492C315.911 440.119 315.051 440.432 313.997 440.432H313.797ZM313.737 438.812H314.037C314.637 438.812 315.111 438.605 315.457 438.192C315.817 437.779 315.997 437.225 315.997 436.532C315.997 434.932 315.297 433.785 313.897 433.092C312.497 433.785 311.797 434.925 311.797 436.512C311.797 437.219 311.971 437.779 312.317 438.192C312.664 438.605 313.137 438.812 313.737 438.812ZM319.247 440.432L320.087 438.812H323.647C324.18 438.812 324.554 438.679 324.767 438.412C324.994 438.145 325.107 437.685 325.107 437.032C325.107 435.245 324.3 433.892 322.687 432.972L323.527 431.552C325.727 432.805 326.827 434.639 326.827 437.052C326.827 439.305 325.867 440.432 323.947 440.432H319.247ZM328.427 440.432L329.267 438.812H332.827C333.36 438.812 333.733 438.679 333.947 438.412C334.173 438.145 334.287 437.685 334.287 437.032C334.287 435.259 333.467 433.925 331.827 433.032L332.707 431.552C334.8 432.779 335.893 434.472 335.987 436.632C336.013 437.405 336.187 437.965 336.507 438.312C336.84 438.645 337.367 438.812 338.087 438.812H339.267V440.432H337.947C336.84 440.432 335.973 440.079 335.347 439.372C334.907 440.079 334.167 440.432 333.127 440.432H328.427ZM351.116 438.812H352.416V440.432H351.096C350.016 440.432 349.149 440.312 348.496 440.072C347.842 439.819 347.236 439.379 346.676 438.752C344.996 439.872 343.036 440.432 340.796 440.432H338.076V438.812H340.816C343.522 438.812 345.662 437.919 347.236 436.132C346.129 434.092 344.782 433.072 343.196 433.072C342.116 433.072 341.002 433.645 339.856 434.792V433.192C340.976 432.059 342.162 431.492 343.416 431.492C344.442 431.492 345.436 431.865 346.396 432.612C347.356 433.345 348.202 434.399 348.936 435.772V436.652C348.522 437.172 348.129 437.592 347.756 437.912C348.476 438.512 349.596 438.812 351.116 438.812ZM354.5 435.012C354.5 433.852 354.847 432.952 355.54 432.312C356.154 431.765 356.954 431.492 357.94 431.492C359.207 431.492 360.18 431.959 360.86 432.892C361.447 433.679 361.74 434.705 361.74 435.972C361.74 437.412 361.367 438.539 360.62 439.352C359.967 440.072 359.114 440.432 358.06 440.432C356.86 440.432 355.947 440.099 355.32 439.432C354.68 440.099 353.82 440.432 352.74 440.432H351.22V438.812H352.54C353.847 438.812 354.5 438.145 354.5 436.812V435.012ZM356.22 436.952C356.22 438.192 356.827 438.812 358.04 438.812C358.667 438.812 359.154 438.559 359.5 438.052C359.86 437.545 360.04 436.839 360.04 435.932C360.04 435.039 359.854 434.345 359.48 433.852C359.107 433.345 358.594 433.092 357.94 433.092C356.794 433.092 356.22 433.759 356.22 435.092V436.952ZM153.816 469.472C153.816 469.459 153.816 469.445 153.816 469.432C153.843 468.765 154.196 468.432 154.876 468.432C155.583 468.432 155.936 468.779 155.936 469.472C155.936 470.179 155.583 470.532 154.876 470.532C154.169 470.532 153.816 470.179 153.816 469.472ZM171.359 468.812H172.239V470.432H171.339C170.205 470.432 169.299 470.299 168.619 470.032C167.952 469.765 167.332 469.285 166.759 468.592C166.319 468.752 165.645 468.925 164.739 469.112C163.219 469.432 162.205 469.845 161.699 470.352C161.059 470.965 160.739 471.825 160.739 472.932C160.739 474.052 161.105 474.919 161.839 475.532C162.452 476.052 163.239 476.312 164.199 476.312C165.665 476.299 166.892 475.945 167.879 475.252V476.872C166.745 477.579 165.472 477.932 164.059 477.932C162.539 477.932 161.312 477.425 160.379 476.412C159.539 475.505 159.119 474.339 159.119 472.912C159.119 471.379 159.572 470.159 160.479 469.252C160.879 468.852 161.339 468.539 161.859 468.312C162.379 468.085 163.165 467.859 164.219 467.632C165.219 467.419 165.952 467.212 166.419 467.012C166.899 466.812 167.312 466.525 167.659 466.152C166.565 464.099 165.219 463.072 163.619 463.072C162.552 463.072 161.432 463.645 160.259 464.792V463.192C161.379 462.059 162.572 461.492 163.839 461.492C164.852 461.492 165.839 461.865 166.799 462.612C167.759 463.359 168.605 464.412 169.339 465.772V466.652C168.979 467.172 168.559 467.592 168.079 467.912C168.785 468.512 169.879 468.812 171.359 468.812ZM163.179 472.872C163.179 472.285 163.479 471.992 164.079 471.992C164.652 471.992 164.939 472.285 164.939 472.872C164.939 473.485 164.652 473.792 164.079 473.792C163.479 473.792 163.179 473.485 163.179 472.872ZM172.725 459.192L173.185 458.332H173.725C173.591 458.092 173.525 457.839 173.525 457.572C173.525 457.185 173.671 456.852 173.965 456.572C174.258 456.279 174.605 456.132 175.005 456.132C175.338 456.132 175.658 456.239 175.965 456.452V457.332C175.671 457.105 175.391 456.992 175.125 456.992C174.631 456.992 174.385 457.212 174.385 457.652C174.385 457.879 174.478 458.105 174.665 458.332H176.485L176.025 459.192H172.725ZM171.045 470.432V468.812H172.365C173.671 468.812 174.325 468.145 174.325 466.812V462.672L176.045 461.752V466.872C176.045 468.005 175.705 468.899 175.025 469.552C174.398 470.139 173.578 470.432 172.565 470.432H171.045ZM182.862 470.432C181.702 470.432 180.809 470.059 180.182 469.312C179.649 468.672 179.382 467.859 179.382 466.872V458.452L181.102 457.532V466.812C181.102 468.145 181.755 468.812 183.062 468.812H184.382V470.432H182.862ZM185.413 459.472C184.76 459.472 184.433 459.139 184.433 458.472C184.433 457.819 184.76 457.492 185.413 457.492C186.053 457.492 186.373 457.819 186.373 458.472C186.373 459.139 186.053 459.472 185.413 459.472ZM187.973 459.472C187.32 459.472 186.993 459.139 186.993 458.472C186.993 457.819 187.32 457.492 187.973 457.492C188.613 457.492 188.933 457.819 188.933 458.472C188.933 459.139 188.613 459.472 187.973 459.472ZM190.133 468.812H191.453V470.432H189.933C188.827 470.432 187.953 470.079 187.313 469.372C186.673 470.079 185.8 470.432 184.693 470.432H183.173V468.812H184.493C185.8 468.812 186.453 468.145 186.453 466.812V462.672L188.173 461.752V466.812C188.173 468.145 188.827 468.812 190.133 468.812ZM194.044 459.332C193.39 459.332 193.064 458.999 193.064 458.332C193.064 457.679 193.39 457.352 194.044 457.352C194.684 457.352 195.004 457.679 195.004 458.332C195.004 458.999 194.684 459.332 194.044 459.332ZM197.204 468.812H198.524V470.432H197.004C195.897 470.432 195.024 470.079 194.384 469.372C193.744 470.079 192.87 470.432 191.764 470.432H190.244V468.812H191.564C192.87 468.812 193.524 468.145 193.524 466.812V462.672L195.244 461.752V466.812C195.244 468.145 195.897 468.812 197.204 468.812ZM197.314 470.432V468.812H198.374C199.761 468.812 200.454 468.085 200.454 466.632V458.452L202.194 457.532V466.652C202.194 467.839 201.841 468.779 201.134 469.472C200.467 470.112 199.594 470.432 198.514 470.432H197.314ZM209.268 470.432C208.108 470.432 207.215 470.059 206.588 469.312C206.055 468.672 205.788 467.859 205.788 466.872V458.452L207.508 457.532V466.812C207.508 468.145 208.162 468.812 209.468 468.812H210.788V470.432H209.268ZM209.58 470.432V468.812H210.9C212.206 468.812 212.86 468.145 212.86 466.812V462.672L214.58 461.752V466.872C214.58 468.005 214.24 468.899 213.56 469.552C212.933 470.139 212.113 470.432 211.1 470.432H209.58ZM212.8 474.412C212.146 474.412 211.82 474.079 211.82 473.412C211.82 472.759 212.146 472.432 212.8 472.432C213.44 472.432 213.76 472.759 213.76 473.412C213.76 474.079 213.44 474.412 212.8 474.412ZM227.499 458.332L227.039 459.192H223.739L224.199 458.332H224.739C224.606 458.092 224.539 457.839 224.539 457.572C224.539 457.185 224.686 456.852 224.979 456.572C225.272 456.279 225.619 456.132 226.019 456.132C226.352 456.132 226.672 456.239 226.979 456.452V457.332C226.699 457.105 226.419 456.992 226.139 456.992C225.646 456.992 225.399 457.212 225.399 457.652C225.399 457.879 225.492 458.105 225.679 458.332H227.499ZM232.179 468.812V470.432H229.699C229.646 471.579 229.152 472.525 228.219 473.272C227.432 473.885 226.539 474.192 225.539 474.192C224.712 474.192 223.932 473.999 223.199 473.612V472.092C223.906 472.465 224.606 472.652 225.299 472.652C226.006 472.652 226.619 472.432 227.139 471.992C227.672 471.552 227.946 471.025 227.959 470.412C227.266 470.385 226.752 470.359 226.419 470.332C224.979 470.252 223.892 469.765 223.159 468.872C222.546 468.125 222.239 467.159 222.239 465.972C222.239 464.519 222.626 463.385 223.399 462.572C224.092 461.852 225.006 461.492 226.139 461.492C227.326 461.492 228.239 461.845 228.879 462.552C229.426 463.179 229.699 463.999 229.699 465.012V468.812H232.179ZM227.959 465.132C227.959 463.772 227.352 463.092 226.139 463.092C225.446 463.092 224.906 463.345 224.519 463.852C224.132 464.345 223.939 465.039 223.939 465.932C223.939 467.679 224.792 468.605 226.499 468.712C226.819 468.752 227.306 468.785 227.959 468.812V465.132ZM237.946 468.812H239.266V470.432H237.746C236.639 470.432 235.766 470.079 235.126 469.372C234.486 470.079 233.613 470.432 232.506 470.432H230.986V468.812H232.306C233.613 468.812 234.266 468.145 234.266 466.812V462.672L235.986 461.752V466.812C235.986 468.145 236.639 468.812 237.946 468.812ZM235.006 472.432C235.646 472.432 235.966 472.759 235.966 473.412C235.966 474.079 235.646 474.412 235.006 474.412C234.353 474.412 234.026 474.079 234.026 473.412C234.026 472.759 234.353 472.432 235.006 472.432ZM241.856 459.332C241.203 459.332 240.876 458.999 240.876 458.332C240.876 457.679 241.203 457.352 241.856 457.352C242.496 457.352 242.816 457.679 242.816 458.332C242.816 458.999 242.496 459.332 241.856 459.332ZM245.016 468.812H246.336V470.432H244.816C243.71 470.432 242.836 470.079 242.196 469.372C241.556 470.079 240.683 470.432 239.576 470.432H238.056V468.812H239.376C240.683 468.812 241.336 468.145 241.336 466.812V462.672L243.056 461.752V466.812C243.056 468.145 243.71 468.812 245.016 468.812ZM247.367 459.472C246.713 459.472 246.387 459.139 246.387 458.472C246.387 457.819 246.713 457.492 247.367 457.492C248.007 457.492 248.327 457.819 248.327 458.472C248.327 459.139 248.007 459.472 247.367 459.472ZM249.927 459.472C249.273 459.472 248.947 459.139 248.947 458.472C248.947 457.819 249.273 457.492 249.927 457.492C250.567 457.492 250.887 457.819 250.887 458.472C250.887 459.139 250.567 459.472 249.927 459.472ZM252.087 468.812H253.407V470.432H251.887C250.78 470.432 249.907 470.079 249.267 469.372C248.627 470.079 247.753 470.432 246.647 470.432H245.127V468.812H246.447C247.753 468.812 248.407 468.145 248.407 466.812V462.672L250.127 461.752V466.812C250.127 468.145 250.78 468.812 252.087 468.812ZM259.017 468.812H260.337V470.432H258.817C257.67 470.432 256.784 470.065 256.157 469.332C255.49 470.065 254.57 470.432 253.397 470.432H252.197V468.812H253.257C254.644 468.812 255.337 468.085 255.337 466.632V458.452L257.077 457.532V466.652C257.077 467.425 257.224 467.979 257.517 468.312C257.824 468.645 258.324 468.812 259.017 468.812ZM259.13 470.432V468.812H260.19C261.577 468.812 262.27 468.085 262.27 466.632V458.452L264.01 457.532V466.652C264.01 467.839 263.657 468.779 262.95 469.472C262.284 470.112 261.41 470.432 260.33 470.432H259.13ZM283.813 470.432C283.679 471.605 283.039 472.545 281.893 473.252C280.826 473.905 279.466 474.232 277.813 474.232C275.706 474.232 274.119 473.619 273.053 472.392C272.266 471.485 271.873 470.365 271.873 469.032C271.873 467.912 272.153 466.952 272.713 466.152L274.373 465.792C273.773 466.739 273.473 467.759 273.473 468.852C273.473 470.039 273.859 470.972 274.633 471.652C275.393 472.332 276.453 472.672 277.813 472.672C278.959 472.672 279.906 472.472 280.653 472.072C281.399 471.672 281.853 471.125 282.013 470.432H280.013L280.853 468.812H283.873V470.432H283.813ZM276.473 477.772C275.819 477.772 275.493 477.439 275.493 476.772C275.493 476.119 275.819 475.792 276.473 475.792C277.113 475.792 277.433 476.119 277.433 476.772C277.433 477.439 277.113 477.772 276.473 477.772ZM279.013 477.772C278.359 477.772 278.033 477.439 278.033 476.772C278.033 476.119 278.359 475.792 279.013 475.792C279.653 475.792 279.973 476.119 279.973 476.772C279.973 477.439 279.653 477.772 279.013 477.772ZM293.602 468.812V470.432H282.822V468.812H286.282C285.629 467.972 285.302 466.939 285.302 465.712C285.302 464.352 285.769 463.272 286.702 462.472C287.462 461.832 288.342 461.505 289.342 461.492C290.755 461.492 291.855 462.059 292.642 463.192V464.812C291.789 463.665 290.755 463.092 289.542 463.092C288.782 463.092 288.169 463.339 287.702 463.832C287.249 464.312 287.022 464.959 287.022 465.772C287.022 466.692 287.295 467.432 287.842 467.992C288.402 468.539 289.142 468.812 290.062 468.812H293.602ZM299.874 470.432C298.714 470.432 297.82 470.059 297.194 469.312C296.66 468.672 296.394 467.859 296.394 466.872V458.452L298.114 457.532V466.812C298.114 468.145 298.767 468.812 300.074 468.812H301.394V470.432H299.874ZM303.985 459.332C303.332 459.332 303.005 458.999 303.005 458.332C303.005 457.679 303.332 457.352 303.985 457.352C304.625 457.352 304.945 457.679 304.945 458.332C304.945 458.999 304.625 459.332 303.985 459.332ZM307.145 468.812H308.465V470.432H306.945C305.838 470.432 304.965 470.079 304.325 469.372C303.685 470.079 302.812 470.432 301.705 470.432H300.185V468.812H301.505C302.812 468.812 303.465 468.145 303.465 466.812V462.672L305.185 461.752V466.812C305.185 468.145 305.838 468.812 307.145 468.812ZM325.135 468.812H326.455V470.432H324.935C323.869 470.432 323.035 470.119 322.435 469.492C321.889 470.119 321.115 470.432 320.115 470.432H307.255V468.812H310.975L311.035 468.592V458.452L312.755 457.532V464.852C314.275 462.612 316.162 461.492 318.415 461.492C319.922 461.492 321.129 462.019 322.035 463.072C322.809 463.965 323.195 465.065 323.195 466.372V466.852C323.195 468.159 323.842 468.812 325.135 468.812ZM321.455 466.932V466.372C321.455 465.332 321.135 464.505 320.495 463.892C319.949 463.359 319.262 463.092 318.435 463.092C317.062 463.092 315.822 463.712 314.715 464.952C313.889 465.885 313.235 467.052 312.755 468.452V468.812H319.975C320.549 468.812 320.935 468.679 321.135 468.412C321.349 468.145 321.455 467.652 321.455 466.932ZM331.563 468.752C332.097 466.739 332.977 465.059 334.203 463.712C335.577 462.232 337.177 461.492 339.003 461.492C340.523 461.492 341.737 462.019 342.643 463.072C343.403 463.965 343.783 465.065 343.783 466.372V466.892C343.783 468.052 343.43 468.952 342.723 469.592C342.11 470.152 341.303 470.432 340.303 470.432H332.023C330.917 470.432 330.043 470.079 329.403 469.372C328.763 470.079 327.89 470.432 326.783 470.432H325.263V468.812H326.583C327.89 468.812 328.543 468.145 328.543 466.812V464.012L330.263 463.092V466.812C330.263 467.932 330.697 468.579 331.563 468.752ZM342.063 466.732V466.372C342.063 465.332 341.743 464.505 341.103 463.892C340.543 463.359 339.85 463.092 339.023 463.092C337.61 463.092 336.337 463.745 335.203 465.052C334.337 466.052 333.67 467.305 333.203 468.812H340.203C341.443 468.812 342.063 468.119 342.063 466.732ZM354.4 458.452L356.14 457.532V466.652C356.14 467.839 355.786 468.779 355.08 469.472C354.413 470.112 353.54 470.432 352.46 470.432H345.58L346.42 468.812H349.34V461.052L351.06 460.132V468.812H352.32C353.706 468.812 354.4 468.085 354.4 466.632V458.452ZM359.734 470.432V458.452L361.454 457.532V470.432H359.734Z" fill="black"/>
<path d="M335.055 288.012H336.855V290.432H334.815C333.575 290.432 332.615 290.019 331.935 289.192C331.361 289.632 330.661 289.852 329.835 289.852C328.608 289.852 327.628 289.392 326.895 288.472C326.295 287.712 325.995 286.799 325.995 285.732C325.995 284.412 326.421 283.339 327.275 282.512C327.995 281.819 328.828 281.472 329.775 281.472C330.268 281.472 330.721 281.565 331.135 281.752V281.232L333.635 279.912V286.572C333.635 287.092 333.741 287.465 333.955 287.692C334.181 287.905 334.548 288.012 335.055 288.012ZM331.135 284.272C330.788 283.979 330.395 283.832 329.955 283.832C329.515 283.832 329.155 284.012 328.875 284.372C328.608 284.732 328.475 285.205 328.475 285.792C328.475 286.379 328.608 286.845 328.875 287.192C329.141 287.539 329.508 287.712 329.975 287.712C330.481 287.712 330.875 287.539 331.155 287.192C331.141 287.085 331.135 286.919 331.135 286.692V284.272ZM335.654 290.432V288.012H339.174V290.432H335.654ZM337.978 290.432V288.012H341.498V290.432H337.978ZM347.422 288.012H349.222V290.432H347.182C346.209 290.432 345.402 290.172 344.762 289.652C344.122 290.172 343.316 290.432 342.342 290.432H340.302V288.012H342.102C342.609 288.012 342.969 287.905 343.182 287.692C343.396 287.465 343.502 287.092 343.502 286.572V282.872L346.022 281.552V286.572C346.022 287.092 346.129 287.465 346.342 287.692C346.556 287.905 346.916 288.012 347.422 288.012ZM342.242 292.252C342.642 292.252 342.956 292.365 343.182 292.592C343.422 292.832 343.542 293.152 343.542 293.552C343.542 294.445 343.109 294.892 342.242 294.892C341.842 294.892 341.522 294.772 341.282 294.532C341.042 294.292 340.922 293.965 340.922 293.552C340.922 292.685 341.362 292.252 342.242 292.252ZM345.322 292.252C345.722 292.252 346.036 292.365 346.262 292.592C346.502 292.832 346.622 293.152 346.622 293.552C346.622 294.445 346.189 294.892 345.322 294.892C344.922 294.892 344.602 294.772 344.362 294.532C344.122 294.292 344.002 293.965 344.002 293.552C344.002 292.685 344.442 292.252 345.322 292.252ZM349.828 300.132L350.728 298.192L355.988 297.252L355.088 299.172L349.828 300.132ZM355.137 288.012H356.937V290.432H354.897C353.924 290.432 353.117 290.172 352.477 289.652C351.837 290.172 351.031 290.432 350.057 290.432H348.017V288.012H349.817C350.324 288.012 350.684 287.905 350.897 287.692C351.111 287.465 351.217 287.092 351.217 286.572V282.872L353.737 281.552V286.572C353.737 287.092 353.844 287.465 354.057 287.692C354.271 287.905 354.631 288.012 355.137 288.012ZM352.597 292.252C352.997 292.252 353.311 292.365 353.537 292.592C353.777 292.832 353.897 293.152 353.897 293.552C353.897 294.445 353.464 294.892 352.597 294.892C352.197 294.892 351.877 294.772 351.637 294.532C351.397 294.292 351.277 293.965 351.277 293.552C351.277 293.165 351.397 292.852 351.637 292.612C351.877 292.372 352.197 292.252 352.597 292.252ZM355.434 274.132L356.334 272.192L361.594 271.252L360.694 273.172L355.434 274.132ZM360.252 279.532C359.852 279.532 359.532 279.412 359.292 279.172C359.052 278.932 358.932 278.605 358.932 278.192C358.932 277.805 359.052 277.492 359.292 277.252C359.532 277.012 359.852 276.892 360.252 276.892C360.652 276.892 360.965 277.012 361.192 277.252C361.432 277.479 361.552 277.792 361.552 278.192C361.552 279.085 361.119 279.532 360.252 279.532ZM355.732 290.432V288.012H357.532C358.039 288.012 358.399 287.905 358.612 287.692C358.825 287.465 358.932 287.092 358.932 286.572V282.872L361.452 281.552V286.692C361.452 287.905 361.079 288.852 360.332 289.532C359.679 290.132 358.825 290.432 357.772 290.432H355.732Z" fill="#6D6AB1"/>
<path d="M335.055 288.012H336.855V290.432H334.815C333.575 290.432 332.615 290.019 331.935 289.192C331.361 289.632 330.661 289.852 329.835 289.852C328.608 289.852 327.628 289.392 326.895 288.472C326.295 287.712 325.995 286.799 325.995 285.732C325.995 284.412 326.421 283.339 327.275 282.512C327.995 281.819 328.828 281.472 329.775 281.472C330.268 281.472 330.721 281.565 331.135 281.752V281.232L333.635 279.912V286.572C333.635 287.092 333.741 287.465 333.955 287.692C334.181 287.905 334.548 288.012 335.055 288.012ZM331.135 284.272C330.788 283.979 330.395 283.832 329.955 283.832C329.515 283.832 329.155 284.012 328.875 284.372C328.608 284.732 328.475 285.205 328.475 285.792C328.475 286.379 328.608 286.845 328.875 287.192C329.141 287.539 329.508 287.712 329.975 287.712C330.481 287.712 330.875 287.539 331.155 287.192C331.141 287.085 331.135 286.919 331.135 286.692V284.272ZM335.654 290.432V288.012H339.174V290.432H335.654ZM337.978 290.432V288.012H341.498V290.432H337.978ZM347.422 288.012H349.222V290.432H347.182C346.209 290.432 345.402 290.172 344.762 289.652C344.122 290.172 343.316 290.432 342.342 290.432H340.302V288.012H342.102C342.609 288.012 342.969 287.905 343.182 287.692C343.396 287.465 343.502 287.092 343.502 286.572V282.872L346.022 281.552V286.572C346.022 287.092 346.129 287.465 346.342 287.692C346.556 287.905 346.916 288.012 347.422 288.012ZM342.242 292.252C342.642 292.252 342.956 292.365 343.182 292.592C343.422 292.832 343.542 293.152 343.542 293.552C343.542 294.445 343.109 294.892 342.242 294.892C341.842 294.892 341.522 294.772 341.282 294.532C341.042 294.292 340.922 293.965 340.922 293.552C340.922 292.685 341.362 292.252 342.242 292.252ZM345.322 292.252C345.722 292.252 346.036 292.365 346.262 292.592C346.502 292.832 346.622 293.152 346.622 293.552C346.622 294.445 346.189 294.892 345.322 294.892C344.922 294.892 344.602 294.772 344.362 294.532C344.122 294.292 344.002 293.965 344.002 293.552C344.002 292.685 344.442 292.252 345.322 292.252ZM349.828 300.132L350.728 298.192L355.988 297.252L355.088 299.172L349.828 300.132ZM355.137 288.012H356.937V290.432H354.897C353.924 290.432 353.117 290.172 352.477 289.652C351.837 290.172 351.031 290.432 350.057 290.432H348.017V288.012H349.817C350.324 288.012 350.684 287.905 350.897 287.692C351.111 287.465 351.217 287.092 351.217 286.572V282.872L353.737 281.552V286.572C353.737 287.092 353.844 287.465 354.057 287.692C354.271 287.905 354.631 288.012 355.137 288.012ZM352.597 292.252C352.997 292.252 353.311 292.365 353.537 292.592C353.777 292.832 353.897 293.152 353.897 293.552C353.897 294.445 353.464 294.892 352.597 294.892C352.197 294.892 351.877 294.772 351.637 294.532C351.397 294.292 351.277 293.965 351.277 293.552C351.277 293.165 351.397 292.852 351.637 292.612C351.877 292.372 352.197 292.252 352.597 292.252ZM355.434 274.132L356.334 272.192L361.594 271.252L360.694 273.172L355.434 274.132ZM360.252 279.532C359.852 279.532 359.532 279.412 359.292 279.172C359.052 278.932 358.932 278.605 358.932 278.192C358.932 277.805 359.052 277.492 359.292 277.252C359.532 277.012 359.852 276.892 360.252 276.892C360.652 276.892 360.965 277.012 361.192 277.252C361.432 277.479 361.552 277.792 361.552 278.192C361.552 279.085 361.119 279.532 360.252 279.532ZM355.732 290.432V288.012H357.532C358.039 288.012 358.399 287.905 358.612 287.692C358.825 287.465 358.932 287.092 358.932 286.572V282.872L361.452 281.552V286.692C361.452 287.905 361.079 288.852 360.332 289.532C359.679 290.132 358.825 290.432 357.772 290.432H355.732Z" fill="black" fill-opacity="0.2"/>
</g>
<defs>
<clipPath id="clip0_1042_306">
<rect width="296.492" height="210" fill="white" transform="translate(66.7539 272.432)"/>
</clipPath>
</defs>
</svg>
