<svg width="730" height="224" viewBox="0 0 730 224" fill="none" xmlns="http://www.w3.org/2000/svg">
<mask id="mask0_718_412" style="mask-type:alpha" maskUnits="userSpaceOnUse" x="0" y="0" width="730" height="224">
<path d="M0 10.5986C0 5.07579 4.47715 0.598633 10 0.598633H719.396C724.919 0.598633 729.396 5.07579 729.396 10.5986V213.411C729.396 218.934 724.919 223.411 719.396 223.411H9.99999C4.47714 223.411 0 218.934 0 213.411V10.5986Z" fill="#6D6AB1"/>
</mask>
<g mask="url(#mask0_718_412)">
<rect y="0.598633" width="729.396" height="222.812" fill="#6D6AB1"/>
<rect y="0.598633" width="729.396" height="222.812" fill="black" fill-opacity="0.2"/>
<mask id="mask1_718_412" style="mask-type:luminance" maskUnits="userSpaceOnUse" x="468" y="-32" width="334" height="256">
<path d="M468 -31.8955H801.333V223.891H468V-31.8955Z" fill="white"/>
</mask>
<g mask="url(#mask1_718_412)">
<mask id="mask2_718_412" style="mask-type:luminance" maskUnits="userSpaceOnUse" x="-81" y="-58" width="964" height="308">
<path d="M882.201 -57.5996H-80.1992V249.6H882.201V-57.5996Z" fill="black" fill-opacity="0.08"/>
</mask>
<g mask="url(#mask2_718_412)">
<mask id="mask3_718_412" style="mask-type:luminance" maskUnits="userSpaceOnUse" x="468" y="-32" width="334" height="256">
<path d="M801.333 -32H468V224H801.333V-32Z" fill="white"/>
</mask>
<g mask="url(#mask3_718_412)">
<mask id="mask4_718_412" style="mask-type:luminance" maskUnits="userSpaceOnUse" x="469" y="-32" width="332" height="255">
<path d="M469.547 -31.8955H800.807V222.896H469.547V-31.8955Z" fill="white"/>
</mask>
<g mask="url(#mask4_718_412)">
<path d="M777.651 120.907C784.297 111.292 788.182 99.6357 788.182 87.0628C788.182 54.1357 761.495 27.4482 728.573 27.4482C716.151 27.4482 704.62 31.2451 695.073 37.7451C703.635 54.266 712.25 67.391 739.953 89.4222C743.188 91.9951 746.474 94.5212 749.651 96.9587C759.589 104.599 769.13 111.927 777.651 120.907ZM671.969 95.2191C641.74 71.1826 633 56.6097 623.891 38.766C614.786 20.917 613.328 -31.8955 613.328 -31.8955H676.703C676.703 -31.8955 678.161 20.917 687.266 38.766C696.37 56.6097 705.115 71.1826 735.344 95.2191C765.573 119.256 795.073 135.282 800.901 194.287L801.266 223.058H737.896L737.531 194.287C731.703 135.282 702.198 119.256 671.969 95.2191ZM600.578 95.2191C570.349 71.1826 561.609 56.6097 552.5 38.766C543.396 20.917 541.938 -31.8955 541.938 -31.8955H605.313C605.313 -31.8955 606.771 20.917 615.875 38.766C624.979 56.6097 633.724 71.1826 663.953 95.2191C694.182 119.256 723.688 135.282 729.51 194.287L729.875 223.058H666.5L666.141 194.287C660.313 135.282 630.807 119.256 600.578 95.2191ZM532.469 -31.8955C532.469 -31.8955 533.922 20.917 543.026 38.766C552.135 56.6097 560.875 71.1826 591.104 95.2191C621.333 119.256 650.839 135.282 656.667 194.287L657.031 223.058H593.656L593.292 194.287C587.464 135.282 557.964 119.256 527.729 95.2191C497.5 71.1826 488.76 56.6097 479.656 38.766C470.547 20.917 469.094 -31.8955 469.094 -31.8955H532.469Z" fill="#F5F5EA"/>
</g>
</g>
</g>
</g>
<path d="M208.944 84.6306C206.199 83.4015 204.756 85.8025 203.204 87.3025C195.209 94.9744 187.313 102.735 179.381 110.464C178.855 110.969 178.334 111.526 177.767 111.943C176.798 112.365 176.017 112.563 175.386 112.563C175.214 112.526 175.043 112.48 174.86 112.407C172.772 111.594 173.115 109.594 173.11 107.865C173.089 102.063 173.11 96.2556 173.1 90.4588C173.1 88.1775 173.418 85.6567 170.756 84.5525C170.11 84.2817 169.548 84.2348 169.043 84.3181C167.392 84.5317 166.282 86.1775 165.11 87.3025C157.121 94.9744 149.22 102.735 141.287 110.464C140.449 111.282 139.61 112.209 138.558 112.516C137.996 112.662 137.376 112.641 136.678 112.339C134.892 111.558 135.074 109.797 135.069 108.219C135.063 105.224 135.069 102.24 135.069 99.2452H135.048C135.048 95.5525 135.256 91.8442 134.99 88.1723C134.99 88.1358 134.98 88.0994 134.98 88.0629C134.949 87.6879 134.897 87.3233 134.808 86.9692C134.293 84.865 132.892 83.8442 131.256 84.2817C129.595 84.3754 128.569 86.0317 127.412 87.141C119.298 94.9275 111.214 102.75 103.147 110.589C101.845 111.855 100.553 113.188 98.5842 112.334C96.803 111.553 96.9853 109.792 96.9801 108.214C96.9748 105.219 96.9801 102.235 96.9801 99.24H96.954C96.954 95.5473 97.1623 91.839 96.8967 88.1671C96.6207 84.3129 93.9019 82.9379 91.2353 85.4379C82.1311 93.9744 73.2509 102.745 64.2925 111.438C63.1467 112.547 62.8082 113.943 63.6519 115.266C64.5425 116.667 65.8707 116.698 67.3238 115.881C71.7978 113.375 72.5894 116.329 72.6675 119.735C72.8082 125.537 72.6363 131.344 72.7509 137.146C72.7925 139.266 71.7561 142.042 74.7561 143.047C77.4436 143.948 78.8811 141.709 80.4905 140.146C88.428 132.417 96.3238 124.651 104.324 116.99C104.678 116.657 105.027 116.256 105.407 115.886C105.412 115.886 105.418 115.881 105.423 115.875C106.511 115.266 107.376 114.985 108.074 114.948C108.308 115.016 108.548 115.11 108.808 115.256C110.074 115.974 110.522 117.058 110.673 118.271C110.694 118.464 110.714 118.657 110.725 118.855C110.746 119.178 110.746 119.5 110.746 119.829C110.725 125.459 110.657 131.089 110.782 136.714C110.834 138.855 109.699 141.636 112.365 142.896C113.194 143.287 113.918 143.349 114.574 143.198C116.23 142.912 117.355 141.334 118.579 140.141C126.522 132.412 134.418 124.646 142.418 116.985C143.131 116.297 143.865 115.329 144.829 114.985C145.303 114.875 145.819 114.891 146.407 115.11C148.918 116.053 148.438 118.516 148.444 120.589C148.47 126.568 148.433 132.547 148.48 138.526C148.496 140.282 148.543 142.235 150.522 143.011C150.954 143.178 151.355 143.25 151.735 143.25C153.85 143.448 155.23 141.412 156.652 140.042C164.371 132.589 171.985 125.037 179.668 117.553C181.006 116.25 211.438 85.7348 208.949 84.6202L208.944 84.6306Z" fill="#F5F5EA"/>
<mask id="mask5_718_412" style="mask-type:luminance" maskUnits="userSpaceOnUse" x="60" y="82" width="147" height="62">
<path d="M60.416 82.667H206.666V144H60.416V82.667Z" fill="white"/>
</mask>
<g mask="url(#mask5_718_412)">
<path d="M206.415 84.823C203.587 83.4637 201.811 86.6147 199.994 88.2189C198.905 89.2449 191.811 96.2397 190.53 97.4584C187.941 100 181.665 106.109 179.197 108.563C178.009 109.698 176.598 111.224 175.342 112.245C174.566 112.583 173.744 112.891 172.858 112.901C172.374 112.781 171.895 112.615 171.488 112.307C170.217 111.391 170.358 109.599 170.374 108.266C170.358 104.708 170.29 95.2137 170.27 91.5366C170.191 89.797 170.551 87.7866 169.65 86.2553C168.988 85.2605 167.613 84.5782 166.405 84.8647C165.082 85.172 164.28 86.2866 163.332 87.2553C162.061 88.5314 158.691 91.8074 157.348 93.1251C155.994 94.4324 140.306 109.766 139.384 110.646C138.358 111.583 137.327 112.922 135.796 113.167C134.702 113.297 133.619 112.906 132.879 112.083C131.884 110.886 132.16 109.182 132.124 107.761C132.124 105.969 132.129 101.234 132.134 99.3907L132.556 99.8126H132.53H132.108V99.3907C132.108 96.4897 132.249 93.6095 132.186 90.7397C132.087 88.8074 132.327 86.323 130.608 85.047C130.087 84.6824 129.421 84.6147 128.79 84.7918C127.712 84.8178 126.842 85.698 126.046 86.573C125.348 87.3282 124.233 88.4064 123.473 89.1251C117.665 94.6876 108.462 103.5 102.655 109.063C101.754 109.88 99.6862 112.151 98.5508 112.646C97.405 113.229 95.8998 112.922 95.0195 111.969C94.1445 110.984 94.2904 109.599 94.28 108.401V106.594L94.2904 99.3855L94.457 99.5522H94.431H94.2643V99.3907C94.2643 96.4584 94.4102 93.5366 94.3268 90.6199C94.2018 88.5678 94.3998 85.9845 92.457 84.7814C90.3789 83.672 88.4987 86.0887 87.1393 87.3543C85.0977 89.3178 79.7852 94.4949 77.6862 96.5157L65.082 108.74L61.931 111.792C61.4414 112.276 61.0612 112.875 60.957 113.526C60.7383 114.75 61.7279 116.333 63.056 116.281C64.6706 116.151 65.9831 114.667 67.7331 114.807C71.3477 114.958 70.3164 121.854 70.53 124.38L70.5456 133.162L70.5925 137.557C70.582 138.948 70.1862 140.453 70.8216 141.677C71.4466 142.734 73.056 143.224 74.2175 142.865C75.5404 142.427 76.4258 141.219 77.4102 140.234C85.8164 131.99 94.2383 123.807 102.634 115.599C103.546 115.099 104.509 114.641 105.592 114.594C106.488 114.839 107.249 115.349 107.806 116.083C108.842 117.479 108.702 119.234 108.728 120.828L108.738 123.125L108.775 132.323L108.79 136.927C108.806 138.417 108.337 139.943 108.806 141.297C109.717 143.234 112.342 143.323 113.78 141.823C120.54 135.099 131.759 124.354 138.504 117.766L139.332 116.964C140.254 116.13 140.853 115.146 142.16 114.641C143.77 114.281 145.478 115.177 146.108 116.677C146.65 118.073 146.41 119.49 146.426 120.886L146.415 128.995L146.41 137.104C146.514 138.979 145.999 141.198 147.566 142.448C148.051 142.781 148.671 142.995 149.264 142.984C150.921 143.125 152.124 141.703 153.212 140.578C155.707 138.104 161.764 132.307 164.363 129.781C174.165 120.349 184.358 110.516 193.629 100.599C197.16 96.8334 200.697 93.0574 203.957 89.0522C204.869 87.8699 205.884 86.7189 206.467 85.3334C206.535 85.1459 206.582 84.8907 206.415 84.8178V84.823ZM206.457 84.7293C207.41 85.1199 204.395 88.6303 204.056 89.1407C200.806 93.1616 197.285 96.9584 193.764 100.745C180.395 115.089 165.832 129.188 151.869 142.964C149.957 144.573 146.436 143.906 145.796 141.271C145.462 140.078 145.535 138.344 145.52 137.12C145.488 133.063 145.452 124.943 145.421 120.891C145.369 118.979 145.9 116.844 144.04 115.891C143.587 115.604 142.707 115.537 142.483 115.62C141.582 115.943 140.801 117.021 140.04 117.708C139.514 118.208 136.509 121.146 135.915 121.714C130.775 126.761 119.665 137.448 114.494 142.62C113.598 143.458 112.254 144.104 110.941 143.927C109.619 143.74 108.327 142.964 107.811 141.698C107.212 140.094 107.738 138.484 107.728 136.938V132.333V123.12C107.697 121.792 107.775 119.854 107.66 118.573C107.587 117.865 107.395 117.193 107.009 116.677C106.634 116.167 106.025 115.75 105.421 115.573L105.577 115.589C104.728 115.646 103.884 116.047 103.124 116.464L103.228 116.386C101.41 118.214 98.8216 120.703 96.9518 122.516C92.0091 127.328 81.4258 137.464 76.4779 142.401C75.9206 142.912 75.2695 143.401 74.4727 143.641C72.8737 144.083 71.0404 143.511 70.155 142.057C69.3789 140.609 69.8425 139.016 69.8529 137.537L69.8268 133.151L69.8737 124.37C69.8737 122.906 69.8633 121.453 69.8373 119.99C69.7695 118.641 69.7695 117.068 68.9362 115.979C68.0195 114.891 66.3581 115.537 65.2643 116.109C64.3425 116.646 62.9518 117.198 61.8893 116.531C60.0456 115.386 59.9466 112.802 61.5768 111.396C63.53 109.594 75.1758 98.2762 77.405 96.1876C79.5404 94.1251 84.8477 89.0418 86.905 87.0626L88.4883 85.5418C90.3216 83.6824 92.9883 83.5053 94.082 86.2032C94.6498 87.5991 94.582 89.1147 94.6498 90.5887C94.7227 93.5209 94.6029 96.4532 94.6081 99.3699L94.4414 99.2032H94.4675H94.6289V99.3699L94.6445 106.578V108.38C94.582 110.156 94.6498 112.083 96.7643 112.484C97.9414 112.755 98.9727 112.026 99.7956 111.25L102.384 108.75C105.639 105.573 114.488 96.948 117.863 93.6564C118.785 92.7553 123.483 88.1772 124.311 87.3647C125.457 86.3387 126.275 84.9428 127.733 84.2814C129.749 83.547 131.551 83.9897 132.436 86.2918C132.973 87.698 132.91 89.2241 132.983 90.6928C133.072 93.5991 132.957 96.4897 132.962 99.3647L132.54 98.9428H132.566H132.983V99.3647L132.994 104.943V107.734C133.046 109.365 132.639 111.5 134.52 112.13C136.316 112.823 137.551 111.104 138.764 109.979L140.759 108.031C143.634 105.245 158.212 91.1251 160.79 88.6303C162.238 87.3543 163.306 85.922 164.848 84.7293C166.52 83.4376 169.145 84.0939 170.238 85.8647C170.78 86.7553 170.9 87.7762 170.921 88.7189C170.879 93.823 170.848 103.177 170.816 108.25C170.702 110.104 170.759 112.068 172.915 112.5C173.426 112.526 174.671 112.156 175.15 111.927C176.389 110.964 177.816 109.386 178.988 108.323C181.52 105.922 187.832 99.7709 190.405 97.3022C191.478 96.2345 198.889 89.1095 199.905 88.1043C201.77 86.4584 203.572 83.3074 206.457 84.7084V84.7293Z" fill="#221F20"/>
</g>
<path d="M203.454 69.4065L207.699 66.9586C207.975 66.7972 208.272 66.7607 208.584 66.844C208.897 66.9274 209.131 67.1097 209.293 67.3857L211.741 71.6305C211.902 71.9065 211.944 72.2034 211.86 72.5159C211.777 72.8284 211.595 73.0628 211.313 73.2243L207.074 75.6722C206.793 75.8336 206.496 75.8753 206.188 75.792C205.876 75.7086 205.636 75.5263 205.475 75.2451L203.027 71.0055C202.866 70.7243 202.829 70.4274 202.912 70.1201C202.996 69.8076 203.178 69.568 203.454 69.4065Z" fill="#221F20"/>
<path d="M134.11 150.297L138.35 147.849C138.631 147.688 138.928 147.651 139.24 147.735C139.548 147.818 139.787 147.995 139.949 148.276L142.397 152.516C142.558 152.797 142.595 153.094 142.511 153.407C142.428 153.719 142.246 153.953 141.97 154.115L137.725 156.563C137.449 156.724 137.152 156.761 136.839 156.677C136.527 156.594 136.293 156.417 136.131 156.136L133.683 151.896C133.522 151.615 133.48 151.318 133.563 151.006C133.647 150.698 133.829 150.459 134.11 150.297Z" fill="#221F20"/>
<path d="M93.2665 150.297L97.5061 147.849C97.7873 147.688 98.0842 147.651 98.3915 147.735C98.704 147.818 98.9436 147.995 99.105 148.276L101.553 152.516C101.714 152.797 101.751 153.094 101.668 153.407C101.584 153.719 101.402 153.953 101.126 154.115L96.8811 156.563C96.605 156.724 96.3081 156.761 95.9956 156.677C95.6831 156.594 95.4488 156.417 95.2873 156.136L92.8394 151.896C92.6779 151.615 92.6363 151.318 92.7196 151.006C92.8029 150.698 92.9852 150.459 93.2665 150.297Z" fill="#221F20"/>
<path d="M83.9696 150.297L88.2092 147.849C88.4904 147.688 88.7873 147.651 89.0998 147.735C89.4071 147.818 89.6467 147.995 89.8081 148.276L92.2561 152.516C92.4175 152.797 92.454 153.094 92.3706 153.407C92.2873 153.714 92.105 153.953 91.829 154.115L87.5842 156.563C87.3081 156.724 87.0113 156.761 86.6988 156.677C86.3863 156.594 86.1519 156.417 85.9904 156.136L83.5425 151.896C83.3811 151.615 83.3394 151.318 83.4227 151.006C83.5061 150.693 83.6883 150.459 83.9696 150.297Z" fill="#221F20"/>
<mask id="mask6_718_412" style="mask-type:luminance" maskUnits="userSpaceOnUse" x="193" y="64" width="20" height="12">
<path d="M193.334 64.2969H212.287V76H193.334V64.2969Z" fill="white"/>
</mask>
<g mask="url(#mask6_718_412)">
<path d="M207.49 64.5205L201.287 68.1403" stroke="#221F20" stroke-width="0.508027" stroke-miterlimit="10"/>
</g>
<mask id="mask7_718_412" style="mask-type:luminance" maskUnits="userSpaceOnUse" x="130" y="148" width="22" height="12">
<path d="M130.666 148H151.999V159.219H130.666V148Z" fill="white"/>
</mask>
<g mask="url(#mask7_718_412)">
<path d="M144.234 155.511L138.031 159.125" stroke="#221F20" stroke-width="0.508027" stroke-miterlimit="10"/>
</g>
</g>
</svg>
