<svg width="430" height="191" viewBox="0 0 430 191" fill="none" xmlns="http://www.w3.org/2000/svg">
<mask id="mask0_822_2011" style="mask-type:alpha" maskUnits="userSpaceOnUse" x="0" y="0" width="430" height="191">
<path d="M0 0H430V190.602H0V0Z" fill="#6D6AB1"/>
</mask>
<g mask="url(#mask0_822_2011)">
<path d="M0 0H430V185.602C430 188.364 427.762 190.602 425 190.602H5.00001C2.23858 190.602 0 188.364 0 185.602V0Z" fill="#6D6AB1"/>
<path d="M0 0H430V185.602C430 188.364 427.762 190.602 425 190.602H5.00001C2.23858 190.602 0 188.364 0 185.602V0Z" fill="black" fill-opacity="0.2"/>
<mask id="mask1_822_2011" style="mask-type:luminance" maskUnits="userSpaceOnUse" x="316" y="-20" width="274" height="211">
<path d="M590 -19.157H316.648V190.602H590V-19.157Z" fill="white"/>
</mask>
<g mask="url(#mask1_822_2011)">
<mask id="mask2_822_2011" style="mask-type:luminance" maskUnits="userSpaceOnUse" x="250" y="-41" width="790" height="253">
<path d="M250.326 -40.2356H1039.55V211.685H250.326V-40.2356Z" fill="black" fill-opacity="0.08"/>
</mask>
<g mask="url(#mask2_822_2011)">
<mask id="mask3_822_2011" style="mask-type:luminance" maskUnits="userSpaceOnUse" x="316" y="-20" width="275" height="211">
<path d="M316.65 -19.2424H590.002V190.692H316.65V-19.2424Z" fill="white"/>
</mask>
<g mask="url(#mask3_822_2011)">
<mask id="mask4_822_2011" style="mask-type:luminance" maskUnits="userSpaceOnUse" x="317" y="-20" width="272" height="210">
<path d="M588.727 -19.1565H317.075V189.787H588.727V-19.1565Z" fill="white"/>
</mask>
<g mask="url(#mask4_822_2011)">
<path d="M422.729 85.0842C447.519 65.373 454.686 53.4224 462.156 38.7895C469.622 24.1524 470.818 -19.1567 470.818 -19.1567H418.847C418.847 -19.1567 417.651 24.1524 410.185 38.7895C402.719 53.4224 395.548 65.373 370.758 85.0842C345.968 104.795 321.777 117.938 316.997 166.325L316.698 189.919H368.665L368.964 166.325C373.743 117.938 397.939 104.795 422.729 85.0842ZM481.273 85.0842C506.063 65.373 513.23 53.4224 520.7 38.7895C528.166 24.1524 529.362 -19.1567 529.362 -19.1567H477.391C477.391 -19.1567 476.195 24.1524 468.729 38.7895C461.263 53.4224 454.092 65.373 429.302 85.0842C404.513 104.795 380.317 117.938 375.542 166.325L375.243 189.919H427.214L427.508 166.325C432.288 117.938 456.484 104.795 481.273 85.0842ZM537.127 -19.1567C537.127 -19.1567 535.935 24.1524 528.469 38.7895C520.999 53.4224 513.832 65.373 489.042 85.0842C464.253 104.795 440.057 117.938 435.278 166.325L434.979 189.919H486.95L487.249 166.325C492.028 117.938 516.22 104.795 541.013 85.0842C565.803 65.373 572.97 53.4224 580.436 38.7895C587.906 24.1524 589.098 -19.1567 589.098 -19.1567H537.127Z" fill="#F5F5EA"/>
</g>
</g>
</g>
</g>
<mask id="mask5_822_2011" style="mask-type:luminance" maskUnits="userSpaceOnUse" x="-130" y="0" width="247" height="190">
<path d="M116.059 0.893555H-129.999V189.708H116.059V0.893555Z" fill="white"/>
</mask>
<g mask="url(#mask5_822_2011)">
<mask id="mask6_822_2011" style="mask-type:luminance" maskUnits="userSpaceOnUse" x="-190" y="-19" width="711" height="228">
<path d="M-189.698 -18.0806H520.719V208.686H-189.698V-18.0806Z" fill="black" fill-opacity="0.08"/>
</mask>
<g mask="url(#mask6_822_2011)">
<mask id="mask7_822_2011" style="mask-type:luminance" maskUnits="userSpaceOnUse" x="-130" y="0" width="247" height="190">
<path d="M-129.999 0.815918H116.059V189.788H-129.999V0.815918Z" fill="white"/>
</mask>
<g mask="url(#mask7_822_2011)">
<mask id="mask8_822_2011" style="mask-type:luminance" maskUnits="userSpaceOnUse" x="-130" y="0" width="245" height="189">
<path d="M114.906 0.893311H-129.621V188.973H114.906V0.893311Z" fill="white"/>
</mask>
<g mask="url(#mask8_822_2011)">
<path d="M-34.5165 94.726C-12.2021 76.983 -5.75082 66.2256 0.973465 53.0539C7.69391 39.8783 8.77042 0.893555 8.77042 0.893555H-38.0113C-38.0113 0.893555 -39.0878 39.8783 -45.8082 53.0539C-52.5286 66.2256 -58.9838 76.983 -81.2981 94.726C-103.612 112.469 -125.389 124.299 -129.691 167.855L-129.96 189.093H-83.182L-82.9129 167.855C-78.6107 124.299 -56.8308 112.469 -34.5165 94.726ZM18.1821 94.726C40.4964 76.983 46.9478 66.2256 53.6721 53.0539C60.3925 39.8783 61.469 0.893555 61.469 0.893555H14.6873C14.6873 0.893555 13.6108 39.8783 6.89038 53.0539C0.169937 66.2256 -6.28523 76.983 -28.5996 94.726C-50.9139 112.469 -72.6938 124.299 -76.9921 167.855L-77.2613 189.093H-30.4796L-30.2143 167.855C-25.9121 124.299 -4.13222 112.469 18.1821 94.726ZM68.4586 0.893555C68.4586 0.893555 67.3859 39.8783 60.6655 53.0539C53.9412 66.2256 47.4899 76.983 25.1755 94.726C2.86119 112.469 -18.9187 124.299 -23.2209 167.855L-23.49 189.093H23.2916L23.5608 167.855C27.8629 124.299 49.639 112.469 71.9572 94.726C94.2715 76.983 100.723 66.2256 107.443 53.0539C114.168 39.8783 115.24 0.893555 115.24 0.893555H68.4586Z" fill="#F5F5EA"/>
</g>
</g>
</g>
</g>
<path d="M274.508 107.68C272.259 106.672 271.076 108.642 269.801 109.872C263.248 116.164 256.77 122.531 250.267 128.868C249.837 129.285 249.408 129.739 248.942 130.081C248.15 130.431 247.509 130.589 246.992 130.589C246.85 130.56 246.709 130.523 246.559 130.464C244.847 129.798 245.13 128.156 245.126 126.739C245.109 121.981 245.126 117.218 245.117 112.459C245.117 110.588 245.376 108.522 243.193 107.617C242.664 107.397 242.201 107.355 241.789 107.426C240.435 107.601 239.527 108.951 238.564 109.872C232.011 116.164 225.533 122.531 219.03 128.868C218.343 129.539 217.655 130.302 216.789 130.552C216.33 130.673 215.822 130.656 215.247 130.406C213.785 129.769 213.935 128.323 213.931 127.027C213.927 124.572 213.931 122.122 213.931 119.668H213.91C213.91 116.639 214.081 113.597 213.864 110.584C213.864 110.555 213.856 110.526 213.856 110.497C213.831 110.188 213.789 109.888 213.714 109.601C213.293 107.872 212.144 107.034 210.802 107.397C209.44 107.472 208.598 108.83 207.653 109.738C200.995 116.126 194.367 122.543 187.752 128.973C186.685 130.01 185.627 131.106 184.011 130.402C182.549 129.764 182.698 128.318 182.694 127.023C182.69 124.568 182.694 122.118 182.694 119.664H182.673C182.673 116.635 182.844 113.593 182.628 110.58C182.399 107.422 180.17 106.292 177.983 108.342C170.517 115.343 163.235 122.539 155.89 129.669C154.953 130.577 154.674 131.723 155.365 132.81C156.095 133.956 157.186 133.981 158.377 133.315C162.044 131.256 162.693 133.681 162.76 136.473C162.873 141.232 162.731 145.994 162.827 150.753C162.86 152.495 162.01 154.77 164.472 155.595C166.676 156.332 167.855 154.499 169.172 153.216C175.683 146.878 182.157 140.507 188.718 134.223C189.006 133.948 189.293 133.619 189.606 133.319C189.61 133.319 189.614 133.315 189.618 133.31C190.51 132.81 191.222 132.577 191.793 132.548C191.984 132.602 192.18 132.681 192.393 132.802C193.434 133.39 193.801 134.277 193.926 135.273C193.942 135.431 193.959 135.59 193.967 135.752C193.984 136.015 193.984 136.281 193.984 136.552C193.967 141.169 193.909 145.786 194.013 150.399C194.055 152.157 193.126 154.436 195.313 155.47C195.992 155.791 196.584 155.841 197.121 155.72C198.479 155.482 199.404 154.191 200.408 153.211C206.919 146.874 213.393 140.502 219.955 134.219C220.542 133.656 221.142 132.86 221.934 132.577C222.321 132.49 222.746 132.502 223.225 132.681C225.287 133.452 224.892 135.473 224.896 137.173C224.917 142.077 224.887 146.982 224.929 151.886C224.942 153.328 224.979 154.928 226.6 155.566C226.954 155.703 227.283 155.762 227.595 155.762C229.332 155.924 230.461 154.253 231.628 153.128C237.956 147.015 244.201 140.823 250.5 134.685C251.6 133.615 276.554 108.588 274.513 107.672L274.508 107.68Z" fill="#F5F5EA"/>
<path d="M272.438 107.838C270.118 106.726 268.664 109.309 267.172 110.626C266.281 111.468 260.461 117.201 259.411 118.202C257.29 120.289 252.141 125.298 250.117 127.31C249.142 128.244 247.988 129.494 246.959 130.331C246.321 130.61 245.647 130.86 244.917 130.869C244.522 130.773 244.13 130.635 243.797 130.381C242.755 129.631 242.868 128.16 242.88 127.069C242.868 124.148 242.814 116.364 242.797 113.347C242.735 111.918 243.026 110.272 242.289 109.014C241.747 108.197 240.618 107.638 239.627 107.872C238.544 108.126 237.885 109.039 237.106 109.834C236.065 110.88 233.303 113.568 232.199 114.647C231.091 115.722 218.226 128.298 217.468 129.019C216.63 129.79 215.785 130.885 214.527 131.086C213.631 131.194 212.744 130.873 212.135 130.198C211.319 129.215 211.548 127.819 211.515 126.652C211.515 125.185 211.519 121.302 211.523 119.789L211.869 120.135H211.848H211.502V119.789C211.502 117.41 211.619 115.047 211.569 112.693C211.486 111.109 211.681 109.068 210.273 108.022C209.844 107.726 209.298 107.668 208.782 107.813C207.899 107.834 207.186 108.555 206.532 109.276C205.961 109.893 205.045 110.78 204.42 111.368C199.658 115.931 192.114 123.16 187.352 127.723C186.61 128.39 184.915 130.252 183.986 130.66C183.044 131.14 181.811 130.885 181.091 130.106C180.374 129.298 180.491 128.16 180.482 127.177V125.698L180.491 119.785L180.628 119.922H180.607H180.47V119.789C180.47 117.385 180.591 114.985 180.52 112.593C180.42 110.909 180.582 108.793 178.987 107.805C177.283 106.897 175.741 108.876 174.629 109.914C172.954 111.526 168.597 115.772 166.876 117.431L156.54 127.456L153.957 129.96C153.553 130.356 153.241 130.848 153.158 131.381C152.978 132.386 153.791 133.686 154.878 133.64C156.203 133.536 157.278 132.319 158.715 132.431C161.677 132.556 160.831 138.211 161.006 140.286L161.019 147.486L161.06 151.091C161.052 152.232 160.727 153.466 161.248 154.47C161.76 155.341 163.077 155.741 164.031 155.445C165.118 155.087 165.843 154.095 166.651 153.287C173.542 146.528 180.449 139.815 187.335 133.081C188.081 132.673 188.873 132.298 189.76 132.256C190.493 132.456 191.118 132.877 191.576 133.477C192.426 134.623 192.309 136.065 192.33 137.369L192.339 139.257L192.368 146.799L192.38 150.574C192.397 151.799 192.01 153.049 192.397 154.162C193.143 155.749 195.297 155.82 196.475 154.591C202.016 149.078 211.219 140.265 216.747 134.861L217.426 134.202C218.184 133.519 218.676 132.711 219.747 132.298C221.067 132.002 222.467 132.736 222.984 133.965C223.429 135.111 223.234 136.273 223.246 137.419L223.238 144.07L223.229 150.72C223.317 152.257 222.892 154.078 224.179 155.103C224.575 155.378 225.083 155.553 225.571 155.545C226.929 155.658 227.916 154.495 228.808 153.57C230.853 151.541 235.823 146.786 237.952 144.715C245.992 136.977 254.349 128.915 261.952 120.781C264.848 117.689 267.747 114.593 270.422 111.31C271.167 110.339 272.001 109.393 272.48 108.259C272.534 108.105 272.575 107.897 272.438 107.834V107.838ZM272.471 107.763C273.254 108.084 270.78 110.964 270.501 111.38C267.839 114.681 264.952 117.793 262.065 120.897C251.1 132.665 239.156 144.228 227.708 155.528C226.141 156.845 223.254 156.299 222.729 154.137C222.455 153.162 222.513 151.737 222.5 150.732C222.475 147.407 222.446 140.744 222.421 137.423C222.375 135.857 222.813 134.102 221.288 133.323C220.917 133.086 220.197 133.031 220.009 133.098C219.272 133.365 218.63 134.248 218.009 134.811C217.576 135.223 215.114 137.632 214.627 138.098C210.411 142.236 201.3 151.003 197.059 155.245C196.326 155.933 195.222 156.462 194.147 156.316C193.059 156.162 192.001 155.528 191.58 154.487C191.089 153.174 191.518 151.853 191.51 150.582V146.807V139.253C191.485 138.161 191.547 136.573 191.455 135.523C191.397 134.94 191.239 134.39 190.922 133.965C190.614 133.548 190.114 133.206 189.618 133.061L189.747 133.073C189.052 133.119 188.36 133.448 187.735 133.79L187.823 133.727C186.331 135.227 184.207 137.269 182.674 138.757C178.62 142.703 169.942 151.016 165.885 155.066C165.426 155.483 164.893 155.887 164.239 156.083C162.931 156.445 161.427 155.974 160.698 154.783C160.065 153.595 160.444 152.287 160.452 151.074L160.431 147.478L160.469 140.278C160.469 139.078 160.461 137.882 160.44 136.682C160.386 135.577 160.386 134.286 159.702 133.394C158.948 132.502 157.586 133.031 156.69 133.502C155.932 133.94 154.795 134.394 153.92 133.848C152.408 132.906 152.329 130.79 153.666 129.635C155.266 128.156 164.818 118.872 166.647 117.16C168.397 115.468 172.75 111.301 174.433 109.676L175.733 108.43C177.237 106.905 179.424 106.759 180.32 108.972C180.786 110.118 180.732 111.36 180.786 112.568C180.845 114.972 180.749 117.376 180.753 119.772L180.616 119.635H180.636H180.77V119.772L180.782 125.681V127.16C180.732 128.619 180.786 130.198 182.519 130.527C183.486 130.748 184.332 130.152 185.007 129.515L187.127 127.464C189.797 124.86 197.055 117.785 199.821 115.085C200.579 114.347 204.433 110.589 205.112 109.926C206.049 109.084 206.72 107.938 207.915 107.397C209.569 106.793 211.048 107.155 211.773 109.043C212.21 110.197 212.16 111.447 212.223 112.655C212.294 115.039 212.198 117.41 212.202 119.768L211.856 119.422H211.877H212.223V119.768L212.231 124.343V126.631C212.273 127.969 211.94 129.719 213.481 130.235C214.956 130.806 215.968 129.394 216.96 128.473L218.597 126.877C220.955 124.589 232.911 113.01 235.023 110.964C236.211 109.914 237.085 108.743 238.352 107.763C239.723 106.705 241.876 107.243 242.772 108.693C243.214 109.426 243.314 110.259 243.33 111.034C243.297 115.222 243.272 122.893 243.247 127.056C243.151 128.577 243.197 130.185 244.967 130.54C245.384 130.56 246.405 130.256 246.801 130.069C247.817 129.281 248.983 127.985 249.946 127.114C252.02 125.144 257.199 120.102 259.307 118.077C260.19 117.197 266.264 111.355 267.097 110.53C268.626 109.18 270.105 106.597 272.471 107.747V107.763Z" fill="#231F20"/>
<path d="M273.485 93.1874L270.008 95.1959C269.549 95.4605 269.392 96.0466 269.657 96.505L271.665 99.9837C271.929 100.442 272.515 100.599 272.974 100.335L276.452 98.3261C276.91 98.0615 277.067 97.4753 276.802 97.0169L274.794 93.5382C274.53 93.0798 273.944 92.9228 273.485 93.1874Z" fill="#231F20"/>
<path d="M216.622 159.534L213.144 161.543C212.686 161.807 212.529 162.393 212.794 162.852L214.802 166.33C215.066 166.789 215.652 166.946 216.11 166.681L219.588 164.673C220.047 164.408 220.204 163.822 219.939 163.364L217.931 159.885C217.667 159.427 217.081 159.269 216.622 159.534Z" fill="#231F20"/>
<path d="M183.13 159.534L179.652 161.543C179.194 161.807 179.037 162.393 179.301 162.852L181.309 166.33C181.574 166.789 182.16 166.946 182.618 166.681L186.096 164.673C186.554 164.408 186.712 163.822 186.447 163.364L184.439 159.885C184.174 159.427 183.588 159.269 183.13 159.534Z" fill="#231F20"/>
<path d="M175.503 159.534L172.025 161.543C171.567 161.807 171.41 162.393 171.674 162.852L173.682 166.33C173.947 166.789 174.533 166.946 174.991 166.681L178.469 164.673C178.928 164.408 179.085 163.822 178.82 163.364L176.812 159.885C176.547 159.427 175.961 159.269 175.503 159.534Z" fill="#231F20"/>
<path d="M273.317 91.1875L268.23 94.1543" stroke="#231F20" stroke-miterlimit="10"/>
<path d="M221.446 165.816L216.359 168.783" stroke="#231F20" stroke-miterlimit="10"/>
</g>
</svg>
