<?xml version="1.0" encoding="UTF-8"?>
<svg id="Layer_2" data-name="Layer 2" xmlns="http://www.w3.org/2000/svg" viewBox="0 0 2000 1200">
  <g id="Layer_1-2" data-name="Layer 1">
    <rect width="2000" height="1200" style="fill: none; stroke-width: 0px;"/>
    <g>
      <polyline points="388.83 101.55 329.61 101.55 329.61 165.77 319.28 165.77 319.28 94.98 388.83 94.98" style="fill: #a7a9ac; stroke-width: 0px;"/>
      <polygon points="120.13 165.77 120.13 101.55 71.23 101.55 71.23 165.77 60.9 165.77 60.9 94.98 130.45 94.98 130.45 149.84 223.53 94.94 326.58 161.17 319.28 165.81 223.55 104.25 120.13 165.77" style="fill: #a7a9ac; stroke-width: 0px;"/>
    </g>
    <g>
      <polyline points="388.83 271.63 329.61 271.63 329.61 335.85 319.28 335.85 319.28 265.06 388.83 265.06" style="fill: #a7a9ac; stroke-width: 0px;"/>
      <polygon points="120.13 335.85 120.13 271.63 71.23 271.63 71.23 335.85 60.9 335.85 60.9 265.06 130.45 265.06 130.45 319.92 223.53 265.03 326.58 331.25 319.28 335.89 223.55 274.33 120.13 335.85" style="fill: #a7a9ac; stroke-width: 0px;"/>
    </g>
    <g>
      <polyline points="388.83 441.71 329.61 441.71 329.61 505.94 319.28 505.94 319.28 435.14 388.83 435.14" style="fill: #a7a9ac; stroke-width: 0px;"/>
      <polygon points="120.13 505.94 120.13 441.71 71.23 441.71 71.23 505.94 60.9 505.94 60.9 435.14 130.45 435.14 130.45 490.01 223.53 435.11 326.58 501.33 319.28 505.97 223.55 444.41 120.13 505.94" style="fill: #a7a9ac; stroke-width: 0px;"/>
    </g>
    <g>
      <polyline points="388.83 611.8 329.61 611.8 329.61 676.02 319.28 676.02 319.28 605.23 388.83 605.23" style="fill: #a7a9ac; stroke-width: 0px;"/>
      <polygon points="120.13 676.02 120.13 611.8 71.23 611.8 71.23 676.02 60.9 676.02 60.9 605.23 130.45 605.23 130.45 660.09 223.53 605.19 326.58 671.41 319.28 676.06 223.55 614.5 120.13 676.02" style="fill: #a7a9ac; stroke-width: 0px;"/>
    </g>
    <g>
      <polyline points="388.83 781.88 329.61 781.88 329.61 846.1 319.28 846.1 319.28 775.31 388.83 775.31" style="fill: #a7a9ac; stroke-width: 0px;"/>
      <polygon points="120.13 846.1 120.13 781.88 71.23 781.88 71.23 846.1 60.9 846.1 60.9 775.31 130.45 775.31 130.45 830.17 223.53 775.27 326.58 841.49 319.28 846.14 223.55 784.58 120.13 846.1" style="fill: #a7a9ac; stroke-width: 0px;"/>
    </g>
  </g>
</svg>