<?xml version="1.0" encoding="UTF-8"?>
<svg id="Layer_2" data-name="Layer 2" xmlns="http://www.w3.org/2000/svg" viewBox="0 0 2000 1200">
  <g id="Layer_1-2" data-name="Layer 1">
    <rect width="2000" height="1200" style="fill: none; stroke-width: 0px;"/>
    <g>
      <polygon points="1928.77 165.77 1928.77 101.55 1879.87 101.55 1879.87 165.77 1869.55 165.77 1869.55 94.98 1939.1 94.98 1939.1 165.77 1928.77 165.77" style="fill: #a7a9ac; stroke-width: 0px;"/>
      <polygon points="1670.39 165.77 1670.39 101.55 1621.5 101.55 1621.5 165.77 1611.17 165.77 1611.17 94.98 1680.72 94.98 1680.72 149.84 1773.8 94.94 1876.85 161.17 1869.55 165.81 1773.82 104.25 1670.39 165.77" style="fill: #a7a9ac; stroke-width: 0px;"/>
      <polygon points="1412.02 165.77 1412.02 101.55 1363.12 101.55 1363.12 165.77 1352.79 165.77 1352.79 94.98 1422.34 94.98 1422.34 149.84 1515.42 94.94 1618.47 161.17 1611.17 165.81 1515.44 104.25 1412.02 165.77" style="fill: #a7a9ac; stroke-width: 0px;"/>
      <polygon points="1153.64 165.77 1153.64 101.55 1104.74 101.55 1104.74 165.77 1094.41 165.77 1094.41 94.98 1163.96 94.98 1163.96 149.84 1257.04 94.94 1360.09 161.17 1352.79 165.81 1257.07 104.25 1153.64 165.77" style="fill: #a7a9ac; stroke-width: 0px;"/>
      <polygon points="895.26 165.77 895.26 101.55 846.36 101.55 846.36 165.77 836.04 165.77 836.04 94.98 905.59 94.98 905.59 149.84 998.66 94.94 1101.71 161.17 1094.41 165.81 998.69 104.25 895.26 165.77" style="fill: #a7a9ac; stroke-width: 0px;"/>
      <polygon points="636.88 165.77 636.88 101.55 587.98 101.55 587.98 165.77 577.66 165.77 577.66 94.98 647.21 94.98 647.21 149.84 740.29 94.94 843.34 161.17 836.04 165.81 740.31 104.25 636.88 165.77" style="fill: #a7a9ac; stroke-width: 0px;"/>
      <polygon points="378.5 165.77 378.5 101.55 329.61 101.55 329.61 165.77 319.28 165.77 319.28 94.98 388.83 94.98 388.83 149.84 481.91 94.94 584.96 161.17 577.66 165.81 481.93 104.25 378.5 165.77" style="fill: #a7a9ac; stroke-width: 0px;"/>
      <polygon points="120.13 165.77 120.13 101.55 71.23 101.55 71.23 165.77 60.9 165.77 60.9 94.98 130.45 94.98 130.45 149.84 223.53 94.94 326.58 161.17 319.28 165.81 223.55 104.25 120.13 165.77" style="fill: #a7a9ac; stroke-width: 0px;"/>
    </g>
    <g>
      <polygon points="1928.77 335.85 1928.77 271.63 1879.87 271.63 1879.87 335.85 1869.55 335.85 1869.55 265.06 1939.1 265.06 1939.1 335.85 1928.77 335.85" style="fill: #a7a9ac; stroke-width: 0px;"/>
      <polygon points="1670.39 335.85 1670.39 271.63 1621.5 271.63 1621.5 335.85 1611.17 335.85 1611.17 265.06 1680.72 265.06 1680.72 319.92 1773.8 265.03 1876.85 331.25 1869.55 335.89 1773.82 274.33 1670.39 335.85" style="fill: #a7a9ac; stroke-width: 0px;"/>
      <polygon points="1412.02 335.85 1412.02 271.63 1363.12 271.63 1363.12 335.85 1352.79 335.85 1352.79 265.06 1422.34 265.06 1422.34 319.92 1515.42 265.03 1618.47 331.25 1611.17 335.89 1515.44 274.33 1412.02 335.85" style="fill: #a7a9ac; stroke-width: 0px;"/>
      <polygon points="1153.64 335.85 1153.64 271.63 1104.74 271.63 1104.74 335.85 1094.41 335.85 1094.41 265.06 1163.96 265.06 1163.96 319.92 1257.04 265.03 1360.09 331.25 1352.79 335.89 1257.07 274.33 1153.64 335.85" style="fill: #a7a9ac; stroke-width: 0px;"/>
      <polygon points="895.26 335.85 895.26 271.63 846.36 271.63 846.36 335.85 836.04 335.85 836.04 265.06 905.59 265.06 905.59 319.92 998.66 265.03 1101.71 331.25 1094.41 335.89 998.69 274.33 895.26 335.85" style="fill: #a7a9ac; stroke-width: 0px;"/>
      <polygon points="636.88 335.85 636.88 271.63 587.98 271.63 587.98 335.85 577.66 335.85 577.66 265.06 647.21 265.06 647.21 319.92 740.29 265.03 843.34 331.25 836.04 335.89 740.31 274.33 636.88 335.85" style="fill: #a7a9ac; stroke-width: 0px;"/>
      <polygon points="378.5 335.85 378.5 271.63 329.61 271.63 329.61 335.85 319.28 335.85 319.28 265.06 388.83 265.06 388.83 319.92 481.91 265.03 584.96 331.25 577.66 335.89 481.93 274.33 378.5 335.85" style="fill: #a7a9ac; stroke-width: 0px;"/>
      <polygon points="120.13 335.85 120.13 271.63 71.23 271.63 71.23 335.85 60.9 335.85 60.9 265.06 130.45 265.06 130.45 319.92 223.53 265.03 326.58 331.25 319.28 335.89 223.55 274.33 120.13 335.85" style="fill: #a7a9ac; stroke-width: 0px;"/>
    </g>
    <g>
      <polygon points="1928.77 505.94 1928.77 441.71 1879.87 441.71 1879.87 505.94 1869.55 505.94 1869.55 435.14 1939.1 435.14 1939.1 505.94 1928.77 505.94" style="fill: #a7a9ac; stroke-width: 0px;"/>
      <polygon points="1670.39 505.94 1670.39 441.71 1621.5 441.71 1621.5 505.94 1611.17 505.94 1611.17 435.14 1680.72 435.14 1680.72 490.01 1773.8 435.11 1876.85 501.33 1869.55 505.97 1773.82 444.41 1670.39 505.94" style="fill: #a7a9ac; stroke-width: 0px;"/>
      <polygon points="1412.02 505.94 1412.02 441.71 1363.12 441.71 1363.12 505.94 1352.79 505.94 1352.79 435.14 1422.34 435.14 1422.34 490.01 1515.42 435.11 1618.47 501.33 1611.17 505.97 1515.44 444.41 1412.02 505.94" style="fill: #a7a9ac; stroke-width: 0px;"/>
      <polygon points="1153.64 505.94 1153.64 441.71 1104.74 441.71 1104.74 505.94 1094.41 505.94 1094.41 435.14 1163.96 435.14 1163.96 490.01 1257.04 435.11 1360.09 501.33 1352.79 505.97 1257.07 444.41 1153.64 505.94" style="fill: #a7a9ac; stroke-width: 0px;"/>
      <polygon points="895.26 505.94 895.26 441.71 846.36 441.71 846.36 505.94 836.04 505.94 836.04 435.14 905.59 435.14 905.59 490.01 998.66 435.11 1101.71 501.33 1094.41 505.97 998.69 444.41 895.26 505.94" style="fill: #a7a9ac; stroke-width: 0px;"/>
      <polygon points="636.88 505.94 636.88 441.71 587.98 441.71 587.98 505.94 577.66 505.94 577.66 435.14 647.21 435.14 647.21 490.01 740.29 435.11 843.34 501.33 836.04 505.97 740.31 444.41 636.88 505.94" style="fill: #a7a9ac; stroke-width: 0px;"/>
      <polygon points="378.5 505.94 378.5 441.71 329.61 441.71 329.61 505.94 319.28 505.94 319.28 435.14 388.83 435.14 388.83 490.01 481.91 435.11 584.96 501.33 577.66 505.97 481.93 444.41 378.5 505.94" style="fill: #a7a9ac; stroke-width: 0px;"/>
      <polygon points="120.13 505.94 120.13 441.71 71.23 441.71 71.23 505.94 60.9 505.94 60.9 435.14 130.45 435.14 130.45 490.01 223.53 435.11 326.58 501.33 319.28 505.97 223.55 444.41 120.13 505.94" style="fill: #a7a9ac; stroke-width: 0px;"/>
    </g>
    <g>
      <polygon points="1928.77 676.02 1928.77 611.8 1879.87 611.8 1879.87 676.02 1869.55 676.02 1869.55 605.23 1939.1 605.23 1939.1 676.02 1928.77 676.02" style="fill: #a7a9ac; stroke-width: 0px;"/>
      <polygon points="1670.39 676.02 1670.39 611.8 1621.5 611.8 1621.5 676.02 1611.17 676.02 1611.17 605.23 1680.72 605.23 1680.72 660.09 1773.8 605.19 1876.85 671.41 1869.55 676.06 1773.82 614.5 1670.39 676.02" style="fill: #a7a9ac; stroke-width: 0px;"/>
      <polygon points="1412.02 676.02 1412.02 611.8 1363.12 611.8 1363.12 676.02 1352.79 676.02 1352.79 605.23 1422.34 605.23 1422.34 660.09 1515.42 605.19 1618.47 671.41 1611.17 676.06 1515.44 614.5 1412.02 676.02" style="fill: #a7a9ac; stroke-width: 0px;"/>
      <polygon points="1153.64 676.02 1153.64 611.8 1104.74 611.8 1104.74 676.02 1094.41 676.02 1094.41 605.23 1163.96 605.23 1163.96 660.09 1257.04 605.19 1360.09 671.41 1352.79 676.06 1257.07 614.5 1153.64 676.02" style="fill: #a7a9ac; stroke-width: 0px;"/>
      <polygon points="895.26 676.02 895.26 611.8 846.36 611.8 846.36 676.02 836.04 676.02 836.04 605.23 905.59 605.23 905.59 660.09 998.66 605.19 1101.71 671.41 1094.41 676.06 998.69 614.5 895.26 676.02" style="fill: #a7a9ac; stroke-width: 0px;"/>
      <polygon points="636.88 676.02 636.88 611.8 587.98 611.8 587.98 676.02 577.66 676.02 577.66 605.23 647.21 605.23 647.21 660.09 740.29 605.19 843.34 671.41 836.04 676.06 740.31 614.5 636.88 676.02" style="fill: #a7a9ac; stroke-width: 0px;"/>
      <polygon points="378.5 676.02 378.5 611.8 329.61 611.8 329.61 676.02 319.28 676.02 319.28 605.23 388.83 605.23 388.83 660.09 481.91 605.19 584.96 671.41 577.66 676.06 481.93 614.5 378.5 676.02" style="fill: #a7a9ac; stroke-width: 0px;"/>
      <polygon points="120.13 676.02 120.13 611.8 71.23 611.8 71.23 676.02 60.9 676.02 60.9 605.23 130.45 605.23 130.45 660.09 223.53 605.19 326.58 671.41 319.28 676.06 223.55 614.5 120.13 676.02" style="fill: #a7a9ac; stroke-width: 0px;"/>
    </g>
    <g>
      <polygon points="1928.77 846.1 1928.77 781.88 1879.87 781.88 1879.87 846.1 1869.55 846.1 1869.55 775.31 1939.1 775.31 1939.1 846.1 1928.77 846.1" style="fill: #a7a9ac; stroke-width: 0px;"/>
      <polygon points="1670.39 846.1 1670.39 781.88 1621.5 781.88 1621.5 846.1 1611.17 846.1 1611.17 775.31 1680.72 775.31 1680.72 830.17 1773.8 775.27 1876.85 841.49 1869.55 846.14 1773.82 784.58 1670.39 846.1" style="fill: #a7a9ac; stroke-width: 0px;"/>
      <polygon points="1412.02 846.1 1412.02 781.88 1363.12 781.88 1363.12 846.1 1352.79 846.1 1352.79 775.31 1422.34 775.31 1422.34 830.17 1515.42 775.27 1618.47 841.49 1611.17 846.14 1515.44 784.58 1412.02 846.1" style="fill: #a7a9ac; stroke-width: 0px;"/>
      <polygon points="1153.64 846.1 1153.64 781.88 1104.74 781.88 1104.74 846.1 1094.41 846.1 1094.41 775.31 1163.96 775.31 1163.96 830.17 1257.04 775.27 1360.09 841.49 1352.79 846.14 1257.07 784.58 1153.64 846.1" style="fill: #a7a9ac; stroke-width: 0px;"/>
      <polygon points="895.26 846.1 895.26 781.88 846.36 781.88 846.36 846.1 836.04 846.1 836.04 775.31 905.59 775.31 905.59 830.17 998.66 775.27 1101.71 841.49 1094.41 846.14 998.69 784.58 895.26 846.1" style="fill: #a7a9ac; stroke-width: 0px;"/>
      <polygon points="636.88 846.1 636.88 781.88 587.98 781.88 587.98 846.1 577.66 846.1 577.66 775.31 647.21 775.31 647.21 830.17 740.29 775.27 843.34 841.49 836.04 846.14 740.31 784.58 636.88 846.1" style="fill: #a7a9ac; stroke-width: 0px;"/>
      <polygon points="378.5 846.1 378.5 781.88 329.61 781.88 329.61 846.1 319.28 846.1 319.28 775.31 388.83 775.31 388.83 830.17 481.91 775.27 584.96 841.49 577.66 846.14 481.93 784.58 378.5 846.1" style="fill: #a7a9ac; stroke-width: 0px;"/>
      <polygon points="120.13 846.1 120.13 781.88 71.23 781.88 71.23 846.1 60.9 846.1 60.9 775.31 130.45 775.31 130.45 830.17 223.53 775.27 326.58 841.49 319.28 846.14 223.55 784.58 120.13 846.1" style="fill: #a7a9ac; stroke-width: 0px;"/>
    </g>
  </g>
</svg>