<svg width="195" height="79" viewBox="0 0 195 79" fill="none" xmlns="http://www.w3.org/2000/svg">
<path d="M193.97 1.53479C190.393 -0.0687616 188.511 3.06545 186.484 5.02019C176.063 15.0258 165.762 25.1507 155.421 35.2292C154.738 35.8918 154.056 36.6141 153.314 37.1574C152.055 37.714 151.035 37.9658 150.213 37.9658C149.988 37.9195 149.763 37.8598 149.525 37.7671C146.802 36.7069 147.252 34.0961 147.246 31.8432C147.219 24.276 147.246 16.7022 147.232 9.13508C147.232 6.1599 147.643 2.87329 144.172 1.4354C143.33 1.08421 142.595 1.01794 141.939 1.13059C139.786 1.40889 138.342 3.55579 136.812 5.02019C126.391 15.0258 116.089 25.1507 105.748 35.2292C104.655 36.296 103.562 37.5086 102.184 37.9062C101.455 38.0984 100.647 38.0719 99.7325 37.6743C97.4072 36.6605 97.6457 34.3612 97.639 32.3004C97.6324 28.3976 97.639 24.5013 97.639 20.5985H97.6059C97.6059 15.7812 97.8775 10.944 97.533 6.15328C97.533 6.10689 97.5198 6.06051 97.5198 6.01413C97.48 5.52378 97.4138 5.04669 97.2945 4.58948C96.6254 1.8396 94.797 0.507723 92.6638 1.08421C90.4975 1.20348 89.1593 3.36363 87.6554 4.80815C77.069 14.9662 66.5289 25.1706 56.0087 35.3949C54.3128 37.0448 52.6301 38.7875 50.0597 37.6677C47.7344 36.6538 47.9729 34.3545 47.9662 32.2938C47.9596 28.3909 47.9662 24.4947 47.9662 20.5918H47.9331C47.9331 15.7746 48.2047 10.9374 47.8602 6.14665C47.4959 1.12396 43.9516 -0.671749 40.4736 2.58836C28.6019 13.7204 17.0218 25.164 5.34222 36.5014C3.85164 37.946 3.40778 39.7682 4.5075 41.4976C5.66684 43.3198 7.40254 43.3596 9.29723 42.2994C15.1271 39.026 16.1605 42.8825 16.2665 47.3221C16.4454 54.8893 16.2202 62.463 16.3725 70.0302C16.4255 72.8 15.0741 76.4179 18.9893 77.7299C22.4938 78.9027 24.3687 75.9872 26.4621 73.9463C36.8167 63.8678 47.1116 53.7363 57.5457 43.7439C58.0028 43.3066 58.4599 42.7831 58.9568 42.306C58.9634 42.306 58.97 42.2994 58.9767 42.2928C60.3944 41.4976 61.5272 41.1266 62.4348 41.0802C62.7395 41.1663 63.0509 41.2922 63.3888 41.4844C65.045 42.4187 65.628 43.8301 65.8267 45.4137C65.8532 45.6655 65.8797 45.9173 65.893 46.1757C65.9195 46.5932 65.9195 47.0173 65.9195 47.448C65.893 54.7899 65.8002 62.1317 65.9658 69.467C66.0321 72.2632 64.5547 75.8878 68.0328 77.5311C69.1126 78.0413 70.0533 78.1208 70.9079 77.9287C73.0676 77.551 74.5383 75.4969 76.1349 73.9397C86.4895 63.8612 96.7844 53.7297 107.219 43.7373C108.153 42.8428 109.107 41.5771 110.365 41.1266C110.981 40.9874 111.657 41.0073 112.419 41.2922C115.698 42.5181 115.069 45.7318 115.076 48.4353C115.109 56.2344 115.062 64.0335 115.129 71.8325C115.148 74.1252 115.208 76.6697 117.785 77.6835C118.348 77.9022 118.872 77.9949 119.368 77.9949C122.131 78.2534 123.926 75.5962 125.781 73.8072C135.844 64.0865 145.775 54.2399 155.792 44.4794C157.541 42.7765 197.223 2.97931 193.977 1.52154L193.97 1.53479Z" fill="#6D6AB1"/>
<path d="M190.678 1.78649C186.988 0.017289 184.676 4.12556 182.304 6.21945C180.886 7.55795 171.632 16.6757 169.962 18.2659C166.59 21.5857 158.402 29.5504 155.182 32.7509C153.632 34.2352 151.797 36.223 150.161 37.5549C149.147 37.9989 148.074 38.3965 146.914 38.4097C146.285 38.2573 145.662 38.0386 145.132 37.6344C143.476 36.4417 143.655 34.1027 143.675 32.3666C143.655 27.7216 143.569 15.3438 143.542 10.5464C143.443 8.27358 143.907 5.65622 142.734 3.65509C141.873 2.35635 140.078 1.46844 138.501 1.83951C136.778 2.24371 135.732 3.69485 134.493 4.96046C132.837 6.62365 128.444 10.8976 126.689 12.6138C124.927 14.3233 104.469 34.3213 103.264 35.4677C101.932 36.6935 100.587 38.4362 98.5864 38.7543C97.1621 38.9266 95.751 38.4163 94.7838 37.3429C93.4853 35.7791 93.8497 33.5593 93.7967 31.704C93.7967 29.3715 93.8033 23.1959 93.8099 20.7905L94.3598 21.3405H94.3266H93.7768V20.7905C93.7768 17.007 93.9623 13.2499 93.8828 9.50606C93.7503 6.98809 94.0617 3.74124 91.8225 2.07805C91.1401 1.60759 90.2723 1.51482 89.4508 1.74674C88.0463 1.77987 86.9135 2.92621 85.8734 4.07255C84.9658 5.05323 83.5083 6.46462 82.5146 7.39892C74.9425 14.6546 62.9449 26.1512 55.3728 33.4069C54.1936 34.4671 51.4973 37.429 50.0199 38.0784C48.5227 38.8404 46.5618 38.4362 45.4157 37.1971C44.2762 35.9116 44.4617 34.1027 44.4485 32.5389V30.1865L44.4617 20.7839L44.6803 21.0026H44.6472H44.4286V20.7905C44.4286 16.9672 44.6207 13.1505 44.5081 9.34703C44.3491 6.67003 44.6075 3.3039 42.0702 1.73349C39.3606 0.288966 36.9094 3.43643 35.1406 5.08636C32.4774 7.65071 25.5479 14.4029 22.8119 17.0401L6.37571 32.9828L2.26833 36.9652C1.62572 37.5947 1.12886 38.3766 0.996367 39.2247C0.7115 40.8217 2.00334 42.889 3.73241 42.8162C5.8391 42.6505 7.5483 40.7156 9.83386 40.8945C14.5441 41.0933 13.1993 50.0851 13.4775 53.385L13.4974 64.8351L13.5636 70.5668C13.5504 72.3824 13.0336 74.3438 13.8617 75.9407C14.6766 77.3256 16.77 77.9617 18.2871 77.4913C20.0162 76.9214 21.1689 75.3444 22.4541 74.0589C33.4115 63.3111 44.3955 52.6362 55.3463 41.9282C56.5321 41.2789 57.7908 40.6825 59.2019 40.6162C60.3679 40.9343 61.3616 41.6036 62.0903 42.5577C63.4418 44.3799 63.2563 46.6726 63.2894 48.7466L63.3027 51.7483L63.3491 63.7418L63.3689 69.7452C63.3954 71.6933 62.7793 73.6812 63.3954 75.4504C64.5813 77.975 68.0063 78.0876 69.8811 76.1329C78.6921 67.3664 93.3263 53.3519 102.117 44.7576L103.197 43.7107C104.403 42.624 105.185 41.3385 106.887 40.6825C108.987 40.212 111.213 41.3783 112.035 43.333C112.744 45.1552 112.432 47.0039 112.452 48.8261L112.439 59.4016L112.426 69.9771C112.565 72.4222 111.889 75.3179 113.936 76.9479C114.565 77.3852 115.374 77.6635 116.149 77.6503C118.308 77.8292 119.879 75.9805 121.296 74.5094C124.549 71.2825 132.452 63.7219 135.838 60.4287C148.624 48.1238 161.913 35.302 174.003 22.3676C178.607 17.4509 183.218 12.5276 187.471 7.30615C188.657 5.76224 189.982 4.25808 190.744 2.45575C190.83 2.21057 190.896 1.87926 190.678 1.77987V1.78649ZM190.731 1.66722C191.976 2.17744 188.041 6.75617 187.597 7.4188C183.364 12.6668 178.773 17.6166 174.182 22.5531C156.746 41.2656 137.752 59.6534 119.547 77.6238C117.056 79.7177 112.465 78.8496 111.631 75.4106C111.193 73.8601 111.286 71.5939 111.266 69.997C111.227 64.7092 111.18 54.1139 111.14 48.8328C111.068 46.3413 111.763 43.5517 109.338 42.3126C108.749 41.9349 107.603 41.8487 107.305 41.9547C106.132 42.3788 105.112 43.7836 104.125 44.6781C103.436 45.3341 99.5205 49.1641 98.7454 49.9062C92.0411 56.4861 77.5526 70.4277 70.8086 77.1732C69.6426 78.2665 67.887 79.1081 66.1778 78.8761C64.4488 78.631 62.7661 77.6238 62.097 75.9672C61.3152 73.88 61.9976 71.7794 61.9843 69.7584V63.7551V51.7417C61.9446 50.0056 62.044 47.481 61.8982 45.8112C61.8055 44.8835 61.5537 44.0089 61.0502 43.333C60.56 42.6704 59.765 42.127 58.9767 41.8951L59.182 41.915C58.0757 41.9879 56.976 42.5113 55.9823 43.0547L56.1214 42.9553C53.7497 45.3407 50.3711 48.5876 47.9331 50.9532C41.4872 57.2282 27.6877 70.4476 21.2352 76.8883C20.5064 77.5509 19.6584 78.1936 18.6184 78.5051C16.5382 79.0815 14.1466 78.3328 12.9873 76.4377C11.9803 74.5492 12.5832 72.4686 12.5964 70.5403L12.5633 64.8219L12.6229 53.3717C12.6229 51.4634 12.6097 49.5617 12.5765 47.6533C12.4904 45.8974 12.4904 43.8432 11.4039 42.4252C10.2048 41.0072 8.03854 41.8487 6.6142 42.5975C5.40849 43.2932 3.59992 44.0155 2.20871 43.1475C-0.196099 41.6499 -0.32197 38.2838 1.80459 36.4483C4.34852 34.096 19.5392 19.3328 22.4475 16.6094C25.2299 13.9191 32.1528 7.2929 34.8293 4.70866L36.8962 2.72742C39.2877 0.302219 42.7658 0.0702996 44.1901 3.58883C44.9321 5.41105 44.846 7.38567 44.9321 9.30727C45.0248 13.1306 44.8725 16.954 44.8791 20.764L44.6605 20.5454H44.6936H44.9056V20.764L44.9255 30.16V32.5124C44.846 34.8315 44.9321 37.3429 47.688 37.8664C49.225 38.2175 50.5698 37.27 51.643 36.2562L55.015 32.9961C59.2615 28.8547 70.802 17.6033 75.2008 13.3095C76.4065 12.1367 82.5345 6.15981 83.6143 5.10624C85.1049 3.76774 86.1715 1.94553 88.0728 1.08411C90.7029 0.12331 93.0547 0.699791 94.2074 3.70148C94.903 5.53694 94.8235 7.52482 94.9229 9.44643C95.0355 13.2366 94.8831 17.007 94.8898 20.7574L94.3399 20.2074H94.373H94.9229V20.7574L94.9361 28.033V31.6708C95.0024 33.7978 94.4724 36.5809 96.9236 37.4025C99.2688 38.3103 100.879 36.064 102.455 34.5996L105.059 32.0618C108.808 28.424 127.822 10.0097 131.18 6.75617C133.069 5.08636 134.46 3.22439 136.474 1.66722C138.653 -0.0158423 142.078 0.838942 143.503 3.14487C144.205 4.31109 144.364 5.63634 144.39 6.86882C144.337 13.5282 144.298 25.7271 144.258 32.3467C144.105 34.7653 144.178 37.323 146.994 37.8862C147.656 37.9194 149.279 37.4356 149.909 37.1375C151.525 35.8851 153.38 33.8244 154.911 32.4395C158.21 29.3053 166.444 21.2875 169.796 18.0672C171.201 16.669 180.86 7.37904 182.185 6.06704C184.616 3.92014 186.968 -0.188125 190.731 1.64072V1.66722Z" fill="#231F20"/>
</svg>
