<?xml version="1.0" encoding="UTF-8"?>
<svg id="Layer_2" data-name="Layer 2" xmlns="http://www.w3.org/2000/svg" viewBox="0 0 2000 1200">
  <g id="Layer_1-2" data-name="Layer 1">
    <polygon points="234.28 165.81 149.2 105.94 67.32 163.56 60.92 157.07 149.2 94.94 234.28 154.82 316.15 97.2 322.55 103.69 234.28 165.81" style="fill: #a7a9ac; stroke-width: 0px;"/>
    <polygon points="234.28 335.89 149.2 276.02 67.32 333.64 60.92 327.15 149.2 265.02 234.28 324.89 316.15 267.28 322.55 273.77 234.28 335.89" style="fill: #a7a9ac; stroke-width: 0px;"/>
    <polygon points="234.28 505.97 149.2 446.1 67.32 503.72 60.92 497.22 149.2 435.1 234.28 494.97 316.15 437.35 322.55 443.85 234.28 505.97" style="fill: #a7a9ac; stroke-width: 0px;"/>
    <polygon points="234.28 676.05 149.2 616.18 67.32 673.79 60.92 667.3 149.2 605.18 234.28 665.05 316.15 607.43 322.55 613.92 234.28 676.05" style="fill: #a7a9ac; stroke-width: 0px;"/>
    <polygon points="234.28 846.13 149.2 786.25 67.32 843.87 60.92 837.38 149.2 775.26 234.28 835.13 316.15 777.51 322.55 784 234.28 846.13" style="fill: #a7a9ac; stroke-width: 0px;"/>
    <rect width="2000" height="1200" style="fill: none; stroke-width: 0px;"/>
  </g>
</svg>