<?xml version="1.0" encoding="UTF-8"?>
<svg id="Layer_2" data-name="Layer 2" xmlns="http://www.w3.org/2000/svg" viewBox="0 0 2000 1200">
  <g id="Layer_1-2" data-name="Layer 1">
    <polygon points="1255.23 165.81 1170.15 105.94 1085.07 165.81 999.99 105.94 914.91 165.81 829.83 105.94 744.75 165.81 659.67 105.94 574.59 165.81 489.51 105.94 404.43 165.81 319.35 105.94 234.28 165.81 149.2 105.94 67.32 163.56 60.92 157.07 149.2 94.94 234.28 154.81 319.35 94.94 404.43 154.81 489.51 94.94 574.59 154.81 659.67 94.94 744.75 154.82 829.83 94.94 914.91 154.81 999.99 94.94 1085.07 154.82 1170.15 94.95 1255.23 154.81 1340.31 94.94 1425.39 154.82 1510.47 94.94 1595.55 154.82 1680.63 94.95 1765.72 154.82 1850.8 94.95 1939.08 157.07 1932.68 163.56 1850.8 105.94 1765.72 165.81 1680.63 105.94 1595.55 165.81 1510.47 105.94 1425.39 165.81 1340.31 105.94 1255.23 165.81" style="fill: #a7a9ac; stroke-width: 0px;"/>
    <polygon points="1255.23 335.89 1170.15 276.02 1085.07 335.89 999.99 276.02 914.91 335.89 829.83 276.02 744.75 335.89 659.67 276.02 574.59 335.89 489.51 276.02 404.43 335.89 319.35 276.02 234.28 335.89 149.2 276.02 67.32 333.64 60.92 327.15 149.2 265.02 234.28 324.89 319.35 265.02 404.43 324.89 489.51 265.02 574.59 324.89 659.67 265.02 744.75 324.89 829.83 265.02 914.91 324.89 999.99 265.02 1085.07 324.89 1170.15 265.02 1255.23 324.89 1340.31 265.02 1425.39 324.89 1510.47 265.02 1595.55 324.89 1680.63 265.02 1765.72 324.89 1850.8 265.02 1939.08 327.15 1932.68 333.64 1850.8 276.02 1765.72 335.89 1680.63 276.02 1595.55 335.89 1510.47 276.02 1425.39 335.89 1340.31 276.02 1255.23 335.89" style="fill: #a7a9ac; stroke-width: 0px;"/>
    <polygon points="1255.23 505.97 1170.15 446.1 1085.07 505.97 999.99 446.1 914.91 505.97 829.83 446.1 744.75 505.97 659.67 446.1 574.59 505.97 489.51 446.1 404.43 505.97 319.35 446.1 234.28 505.97 149.2 446.1 67.32 503.72 60.92 497.22 149.2 435.1 234.28 494.97 319.35 435.1 404.43 494.97 489.51 435.1 574.59 494.97 659.67 435.1 744.75 494.97 829.83 435.1 914.91 494.97 999.99 435.1 1085.07 494.97 1170.15 435.1 1255.23 494.97 1340.31 435.1 1425.39 494.97 1510.47 435.1 1595.55 494.97 1680.63 435.1 1765.72 494.97 1850.8 435.1 1939.08 497.22 1932.68 503.72 1850.8 446.1 1765.72 505.97 1680.63 446.1 1595.55 505.97 1510.47 446.1 1425.39 505.97 1340.31 446.1 1255.23 505.97" style="fill: #a7a9ac; stroke-width: 0px;"/>
    <polygon points="1255.23 676.05 1170.15 616.18 1085.07 676.05 999.99 616.18 914.91 676.05 829.83 616.18 744.75 676.05 659.67 616.18 574.59 676.05 489.51 616.18 404.43 676.05 319.35 616.18 234.28 676.05 149.2 616.18 67.32 673.79 60.92 667.3 149.2 605.18 234.28 665.05 319.35 605.18 404.43 665.05 489.51 605.18 574.59 665.05 659.67 605.18 744.75 665.05 829.83 605.18 914.91 665.05 999.99 605.18 1085.07 665.05 1170.15 605.18 1255.23 665.05 1340.31 605.18 1425.39 665.05 1510.47 605.18 1595.55 665.05 1680.63 605.18 1765.72 665.05 1850.8 605.18 1939.08 667.3 1932.68 673.79 1850.8 616.18 1765.72 676.05 1680.63 616.18 1595.55 676.05 1510.47 616.18 1425.39 676.05 1340.31 616.18 1255.23 676.05" style="fill: #a7a9ac; stroke-width: 0px;"/>
    <polygon points="1255.23 846.13 1170.15 786.25 1085.07 846.12 999.99 786.25 914.91 846.12 829.83 786.25 744.75 846.13 659.67 786.26 574.59 846.13 489.51 786.26 404.43 846.13 319.35 786.25 234.28 846.13 149.2 786.26 67.32 843.87 60.92 837.38 149.2 775.26 234.28 835.13 319.35 775.26 404.43 835.13 489.51 775.26 574.59 835.13 659.67 775.26 744.75 835.13 829.83 775.26 914.91 835.13 999.99 775.26 1085.07 835.13 1170.15 775.26 1255.23 835.13 1340.31 775.26 1425.39 835.13 1510.47 775.26 1595.55 835.13 1680.63 775.26 1765.72 835.13 1850.8 775.26 1939.08 837.38 1932.68 843.87 1850.8 786.25 1765.72 846.12 1680.63 786.25 1595.55 846.12 1510.47 786.25 1425.39 846.12 1340.31 786.26 1255.23 846.13" style="fill: #a7a9ac; stroke-width: 0px;"/>
    <rect width="2000" height="1200" style="fill: none; stroke-width: 0px;"/>
  </g>
</svg>